DBRep_DrawableShape

CASCADE Topology V1, (c) Matra-Datavision
Locations 5
1
             -1 -1.22464679914735e-16 -4.20592912937973e-32 0.728686252879319 
1.23259516440783e-32 -4.44089209850063e-16               1       -0.860552 
-1.22464679914735e-16               1 4.44089209850063e-16 0.321786838257386 
1
0.997564050259824 0.0697564737441253               0               0 
-0.0697564737441253 0.997564050259824              -0               0 
             -0               0               1               0 
2  2 -1 0
1
0.978147600733806 0.207911690817759               0               0 
-0.207911690817759 0.978147600733806              -0               0 
             -0               0               1      0.65401952 
2  4 -1 0
Curve2ds 234
1 0 1.3258799999999997 1 0 
2 0 0 1 0 -0 1 0.66293999999999986
1 6.2831853071795862 -0 0 1 
1 0 -0 0 1 
1 0 0 1 0 
2 0 0 1 0 -0 1 0.66293999999999986
1 0 0 1 0 
1 0 -0 0.83733560026307341 -0.54668921018443251 
1 0.0041604450674830405 0 0 1 
1 0 0 0 1 
1 0 1 1 0 
1 0 -0 0.8373356002630733 -0.54668921018443273 
1 0 0 0 1 
1 0.0043244545581835134 0 0 1 
1 0 0 1 0 
1 0.0034836887679424544 -0.0022744704279580217 0.97708803087602158 -0.21283557014469873 
1 0 0 1 0 
1 0.0069706752039963814 -0.0030340281369384292 0.99214080389923165 -0.12512643700747841 
1 0 0 1 0 
1 0.010458357563232254 -0.0034738863358048724 0.99736619883615574 -0.072530444774026412 
1 0 0 1 0 
1 0.0139464452380599 -0.0037275469779654647 0.99937522180013305 -0.035343543284946766 
1 0 0 1 0 
1 0.017434816533391611 -0.0038509154577727215 0.99997528844464012 -0.0070301138012884845 
1 0 0 1 0 
1 0.020923402989941348 -0.0038754412236377206 0.99988129216910393 0.015407841193463678 
1 0 0 1 0 
1 0.024412159860553909 -0.0038216806300092592 0.99943415246376188 0.033635916652324349 
1 0 0 1 0 
1 0.027901055302252533 -0.0037042619926769675 0.99881285075762738 0.048712310163053454 
1 0 0 1 0 
1 0.031390065551027378 -0.0035341022382530283 0.99811441806387657 0.061380847607452327 
1 0 0 1 0 
1 0.034879172469868838 -0.0033195333108880193 0.99738966427115539 0.072207046782652065 
1 0 0 1 0 
1 0.038368362182444361 -0.0030669298462295031 0.99666122524525824 0.081648037898167519 
1 0 0 1 0 
1 0.041857624257018826 -0.0027810840694647964 0.9959335028400752 0.090091386495591549 
1 0 0 1 0 
1 0.04534695119182347 -0.0024654422112518576 0.99519842304279971 0.097877979000001947 
1 0 0 1 0 
1 0.04883633807601246 -0.0021222602605316197 0.99443879259807244 0.10531613255379277 
1 0 0 1 0 
1 0.052325782358103895 -0.0017527103402276271 0.99363013163135272 0.11269055645554658 
1 0 0 1 0 
1 0.055815283682977973 -0.0013569555885004311 0.99274144807616582 0.12026810579549915 
1 0 0 1 0 
1 0.059304843774144668 -0.00093420424368905993 0.99173522118476987 0.12830140709125398 
1 0 0 1 0 
1 0.062794466346801789 -0.00048274958449642021 0.99056676394601084 0.13703096790699551 
1 0 0 1 0 
1 0.066284157042378403 8.6736173798840355e-19 -0.98996080013781262 0.14134218828963227 
1 0 0 1 0 
1 0.062796601110797795 0.00049793768307135854 -0.99116725120945037 0.13261779718387182 
1 0 0 1 0 
1 0.059308977056297681 0.00096458044083893787 -0.99220844224447258 0.12458895271570988 
1 0 0 1 0 
1 0.055821290520307154 0.0014025198842252491 -0.9931301069012467 0.1170153441490405 
1 0 0 1 0 
1 0.052333545218024004 0.0018134627345273821 -0.99397086540356583 0.10964451071023371 
1 0 0 1 0 
1 0.04884574287295821 0.002198200753406313 -0.99476287130116225 0.10220973476468564 
1 0 0 1 0 
1 0.045357883129989972 0.0025565708027014897 -0.99553184374340675 0.094426416287251291 
1 0 0 1 0 
1 0.041869963437637388 0.0028874007594893664 -0.99629631810835551 0.085986315909769739 
1 0 0 1 0 
1 0.038381978885054624 0.0031884346348290114 -0.99706585241115331 0.076548585588632714 
1 0 0 1 0 
1 0.034893921970472919 0.0034562261980624672 -0.99783773214009686 0.065725644291314084 
1 0 0 1 0 
1 0.031405782262157157 0.0036859832240024129 -0.99859131180024396 0.053060267593258492 
1 0 0 1 0 
1 0.027917545883774771 0.0038713310770012916 -0.99927824401564169 0.037986721851401693 
1 0 0 1 0 
1 0.024429194698316167 0.0040039378129085217 -0.99980473700367778 0.019760765800111546 
1 0 0 1 0 
1 0.020940704941771499 0.0040728865051119214 -0.99999641798724537 -0.0026765673312317967 
1 0 0 1 0 
1 0.017452044771164008 0.0040635488378218607 -0.99951962202022104 -0.03099234093376237 
1 0 0 1 0 
1 0.01396316943933849 0.003955368456589543 -0.99767251452245909 -0.068187636463170595 
1 0 0 1 0 
1 0.01047401048700891 0.0037168959130038891 -0.99267615035678392 -0.12080587946302888 
1 0 0 1 0 
1 0.0069844462190875502 0.0032922258127123837 -0.97800536936684224 -0.20857971495240507 
1 0 0 1 0 
1 0.0034941860279842502 0.0025478562023069145 -0.8080061845885097 -0.58917400287751931 
1 0.0035687536085439735 0 0 1 
1 0 0 0 1 
1 0 1 1 0 
1 0.0034836887679424544 -0.0022744704279580217 0.97708803087602158 -0.2128355701446987 
1 0 1 1 0 
1 0.0069706752039963822 -0.0030340281369384287 0.99214080389923154 -0.12512643700747844 
1 0 1 1 0 
1 0.010458357563232254 -0.0034738863358048724 0.99736619883615563 -0.072530444774026412 
1 0 1 1 0 
1 0.013946445238059898 -0.0037275469779654655 0.99937522180013316 -0.035343543284946766 
1 0 1 1 0 
1 0.017434816533391611 -0.003850915457772722 0.99997528844464001 -0.0070301138012884845 
1 0 1 1 0 
1 0.020923402989941348 -0.0038754412236377211 0.99988129216910393 0.015407841193463691 
1 0 1 1 0 
1 0.024412159860553909 -0.0038216806300092609 0.99943415246376188 0.033635916652324321 
1 0 1 1 0 
1 0.027901055302252533 -0.0037042619926769688 0.99881285075762738 0.048712310163053427 
1 0 1 1 0 
1 0.031390065551027385 -0.0035341022382530296 0.99811441806387646 0.061380847607452327 
1 0 1 1 0 
1 0.034879172469868845 -0.0033195333108880232 0.99738966427115539 0.072207046782652065 
1 0 1 1 0 
1 0.038368362182444361 -0.0030669298462295061 0.99666122524525824 0.081648037898167505 
1 0 1 1 0 
1 0.04185762425701884 -0.0027810840694648007 0.9959335028400752 0.090091386495591591 
1 0 1 1 0 
1 0.04534695119182347 -0.002465442211251858 0.99519842304279971 0.097877979000001974 
1 0 1 1 0 
1 0.04883633807601246 -0.0021222602605316231 0.99443879259807233 0.10531613255379271 
1 0 1 1 0 
1 0.052325782358103895 -0.0017527103402276284 0.99363013163135272 0.11269055645554657 
1 0 1 1 0 
1 0.05581528368297798 -0.0013569555885004358 0.99274144807616593 0.12026810579549918 
1 0 1 1 0 
1 0.059304843774144675 -0.00093420424368906296 0.99173522118476998 0.12830140709125393 
1 0 1 1 0 
1 0.062794466346801775 -0.00048274958449642108 0.99056676394601095 0.13703096790699559 
1 0 1 1 0 
1 0.066284157042378403 0 -0.98996080013781262 0.1413421882896323 
1 0 1 1 0 
1 0.062796601110797809 0.0004979376830713568 -0.99116725120945026 0.13261779718387182 
1 0 1 1 0 
1 0.059308977056297695 0.00096458044083893614 -0.99220844224447247 0.12458895271570991 
1 0 1 1 0 
1 0.055821290520307154 0.0014025198842252465 -0.99313010690124681 0.11701534414904052 
1 0 1 1 0 
1 0.052333545218024011 0.00181346273452738 -0.99397086540356583 0.10964451071023371 
1 0 1 1 0 
1 0.048845742872958217 0.0021982007534063139 -0.99476287130116225 0.10220973476468566 
1 0 1 1 0 
1 0.045357883129989979 0.0025565708027014879 -0.99553184374340664 0.094426416287251305 
1 0 1 1 0 
1 0.041869963437637388 0.0028874007594893638 -0.99629631810835551 0.085986315909769767 
1 0 1 1 0 
1 0.038381978885054638 0.0031884346348290092 -0.99706585241115342 0.076548585588632728 
1 0 1 1 0 
1 0.034893921970472919 0.0034562261980624663 -0.99783773214009697 0.065725644291314111 
1 0 1 1 0 
1 0.031405782262157157 0.0036859832240024133 -0.99859131180024396 0.05306026759325852 
1 0 1 1 0 
1 0.027917545883774774 0.0038713310770012912 -0.99927824401564169 0.037986721851401728 
1 0 1 1 0 
1 0.02442919469831617 0.0040039378129085217 -0.99980473700367778 0.019760765800111602 
1 0 1 1 0 
1 0.020940704941771499 0.0040728865051119206 -0.99999641798724526 -0.0026765673312317546 
1 0 1 1 0 
1 0.017452044771164011 0.0040635488378218598 -0.99951962202022093 -0.030992340933762345 
1 0 1 1 0 
1 0.01396316943933849 0.0039553684565895413 -0.9976725145224592 -0.068187636463170637 
1 0 1 1 0 
1 0.010474010487008908 0.0037168959130038886 -0.99267615035678392 -0.12080587946302887 
1 0 1 1 0 
1 0.0069844462190875502 0.0032922258127123833 -0.97800536936684235 -0.20857971495240504 
1 0 1 1 0 
1 0.003494186027984251 0.0025478562023069145 -0.80800618458850981 -0.58917400287751942 
1 0.0035687536085439735 0 0 1 
1 0 0 0 1 
1 0.0035153098688501297 0 0 1 
1 0 0 0 1 
1 0.0034972988646476679 0 0 1 
1 0 0 0 1 
1 0.0034905521161994108 0 0 1 
1 0 0 0 1 
1 0.0034886726670774817 0 0 1 
1 0 0 0 1 
1 0.0034891710625410198 0 0 1 
1 0 0 0 1 
1 0.0034908707423074851 0 0 1 
1 0 0 0 1 
1 0.0034931571476361539 0 0 1 
1 0 0 0 1 
1 0.0034956983444939791 0 0 1 
1 0 0 0 1 
1 0.0034983215061941209 0 0 1 
1 0 0 0 1 
1 0.0035009509612615179 0 0 1 
1 0 0 0 1 
1 0.0035035742093766542 0 0 1 
1 0 0 0 1 
1 0.0035062222802968853 0 0 1 
1 0 0 0 1 
1 0.0035089583271132349 0 0 1 
1 0 0 0 1 
1 0.0035118714839544756 0 0 1 
1 0 0 0 1 
1 0.0035150744415165867 0 0 1 
1 0 0 0 1 
1 0.0035187038819577757 0 0 1 
1 0 0 0 1 
1 0.0035229232623100845 0 0 1 
1 0 0 0 1 
1 0.0035229232623100841 0 0 1 
1 0 0 0 1 
1 0.0035187038819577757 0 0 1 
1 0 0 0 1 
1 0.0035150744415165867 0 0 1 
1 0 0 0 1 
1 0.0035118714839544756 0 0 1 
1 0 0 0 1 
1 0.0035089583271132349 0 0 1 
1 0 0 0 1 
1 0.0035062222802968853 0 0 1 
1 0 0 0 1 
1 0.0035035742093766542 0 0 1 
1 0 0 0 1 
1 0.0035009509612615179 0 0 1 
1 0 0 0 1 
1 0.0034983215061941209 0 0 1 
1 0 0 0 1 
1 0.0034956983444939791 0 0 1 
1 0 0 0 1 
1 0.0034931571476361539 0 0 1 
1 0 0 0 1 
1 0.0034908707423074851 0 0 1 
1 0 0 0 1 
1 0.0034891710625410198 0 0 1 
1 0 0 0 1 
1 0.0034886726670774817 0 0 1 
1 0 0 0 1 
1 0.0034905521161994108 0 0 1 
1 0 0 0 1 
1 0.0034972988646476679 0 0 1 
1 0 0 0 1 
1 0.0035153098688501297 0 0 1 
1 0 0 0 1 
Curves 117
2 0.69553925287931873 0.13831823999999981 0.32178683825738608 0 1 0 0 -0 1 1 0 -0 0.66293999999999986
1 0.69553925287931861 -1.1875617599999999 0.98472683825738594 0 1 0 
2 0.69553925287931873 -1.1875617599999999 0.32178683825738608 0 1 0 0 -0 1 1 0 -0 0.66293999999999986
1 1.0000000000000001e-05 0.0001442872783115881 0 0.83852364887920472 0.5448652037617232 0 
7 0 0  1 2 2  0.003658303737238217 0.0021612433393013259 0  0.0039234883142048099 0.0016310727923252676 0.65401951999999997 
 0 2 1 2
1 1.0000000000000001e-05 0.0001442872783115881 0 0.83852364887920472 0.5448652037617232 0 
7 0 0  1 2 2  2.0040612243751842e-05 0.00014323823701603309 0  3.9780488004592948e-05 0.00013905513818871317 0.65401951999999997 
 0 2 1 2
1 0.0034986315789473682 0.002411169027745191 0 0.9775490161593714 0.21070814176449137 0 
1 0.006987263157894736 0.0031631344690168147 0 0.99241082837699079 0.12296644957099002 0 
1 0.010475894736842104 0.0035953996427311777 0 0.99752172003716566 0.070359207315706107 0 
1 0.013964526315789472 0.0038414668185939066 0 0.99944978983607502 0.033168020692006715 0 
1 0.017453157894736841 0.0039572415234105365 0 0.99998822241751106 0.0048533520649648903 0 
1 0.020941789473684209 0.0039741732801032836 0 0.99984538344954099 -0.017584345158136418 0 
1 0.024430421052631577 0.0039128184918237807 0 0.99935856594946948 -0.035811404097297043 0 
1 0.027919052631578945 0.003787805509019576 0 0.99870444743894649 -0.050886409439736942 0 
1 0.031407684210526317 0.0036100512841676191 0 0.99797843954191823 -0.063553396521963304 0 
1 0.034896315789473685 0.0033878877811588225 0 0.99723012100814756 -0.074377992404174073 0 
1 0.038384947368421053 0.0031276896507437574 0 0.99648113256927462 -0.083817375486564913 0 
1 0.041873578947368421 0.0028342491294636504 0 0.99573503241652628 -0.092259119974447551 0 
1 0.04536221052631579 0.0025110124561413894 0 0.99498300451503952 -0.10004409390975959 0 
1 0.048850842105263158 0.0021602356250628764 0 0.99420718450578205 -0.10748057627816222 0 
1 0.052339473684210526 0.0017830907619286898 0 0.99338247281733139 -0.11485322241593306 0 
1 0.055828105263157894 0.0013797410052858936 0 0.99247729656678063 -0.12242881931757148 0 
1 0.059316736842105262 0.00094939459159764587 0 0.9914535851781644 -0.13045991122702949 0 
1 0.062805368421052624 0.00049034479552323039 0 0.99026612820960791 -0.13918690786403845 0 
1 0.066293999999999992 -1.1040168779175016e-18 0 -0.99026612820960802 -0.13918690786403784 0 
1 0.062805368421052624 -0.00049034479552323039 0 -0.9914535851781644 -0.13045991122702949 0 
1 0.059316736842105262 -0.00094939459159764587 0 -0.99247729656678063 -0.12242881931757148 0 
1 0.055828105263157894 -0.0013797410052858936 0 -0.99338247281733139 -0.11485322241593306 0 
1 0.052339473684210526 -0.0017830907619286898 0 -0.99420718450578205 -0.10748057627816222 0 
1 0.048850842105263158 -0.0021602356250628764 0 -0.99498300451503952 -0.10004409390975959 0 
1 0.04536221052631579 -0.0025110124561413894 0 -0.99573503241652628 -0.092259119974447551 0 
1 0.041873578947368421 -0.0028342491294636504 0 -0.99648113256927462 -0.083817375486564913 0 
1 0.038384947368421053 -0.0031276896507437574 0 -0.99723012100814756 -0.074377992404174073 0 
1 0.034896315789473685 -0.0033878877811588225 0 -0.99797843954191823 -0.063553396521963304 0 
1 0.031407684210526317 -0.0036100512841676191 0 -0.99870444743894649 -0.050886409439736942 0 
1 0.027919052631578945 -0.003787805509019576 0 -0.99935856594946948 -0.035811404097297043 0 
1 0.024430421052631577 -0.0039128184918237807 0 -0.99984538344954099 -0.017584345158136418 0 
1 0.020941789473684209 -0.0039741732801032836 0 -0.99998822241751106 0.0048533520649648903 0 
1 0.017453157894736841 -0.0039572415234105365 0 -0.99944978983607502 0.033168020692006715 0 
1 0.013964526315789472 -0.0038414668185939066 0 -0.99752172003716566 0.070359207315706107 0 
1 0.010475894736842104 -0.0035953996427311777 0 -0.99241082837699079 0.12296644957099002 0 
1 0.006987263157894736 -0.0031631344690168147 0 -0.9775490161593714 0.21070814176449137 0 
1 0.0034986315789473682 -0.002411169027745191 0 -0.80672175693129899 0.5909314739406577 0 
7 0 0  1 2 2  0.0071908916425578329 0.0026680223934118946 0  0.0074922273293276716 0.0016412786943206669 0.65401951999999997 
 0 2 1 2
1 0.0034986315789473682 0.002411169027745191 0 0.9775490161593714 0.21070814176449137 0 
1 0.006987263157894736 0.0031631344690168147 0 0.99241082837699079 0.12296644957099002 0 
1 0.010475894736842104 0.0035953996427311777 0 0.99752172003716566 0.070359207315706107 0 
1 0.013964526315789472 0.0038414668185939066 0 0.99944978983607502 0.033168020692006715 0 
1 0.017453157894736841 0.0039572415234105365 0 0.99998822241751106 0.0048533520649648903 0 
1 0.020941789473684209 0.0039741732801032836 0 0.99984538344954099 -0.017584345158136418 0 
1 0.024430421052631577 0.0039128184918237807 0 0.99935856594946948 -0.035811404097297043 0 
1 0.027919052631578945 0.003787805509019576 0 0.99870444743894649 -0.050886409439736942 0 
1 0.031407684210526317 0.0036100512841676191 0 0.99797843954191823 -0.063553396521963304 0 
1 0.034896315789473685 0.0033878877811588225 0 0.99723012100814756 -0.074377992404174073 0 
1 0.038384947368421053 0.0031276896507437574 0 0.99648113256927462 -0.083817375486564913 0 
1 0.041873578947368421 0.0028342491294636504 0 0.99573503241652628 -0.092259119974447551 0 
1 0.04536221052631579 0.0025110124561413894 0 0.99498300451503952 -0.10004409390975959 0 
1 0.048850842105263158 0.0021602356250628764 0 0.99420718450578205 -0.10748057627816222 0 
1 0.052339473684210526 0.0017830907619286898 0 0.99338247281733139 -0.11485322241593306 0 
1 0.055828105263157894 0.0013797410052858936 0 0.99247729656678063 -0.12242881931757148 0 
1 0.059316736842105262 0.00094939459159764587 0 0.9914535851781644 -0.13045991122702949 0 
1 0.062805368421052624 0.00049034479552323039 0 0.99026612820960791 -0.13918690786403845 0 
1 0.066293999999999992 -1.1040168779175016e-18 0 -0.99026612820960802 -0.13918690786403784 0 
1 0.062805368421052624 -0.00049034479552323039 0 -0.9914535851781644 -0.13045991122702949 0 
1 0.059316736842105262 -0.00094939459159764587 0 -0.99247729656678063 -0.12242881931757148 0 
1 0.055828105263157894 -0.0013797410052858936 0 -0.99338247281733139 -0.11485322241593306 0 
1 0.052339473684210526 -0.0017830907619286898 0 -0.99420718450578205 -0.10748057627816222 0 
1 0.048850842105263158 -0.0021602356250628764 0 -0.99498300451503952 -0.10004409390975959 0 
1 0.04536221052631579 -0.0025110124561413894 0 -0.99573503241652628 -0.092259119974447551 0 
1 0.041873578947368421 -0.0028342491294636504 0 -0.99648113256927462 -0.083817375486564913 0 
1 0.038384947368421053 -0.0031276896507437574 0 -0.99723012100814756 -0.074377992404174073 0 
1 0.034896315789473685 -0.0033878877811588225 0 -0.99797843954191823 -0.063553396521963304 0 
1 0.031407684210526317 -0.0036100512841676191 0 -0.99870444743894649 -0.050886409439736942 0 
1 0.027919052631578945 -0.003787805509019576 0 -0.99935856594946948 -0.035811404097297043 0 
1 0.024430421052631577 -0.0039128184918237807 0 -0.99984538344954099 -0.017584345158136418 0 
1 0.020941789473684209 -0.0039741732801032836 0 -0.99998822241751106 0.0048533520649648903 0 
1 0.017453157894736841 -0.0039572415234105365 0 -0.99944978983607502 0.033168020692006715 0 
1 0.013964526315789472 -0.0038414668185939066 0 -0.99752172003716566 0.070359207315706107 0 
1 0.010475894736842104 -0.0035953996427311777 0 -0.99241082837699079 0.12296644957099002 0 
1 0.006987263157894736 -0.0031631344690168147 0 -0.9775490161593714 0.21070814176449137 0 
1 0.0034986315789473682 -0.002411169027745191 0 -0.80672175693129899 0.5909314739406577 0 
7 0 0  1 2 2  0.0033219144392851062 -0.0026493477430557452 0  0.0029208678553929784 -0.0030858856065799755 0.65401951999999997 
 0 2 1 2
7 0 0  1 2 2  0.0107011783845576 0.0028558799537488923 0  0.010994496921267815 0.0013387705466509758 0.65401951999999997 
 0 2 1 2
7 0 0  1 2 2  0.014198476610809023 0.002857993085198744 0  0.014458053772647743 0.00085413327412127112 0.65401951999999997 
 0 2 1 2
7 0 0  1 2 2  0.017686686093724861 0.0027301311315134878 0  0.01789452129607165 0.0002420507336441456 0.65401951999999997 
 0 2 1 2
7 0 0  1 2 2  0.021168000641125104 0.0025036670061581506 0  0.02131043821502571 -0.0004667147993898125 0.65401951999999997 
 0 2 1 2
7 0 0  1 2 2  0.024643854195206472 0.0021991070379194463 0  0.024710078446046311 -0.0012520561285581156 0.65401951999999997 
 0 2 1 2
7 0 0  1 2 2  0.028115267178112878 0.001831043943318454 0  0.028096483394208872 -0.0020996645679678015 0.65401951999999997 
 0 2 1 2
7 0 0  1 2 2  0.031583001117953154 0.0014103680816845716 0  0.031471922821561464 -0.0029988617267462181 0.65401951999999997 
 0 2 1 2
7 0 0  1 2 2  0.035047637223147673 0.00094539112066343754 0  0.034838129040804466 -0.0039414977144040667 0.65401951999999997 
 0 2 1 2
7 0 0  1 2 2  0.038509620166854164 0.00044247218267678252 0  0.038196427416353804 -0.0049213371816041601 0.65401951999999997 
 0 2 1 2
7 0 0  1 2 2  0.041969284238595098 -9.3608169381523471e-05 0  0.041547814310211567 -0.0059336926136715502 0.65401951999999997 
 0 2 1 2
7 0 0  1 2 2  0.045426869835838407 -0.00065941209155315856 0  0.044893006235718388 -0.0069751930803700745 0.65401951999999997 
 0 2 1 2
7 0 0  1 2 2  0.048882534328790299 -0.0012526890850409148 0  0.048232472240460705 -0.0080436318863017081 0.65401951999999997 
 0 2 1 2
7 0 0  1 2 2  0.052336359480806408 -0.0018722698793835098 0  0.05156645602307481 -0.0091378625195246664 0.65401951999999997 
 0 2 1 2
7 0 0  1 2 2  0.055788356671856519 -0.0025179917334311802 0  0.054894991501971822 -0.01025772540646056 0.65401951999999997 
 0 2 1 2
7 0 0  1 2 2  0.05923847067130826 -0.0031906444820245872 0  0.058217914060256101 -0.011403995008713292 0.65401951999999997 
 0 2 1 2
7 0 0  1 2 2  0.062686582424020199 -0.0038919306930072953 0  0.06153486884977627 -0.01257834075558 0.65401951999999997 
 0 2 1 2
7 0 0  1 2 2  0.066132511147924788 -0.0046244356703930437 0  0.064845317043046899 -0.013783297631072536 0.65401951999999997 
 0 2 1 2
7 0 0  1 2 2  0.06261817297631124 -0.0048702313734992533 0  0.061330972018734435 -0.013537599926126714 0.65401951999999997 
 0 2 1 2
7 0 0  1 2 2  0.059106017833505074 -0.0050848083102024259 0  0.057823133590671497 -0.013261291092555071 0.65401951999999997 
 0 2 1 2
7 0 0  1 2 2  0.055595864937438684 -0.0052707517845162954 0  0.054321262931372655 -0.012956906114369452 0.65401951999999997 
 0 2 1 2
7 0 0  1 2 2  0.052087595232970671 -0.00542976436428443 0  0.050825005192686561 -0.012626114420866991 0.65401951999999997 
 0 2 1 2
7 0 0  1 2 2  0.048581153489468655 -0.0055626358843474865 0  0.047334195757717551 -0.012269690473651597 0.65401951999999997 
 0 2 1 2
7 0 0  1 2 2  0.045076551086902415 -0.0056692036035557065 0  0.043848868544876761 -0.011887474699144876 0.65401951999999997 
 0 2 1 2
7 0 0  1 2 2  0.041573869788627607 -0.0057482982514478042 0  0.040369267252800468 -0.011478320585405046 0.65401951999999997 
 0 2 1 2
7 0 0  1 2 2  0.038073266964850416 -0.0057976693292265732 0  0.036895860929075118 -0.011040021437034081 0.65401951999999997 
 0 2 1 2
7 0 0  1 2 2  0.034574983013038775 -0.0058138789929336908 0  0.033429366087041355 -0.010569206323795825 0.65401951999999997 
 0 2 1 2
7 0 0  1 2 2  0.031079352222715184 -0.0057921466796752889 0  0.029970779088701237 -0.01006118773101532 0.65401951999999997 
 0 2 1 2
7 0 0  1 2 2  0.027586819267037321 -0.0057261132670296333 0  0.026521425298470708 -0.0095097303093553825 0.65401951999999997 
 0 2 1 2
7 0 0  1 2 2  0.024097965354425602 -0.0056074670873510887 0  0.023083037029050159 -0.0089066841683267152 0.65401951999999997 
 0 2 1 2
7 0 0  1 2 2  0.020613552012988843 -0.005425317781310255 0  0.019657884042487642 -0.0082413709170566628 0.65401951999999997 
 0 2 1 2
7 0 0  1 2 2  0.017134599664870964 -0.0051650726323860556 0  0.016249007743858589 -0.0074994818696522674 0.65401951999999997 
 0 2 1 2
7 0 0  1 2 2  0.013662542252268676 -0.0048062253117917755 0  0.012860682049699385 -0.0066609098296910394 0.65401951999999997 
 0 2 1 2
7 0 0  1 2 2  0.010199573583001971 -0.0043174029060623854 0  0.0094994456834962011 -0.0056948925217823907 0.65401951999999997 
 0 2 1 2
7 0 0  1 2 2  0.0067495934294836144 -0.003642836071445851 0  0.0061769220578532288 -0.0045467460890137286 0.65401951999999997 
 0 2 1 2
Polygon3D 0
PolygonOnTriangulations 0
Surfaces 43
2 0.69553925287931873 -1.1875617599999999 0.32178683825738608 0 1 0 0 -0 1 1 0 -0 0.66293999999999986
1 0.69553925287931873 0.13831823999999981 0.32178683825738608 0 1 0 0 -0 1 1 0 -0 
1 0.69553925287931873 -1.1875617599999999 0.32178683825738608 0 1 0 0 -0 1 1 0 -0 
9 0 0 0 0 1 1 2 2 2 2 2.0040612243751842e-05 0.00014323823701603309 0  3.9780488004592948e-05 0.00013905513818871317 0.65401951999999997  
0.003658303737238217 0.0021612433393013259 0  0.0039234883142048099 0.0016310727923252676 0.65401951999999997  

0 2
0.0041604450674830405 2

0 2
1 2

1 2.0040612243751842e-05 0.00014323823701603309 0 0 0 -1 0.99740984098828323 -0.071927804774840703 0 -0.071927804774840703 -0.99740984098828323 -0 
9 0 0 0 0 1 1 2 2 2 2 0.0036583037372382166 0.0021612433393013259 0  0.0039234883142048099 0.0016310727923252674 0.65401951999999997  
0.0071908916425578329 0.0026680223934118946 0  0.0074922273293276716 0.0016412786943206669 0.65401951999999997  

0 2
0.0035687536085439735 2

0 2
1 2

1 3.9780488004592948e-05 0.00013905513818871317 0.65401951999999997 0 0 -1 0.97769270134353925 -0.21004042882162735 0 -0.21004042882162735 -0.97769270134353925 -0 
9 0 0 0 0 1 1 2 2 2 2 0.0033219144392851053 -0.0026493477430557452 0  0.0029208678553929793 -0.0030858856065799759 0.65401951999999997  
2.0040612243751605e-05 0.00014323823701603349 0  3.9780488004593443e-05 0.00013905513818871342 0.65401951999999997  

0 2
0.0043244545581835134 2

0 2
1 2

9 0 0 0 0 1 1 2 2 2 2 0.0071908916425578321 0.0026680223934118941 0  0.0074922273293276716 0.0016412786943206666 0.65401951999999997  
0.0107011783845576 0.0028558799537488923 0  0.010994496921267815 0.0013387705466509758 0.65401951999999997  

0 2
0.0035153098688501297 2

0 2
1 2

9 0 0 0 0 1 1 2 2 2 2 0.010701178384557601 0.0028558799537488923 0  0.010994496921267815 0.0013387705466509762 0.65401951999999997  
0.014198476610809023 0.002857993085198744 0  0.014458053772647743 0.00085413327412127112 0.65401951999999997  

0 2
0.0034972988646476679 2

0 2
1 2

9 0 0 0 0 1 1 2 2 2 2 0.014198476610809023 0.0028579930851987435 0  0.014458053772647741 0.00085413327412127123 0.65401951999999997  
0.017686686093724861 0.0027301311315134878 0  0.01789452129607165 0.0002420507336441456 0.65401951999999997  

0 2
0.0034905521161994108 2

0 2
1 2

9 0 0 0 0 1 1 2 2 2 2 0.017686686093724861 0.0027301311315134883 0  0.01789452129607165 0.00024205073364414516 0.65401951999999997  
0.021168000641125104 0.0025036670061581506 0  0.02131043821502571 -0.0004667147993898125 0.65401951999999997  

0 2
0.0034886726670774817 2

0 2
1 2

9 0 0 0 0 1 1 2 2 2 2 0.021168000641125104 0.0025036670061581497 0  0.02131043821502571 -0.00046671479938981261 0.65401951999999997  
0.024643854195206472 0.0021991070379194463 0  0.024710078446046311 -0.0012520561285581156 0.65401951999999997  

0 2
0.0034891710625410198 2

0 2
1 2

9 0 0 0 0 1 1 2 2 2 2 0.024643854195206472 0.0021991070379194467 0  0.024710078446046311 -0.0012520561285581152 0.65401951999999997  
0.028115267178112878 0.001831043943318454 0  0.028096483394208872 -0.0020996645679678015 0.65401951999999997  

0 2
0.0034908707423074851 2

0 2
1 2

9 0 0 0 0 1 1 2 2 2 2 0.028115267178112878 0.001831043943318454 0  0.028096483394208872 -0.0020996645679678015 0.65401951999999997  
0.031583001117953154 0.0014103680816845716 0  0.031471922821561464 -0.0029988617267462181 0.65401951999999997  

0 2
0.0034931571476361539 2

0 2
1 2

9 0 0 0 0 1 1 2 2 2 2 0.031583001117953147 0.0014103680816845718 0  0.031471922821561464 -0.0029988617267462181 0.65401951999999997  
0.035047637223147673 0.00094539112066343754 0  0.034838129040804466 -0.0039414977144040667 0.65401951999999997  

0 2
0.0034956983444939791 2

0 2
1 2

9 0 0 0 0 1 1 2 2 2 2 0.035047637223147673 0.00094539112066343743 0  0.034838129040804466 -0.0039414977144040658 0.65401951999999997  
0.038509620166854164 0.00044247218267678252 0  0.038196427416353804 -0.0049213371816041601 0.65401951999999997  

0 2
0.0034983215061941209 2

0 2
1 2

9 0 0 0 0 1 1 2 2 2 2 0.038509620166854171 0.00044247218267678273 0  0.038196427416353804 -0.0049213371816041601 0.65401951999999997  
0.041969284238595098 -9.3608169381523471e-05 0  0.041547814310211567 -0.0059336926136715502 0.65401951999999997  

0 2
0.0035009509612615179 2

0 2
1 2

9 0 0 0 0 1 1 2 2 2 2 0.041969284238595091 -9.3608169381523797e-05 0  0.041547814310211574 -0.005933692613671551 0.65401951999999997  
0.045426869835838407 -0.00065941209155315856 0  0.044893006235718388 -0.0069751930803700745 0.65401951999999997  

0 2
0.0035035742093766542 2

0 2
1 2

9 0 0 0 0 1 1 2 2 2 2 0.045426869835838414 -0.00065941209155315856 0  0.044893006235718382 -0.0069751930803700762 0.65401951999999997  
0.048882534328790299 -0.0012526890850409148 0  0.048232472240460705 -0.0080436318863017081 0.65401951999999997  

0 2
0.0035062222802968853 2

0 2
1 2

9 0 0 0 0 1 1 2 2 2 2 0.048882534328790299 -0.0012526890850409148 0  0.048232472240460712 -0.0080436318863017064 0.65401951999999997  
0.052336359480806408 -0.0018722698793835098 0  0.05156645602307481 -0.0091378625195246664 0.65401951999999997  

0 2
0.0035089583271132349 2

0 2
1 2

9 0 0 0 0 1 1 2 2 2 2 0.052336359480806408 -0.0018722698793835096 0  0.051566456023074803 -0.0091378625195246681 0.65401951999999997  
0.055788356671856519 -0.0025179917334311802 0  0.054894991501971822 -0.01025772540646056 0.65401951999999997  

0 2
0.0035118714839544756 2

0 2
1 2

9 0 0 0 0 1 1 2 2 2 2 0.055788356671856519 -0.0025179917334311806 0  0.054894991501971829 -0.010257725406460558 0.65401951999999997  
0.05923847067130826 -0.0031906444820245872 0  0.058217914060256101 -0.011403995008713292 0.65401951999999997  

0 2
0.0035150744415165867 2

0 2
1 2

9 0 0 0 0 1 1 2 2 2 2 0.05923847067130826 -0.0031906444820245868 0  0.058217914060256101 -0.011403995008713292 0.65401951999999997  
0.062686582424020199 -0.0038919306930072953 0  0.06153486884977627 -0.01257834075558 0.65401951999999997  

0 2
0.0035187038819577757 2

0 2
1 2

9 0 0 0 0 1 1 2 2 2 2 0.062686582424020212 -0.0038919306930072953 0  0.06153486884977627 -0.012578340755580002 0.65401951999999997  
0.066132511147924788 -0.0046244356703930437 0  0.064845317043046899 -0.013783297631072536 0.65401951999999997  

0 2
0.0035229232623100845 2

0 2
1 2

9 0 0 0 0 1 1 2 2 2 2 0.066132511147924788 -0.0046244356703930437 0  0.064845317043046913 -0.013783297631072536 0.65401951999999997  
0.06261817297631124 -0.0048702313734992533 0  0.061330972018734435 -0.013537599926126714 0.65401951999999997  

0 2
0.0035229232623100841 2

0 2
1 2

9 0 0 0 0 1 1 2 2 2 2 0.06261817297631124 -0.0048702313734992533 0  0.061330972018734428 -0.013537599926126714 0.65401951999999997  
0.059106017833505074 -0.0050848083102024259 0  0.057823133590671497 -0.013261291092555071 0.65401951999999997  

0 2
0.0035187038819577757 2

0 2
1 2

9 0 0 0 0 1 1 2 2 2 2 0.059106017833505067 -0.0050848083102024259 0  0.057823133590671497 -0.013261291092555071 0.65401951999999997  
0.055595864937438684 -0.0052707517845162954 0  0.054321262931372655 -0.012956906114369452 0.65401951999999997  

0 2
0.0035150744415165867 2

0 2
1 2

9 0 0 0 0 1 1 2 2 2 2 0.055595864937438684 -0.0052707517845162963 0  0.054321262931372655 -0.012956906114369452 0.65401951999999997  
0.052087595232970671 -0.00542976436428443 0  0.050825005192686561 -0.012626114420866991 0.65401951999999997  

0 2
0.0035118714839544756 2

0 2
1 2

9 0 0 0 0 1 1 2 2 2 2 0.052087595232970671 -0.0054297643642844291 0  0.050825005192686568 -0.01262611442086699 0.65401951999999997  
0.048581153489468655 -0.0055626358843474865 0  0.047334195757717551 -0.012269690473651597 0.65401951999999997  

0 2
0.0035089583271132349 2

0 2
1 2

9 0 0 0 0 1 1 2 2 2 2 0.048581153489468655 -0.0055626358843474874 0  0.047334195757717544 -0.012269690473651599 0.65401951999999997  
0.045076551086902415 -0.0056692036035557065 0  0.043848868544876761 -0.011887474699144876 0.65401951999999997  

0 2
0.0035062222802968853 2

0 2
1 2

9 0 0 0 0 1 1 2 2 2 2 0.045076551086902415 -0.0056692036035557065 0  0.043848868544876761 -0.011887474699144876 0.65401951999999997  
0.041573869788627607 -0.0057482982514478042 0  0.040369267252800468 -0.011478320585405046 0.65401951999999997  

0 2
0.0035035742093766542 2

0 2
1 2

9 0 0 0 0 1 1 2 2 2 2 0.041573869788627614 -0.0057482982514478042 0  0.040369267252800468 -0.011478320585405044 0.65401951999999997  
0.038073266964850416 -0.0057976693292265732 0  0.036895860929075118 -0.011040021437034081 0.65401951999999997  

0 2
0.0035009509612615179 2

0 2
1 2

9 0 0 0 0 1 1 2 2 2 2 0.038073266964850409 -0.0057976693292265732 0  0.036895860929075125 -0.011040021437034083 0.65401951999999997  
0.034574983013038775 -0.0058138789929336908 0  0.033429366087041355 -0.010569206323795825 0.65401951999999997  

0 2
0.0034983215061941209 2

0 2
1 2

9 0 0 0 0 1 1 2 2 2 2 0.034574983013038782 -0.0058138789929336916 0  0.033429366087041348 -0.010569206323795825 0.65401951999999997  
0.031079352222715184 -0.0057921466796752889 0  0.029970779088701237 -0.01006118773101532 0.65401951999999997  

0 2
0.0034956983444939791 2

0 2
1 2

9 0 0 0 0 1 1 2 2 2 2 0.031079352222715181 -0.005792146679675288 0  0.029970779088701237 -0.01006118773101532 0.65401951999999997  
0.027586819267037321 -0.0057261132670296333 0  0.026521425298470708 -0.0095097303093553825 0.65401951999999997  

0 2
0.0034931571476361539 2

0 2
1 2

9 0 0 0 0 1 1 2 2 2 2 0.027586819267037321 -0.0057261132670296333 0  0.026521425298470708 -0.0095097303093553825 0.65401951999999997  
0.024097965354425602 -0.0056074670873510887 0  0.023083037029050159 -0.0089066841683267152 0.65401951999999997  

0 2
0.0034908707423074851 2

0 2
1 2

9 0 0 0 0 1 1 2 2 2 2 0.024097965354425602 -0.0056074670873510887 0  0.023083037029050155 -0.0089066841683267135 0.65401951999999997  
0.020613552012988843 -0.005425317781310255 0  0.019657884042487642 -0.0082413709170566628 0.65401951999999997  

0 2
0.0034891710625410198 2

0 2
1 2

9 0 0 0 0 1 1 2 2 2 2 0.020613552012988846 -0.005425317781310255 0  0.019657884042487642 -0.0082413709170566628 0.65401951999999997  
0.017134599664870964 -0.0051650726323860556 0  0.016249007743858589 -0.0074994818696522674 0.65401951999999997  

0 2
0.0034886726670774817 2

0 2
1 2

9 0 0 0 0 1 1 2 2 2 2 0.017134599664870964 -0.0051650726323860564 0  0.016249007743858589 -0.0074994818696522674 0.65401951999999997  
0.013662542252268676 -0.0048062253117917755 0  0.012860682049699385 -0.0066609098296910394 0.65401951999999997  

0 2
0.0034905521161994108 2

0 2
1 2

9 0 0 0 0 1 1 2 2 2 2 0.013662542252268674 -0.0048062253117917746 0  0.012860682049699387 -0.0066609098296910394 0.65401951999999997  
0.010199573583001971 -0.0043174029060623854 0  0.0094994456834962011 -0.0056948925217823907 0.65401951999999997  

0 2
0.0034972988646476679 2

0 2
1 2

9 0 0 0 0 1 1 2 2 2 2 0.010199573583001971 -0.0043174029060623863 0  0.0094994456834961993 -0.0056948925217823916 0.65401951999999997  
0.0067495934294836144 -0.003642836071445851 0  0.0061769220578532288 -0.0045467460890137286 0.65401951999999997  

0 2
0.0035153098688501297 2

0 2
1 2

9 0 0 0 0 1 1 2 2 2 2 0.0067495934294836144 -0.003642836071445851 0  0.0061769220578532288 -0.0045467460890137286 0.65401951999999997  
0.0033219144392851062 -0.0026493477430557452 0  0.0029208678553929784 -0.0030858856065799755 0.65401951999999997  

0 2
0.0035687536085439735 2

0 2
1 2

Triangulations 0

TShapes 285
Ve
1e-07
0.695539252879319 0.13831824 0.984726838257386
0 0

0101101
*
Ed
 1e-07 1 1 0
1  1 0 0 6.28318530717959
2  1 1 0 0 6.28318530717959
2  2 2 0 0 6.28318530717959
0

0101000
+285 0 -285 0 *
Ve
1e-07
0.695539252879319 -1.18756176 0.984726838257386
0 0

0101101
*
Ed
 1e-07 1 1 0
1  2 0 0 1.32588
3  3 4CN 1 0 0 1.32588
0

0101000
-285 0 +283 0 *
Ed
 1e-07 1 1 0
1  3 0 0 6.28318530717959
2  5 1 0 0 6.28318530717959
2  6 3 0 0 6.28318530717959
0

0101000
+283 0 -283 0 *
Wi

0101100
-284 0 +282 0 +281 0 -282 0 *
Fa
0  1e-07 1 0

0111000
+280 0 *
Wi

0101100
+284 0 *
Fa
0  1e-07 2 0

0111000
+278 0 *
Wi

0101100
-281 0 *
Fa
0  1e-07 3 0

0111000
-276 0 *
Sh

0101100
+279 0 +277 0 -275 0 *
Ve
1e-07
1e-05 0.000144287278311588 0
0 0

0101101
*
Ve
1e-07
0.00349863157894737 0.00241116902774519 0
0 0

0101101
*
Ed
 1e-07 1 1 0
1  4 0 0 0.00416044506748304
2  7 4 3 0 0.00416044506748304
4 C0 4 3 5 3
2  8 5 3 0 0.00416044506748304
0

0101000
+273 0 -272 0 *
Ve
1e-07
0.00349863157894737 0.00241116902774519 0
0 0

0101101
*
Ed
 1e-07 1 1 0
1  5 0 0 1
2  9 4 0 0 1
2  10 6 0 0 1
4 C0 4 0 6 0
0

0101000
+272 2 -270 4 *
Ve
1e-07
1e-05 0.000144287278311588 0
0 0

0101101
*
Ed
 1e-07 1 1 0
1  6 0 0 0.00416044506748304
2  11 4 5 0 0.00416044506748304
4 C0 4 5 7 5
2  12 7 5 0 0.00416044506748304
0

0101000
+268 0 -270 0 *
Ed
 1e-07 1 1 0
1  7 0 0 1
2  13 4 0 0 1
2  14 8 0 0 1
4 C0 4 0 8 0
0

0101000
+273 2 -268 4 *
Wi

0101000
+271 2 +269 0 -267 4 -266 0 *
Fa
0  1e-07 4 0

0111000
+265 0 *
Ve
1e-07
0.00698726315789474 0.00316313446901681 0
0 0

0101101
*
Ed
 1e-07 1 1 0
1  8 0 0 0.00356875360854397
2  15 6 3 0 0.00356875360854397
4 C0 6 3 5 3
2  16 5 3 0 0.00356875360854397
0

0101000
+272 0 -263 0 *
Ve
1e-07
0.0104758947368421 0.00359539964273118 0
0 0

0101101
*
Ed
 1e-07 1 1 0
1  9 0 0 0.00351530986885013
2  17 9 3 0 0.00351530986885013
4 C0 9 3 5 3
2  18 5 3 0 0.00351530986885013
0

0101000
+263 0 -261 0 *
Ve
1e-07
0.0139645263157895 0.00384146681859391 0
0 0

0101101
*
Ed
 1e-07 1 1 0
1  10 0 0 0.00349729886464767
2  19 10 3 0 0.00349729886464767
4 C0 10 3 5 3
2  20 5 3 0 0.00349729886464767
0

0101000
+261 0 -259 0 *
Ve
1e-07
0.0174531578947368 0.00395724152341054 0
0 0

0101101
*
Ed
 1e-07 1 1 0
1  11 0 0 0.00349055211619941
2  21 11 3 0 0.00349055211619941
4 C0 11 3 5 3
2  22 5 3 0 0.00349055211619941
0

0101000
+259 0 -257 0 *
Ve
1e-07
0.0209417894736842 0.00397417328010328 0
0 0

0101101
*
Ed
 1e-07 1 1 0
1  12 0 0 0.00348867266707748
2  23 12 3 0 0.00348867266707748
4 C0 12 3 5 3
2  24 5 3 0 0.00348867266707748
0

0101000
+257 0 -255 0 *
Ve
1e-07
0.0244304210526316 0.00391281849182378 0
0 0

0101101
*
Ed
 1e-07 1 1 0
1  13 0 0 0.00348917106254102
2  25 13 3 0 0.00348917106254102
4 C0 13 3 5 3
2  26 5 3 0 0.00348917106254102
0

0101000
+255 0 -253 0 *
Ve
1e-07
0.0279190526315789 0.00378780550901958 0
0 0

0101101
*
Ed
 1e-07 1 1 0
1  14 0 0 0.00349087074230749
2  27 14 3 0 0.00349087074230749
4 C0 14 3 5 3
2  28 5 3 0 0.00349087074230749
0

0101000
+253 0 -251 0 *
Ve
1e-07
0.0314076842105263 0.00361005128416762 0
0 0

0101101
*
Ed
 1e-07 1 1 0
1  15 0 0 0.00349315714763615
2  29 15 3 0 0.00349315714763615
4 C0 15 3 5 3
2  30 5 3 0 0.00349315714763615
0

0101000
+251 0 -249 0 *
Ve
1e-07
0.0348963157894737 0.00338788778115882 0
0 0

0101101
*
Ed
 1e-07 1 1 0
1  16 0 0 0.00349569834449398
2  31 16 3 0 0.00349569834449398
4 C0 16 3 5 3
2  32 5 3 0 0.00349569834449398
0

0101000
+249 0 -247 0 *
Ve
1e-07
0.0383849473684211 0.00312768965074376 0
0 0

0101101
*
Ed
 1e-07 1 1 0
1  17 0 0 0.00349832150619412
2  33 17 3 0 0.00349832150619412
4 C0 17 3 5 3
2  34 5 3 0 0.00349832150619412
0

0101000
+247 0 -245 0 *
Ve
1e-07
0.0418735789473684 0.00283424912946365 0
0 0

0101101
*
Ed
 1e-07 1 1 0
1  18 0 0 0.00350095096126152
2  35 18 3 0 0.00350095096126152
4 C0 18 3 5 3
2  36 5 3 0 0.00350095096126152
0

0101000
+245 0 -243 0 *
Ve
1e-07
0.0453622105263158 0.00251101245614139 0
0 0

0101101
*
Ed
 1e-07 1 1 0
1  19 0 0 0.00350357420937665
2  37 19 3 0 0.00350357420937665
4 C0 19 3 5 3
2  38 5 3 0 0.00350357420937665
0

0101000
+243 0 -241 0 *
Ve
1e-07
0.0488508421052632 0.00216023562506288 0
0 0

0101101
*
Ed
 1e-07 1 1 0
1  20 0 0 0.00350622228029689
2  39 20 3 0 0.00350622228029689
4 C0 20 3 5 3
2  40 5 3 0 0.00350622228029689
0

0101000
+241 0 -239 0 *
Ve
1e-07
0.0523394736842105 0.00178309076192869 0
0 0

0101101
*
Ed
 1e-07 1 1 0
1  21 0 0 0.00350895832711323
2  41 21 3 0 0.00350895832711323
4 C0 21 3 5 3
2  42 5 3 0 0.00350895832711323
0

0101000
+239 0 -237 0 *
Ve
1e-07
0.0558281052631579 0.00137974100528589 0
0 0

0101101
*
Ed
 1e-07 1 1 0
1  22 0 0 0.00351187148395448
2  43 22 3 0 0.00351187148395448
4 C0 22 3 5 3
2  44 5 3 0 0.00351187148395448
0

0101000
+237 0 -235 0 *
Ve
1e-07
0.0593167368421053 0.000949394591597646 0
0 0

0101101
*
Ed
 1e-07 1 1 0
1  23 0 0 0.00351507444151659
2  45 23 3 0 0.00351507444151659
4 C0 23 3 5 3
2  46 5 3 0 0.00351507444151659
0

0101000
+235 0 -233 0 *
Ve
1e-07
0.0628053684210526 0.00049034479552323 0
0 0

0101101
*
Ed
 1e-07 1 1 0
1  24 0 0 0.00351870388195778
2  47 24 3 0 0.00351870388195778
4 C0 24 3 5 3
2  48 5 3 0 0.00351870388195778
0

0101000
+233 0 -231 0 *
Ve
1e-07
0.066294 -1.1040168779175e-18 0
0 0

0101101
*
Ed
 1e-07 1 1 0
1  25 0 0 0.00352292326231008
2  49 25 3 0 0.00352292326231008
4 C0 25 3 5 3
2  50 5 3 0 0.00352292326231008
0

0101000
+231 0 -229 0 *
Ve
1e-07
0.0628053684210526 -0.00049034479552323 0
0 0

0101101
*
Ed
 1e-07 1 1 0
1  26 0 0 0.00352292326231008
2  51 26 3 0 0.00352292326231008
4 C0 26 3 5 3
2  52 5 3 0 0.00352292326231008
0

0101000
+229 0 -227 0 *
Ve
1e-07
0.0593167368421053 -0.000949394591597646 0
0 0

0101101
*
Ed
 1e-07 1 1 0
1  27 0 0 0.00351870388195778
2  53 27 3 0 0.00351870388195778
4 C0 27 3 5 3
2  54 5 3 0 0.00351870388195778
0

0101000
+227 0 -225 0 *
Ve
1e-07
0.0558281052631579 -0.00137974100528589 0
0 0

0101101
*
Ed
 1e-07 1 1 0
1  28 0 0 0.00351507444151659
2  55 28 3 0 0.00351507444151659
4 C0 28 3 5 3
2  56 5 3 0 0.00351507444151659
0

0101000
+225 0 -223 0 *
Ve
1e-07
0.0523394736842105 -0.00178309076192869 0
0 0

0101101
*
Ed
 1e-07 1 1 0
1  29 0 0 0.00351187148395448
2  57 29 3 0 0.00351187148395448
4 C0 29 3 5 3
2  58 5 3 0 0.00351187148395448
0

0101000
+223 0 -221 0 *
Ve
1e-07
0.0488508421052632 -0.00216023562506288 0
0 0

0101101
*
Ed
 1e-07 1 1 0
1  30 0 0 0.00350895832711323
2  59 30 3 0 0.00350895832711323
4 C0 30 3 5 3
2  60 5 3 0 0.00350895832711323
0

0101000
+221 0 -219 0 *
Ve
1e-07
0.0453622105263158 -0.00251101245614139 0
0 0

0101101
*
Ed
 1e-07 1 1 0
1  31 0 0 0.00350622228029689
2  61 31 3 0 0.00350622228029689
4 C0 31 3 5 3
2  62 5 3 0 0.00350622228029689
0

0101000
+219 0 -217 0 *
Ve
1e-07
0.0418735789473684 -0.00283424912946365 0
0 0

0101101
*
Ed
 1e-07 1 1 0
1  32 0 0 0.00350357420937665
2  63 32 3 0 0.00350357420937665
4 C0 32 3 5 3
2  64 5 3 0 0.00350357420937665
0

0101000
+217 0 -215 0 *
Ve
1e-07
0.0383849473684211 -0.00312768965074376 0
0 0

0101101
*
Ed
 1e-07 1 1 0
1  33 0 0 0.00350095096126152
2  65 33 3 0 0.00350095096126152
4 C0 33 3 5 3
2  66 5 3 0 0.00350095096126152
0

0101000
+215 0 -213 0 *
Ve
1e-07
0.0348963157894737 -0.00338788778115882 0
0 0

0101101
*
Ed
 1e-07 1 1 0
1  34 0 0 0.00349832150619412
2  67 34 3 0 0.00349832150619412
4 C0 34 3 5 3
2  68 5 3 0 0.00349832150619412
0

0101000
+213 0 -211 0 *
Ve
1e-07
0.0314076842105263 -0.00361005128416762 0
0 0

0101101
*
Ed
 1e-07 1 1 0
1  35 0 0 0.00349569834449398
2  69 35 3 0 0.00349569834449398
4 C0 35 3 5 3
2  70 5 3 0 0.00349569834449398
0

0101000
+211 0 -209 0 *
Ve
1e-07
0.0279190526315789 -0.00378780550901958 0
0 0

0101101
*
Ed
 1e-07 1 1 0
1  36 0 0 0.00349315714763615
2  71 36 3 0 0.00349315714763615
4 C0 36 3 5 3
2  72 5 3 0 0.00349315714763615
0

0101000
+209 0 -207 0 *
Ve
1e-07
0.0244304210526316 -0.00391281849182378 0
0 0

0101101
*
Ed
 1e-07 1 1 0
1  37 0 0 0.00349087074230749
2  73 37 3 0 0.00349087074230749
4 C0 37 3 5 3
2  74 5 3 0 0.00349087074230749
0

0101000
+207 0 -205 0 *
Ve
1e-07
0.0209417894736842 -0.00397417328010328 0
0 0

0101101
*
Ed
 1e-07 1 1 0
1  38 0 0 0.00348917106254102
2  75 38 3 0 0.00348917106254102
4 C0 38 3 5 3
2  76 5 3 0 0.00348917106254102
0

0101000
+205 0 -203 0 *
Ve
1e-07
0.0174531578947368 -0.00395724152341054 0
0 0

0101101
*
Ed
 1e-07 1 1 0
1  39 0 0 0.00348867266707748
2  77 39 3 0 0.00348867266707748
4 C0 39 3 5 3
2  78 5 3 0 0.00348867266707748
0

0101000
+203 0 -201 0 *
Ve
1e-07
0.0139645263157895 -0.00384146681859391 0
0 0

0101101
*
Ed
 1e-07 1 1 0
1  40 0 0 0.00349055211619941
2  79 40 3 0 0.00349055211619941
4 C0 40 3 5 3
2  80 5 3 0 0.00349055211619941
0

0101000
+201 0 -199 0 *
Ve
1e-07
0.0104758947368421 -0.00359539964273118 0
0 0

0101101
*
Ed
 1e-07 1 1 0
1  41 0 0 0.00349729886464767
2  81 41 3 0 0.00349729886464767
4 C0 41 3 5 3
2  82 5 3 0 0.00349729886464767
0

0101000
+199 0 -197 0 *
Ve
1e-07
0.00698726315789474 -0.00316313446901681 0
0 0

0101101
*
Ed
 1e-07 1 1 0
1  42 0 0 0.00351530986885013
2  83 42 3 0 0.00351530986885013
4 C0 42 3 5 3
2  84 5 3 0 0.00351530986885013
0

0101000
+197 0 -195 0 *
Ve
1e-07
0.00349863157894737 -0.00241116902774519 0
0 0

0101101
*
Ed
 1e-07 1 1 0
1  43 0 0 0.00356875360854397
2  85 43 3 0 0.00356875360854397
4 C0 43 3 5 3
2  86 5 3 0 0.00356875360854397
0

0101000
+195 0 -193 0 *
Ed
 1e-07 1 1 0
1  44 0 0 0.00432445455818351
2  87 8 3 0 0.00432445455818351
4 C0 8 3 5 3
2  88 5 3 0 0.00432445455818351
0

0101000
+193 0 -273 0 *
Wi

0101100
+271 0 +262 0 +260 0 +258 0 +256 0 +254 0 +252 0 +250 0 +248 0 +246 0 
+244 0 +242 0 +240 0 +238 0 +236 0 +234 0 +232 0 +230 0 +228 0 +226 0 
+224 0 +222 0 +220 0 +218 0 +216 0 +214 0 +212 0 +210 0 +208 0 +206 0 
+204 0 +202 0 +200 0 +198 0 +196 0 +194 0 +192 0 +191 0 *
Fa
0  1e-07 5 0

0101000
+190 2 *
Ve
1e-07
0.00698726315789474 0.00316313446901681 0
0 0

0101101
*
Ed
 1e-07 1 1 0
1  45 0 0 1
2  89 6 0 0 1
2  90 9 0 0 1
4 C0 6 0 9 0
0

0101000
+263 2 -188 4 *
Ed
 1e-07 1 1 0
1  46 0 0 0.00356875360854397
2  91 6 5 0 0.00356875360854397
4 C0 6 5 7 5
2  92 7 5 0 0.00356875360854397
0

0101000
+270 0 -188 0 *
Wi

0101000
+262 2 +187 0 -186 4 -269 0 *
Fa
0  1e-07 6 0

0101000
+185 0 *
Ve
1e-07
0.0104758947368421 0.00359539964273118 0
0 0

0101101
*
Ed
 1e-07 1 1 0
1  47 0 0 0.00351530986885013
2  93 9 5 0 0.00351530986885013
4 C0 9 5 7 5
2  94 7 5 0 0.00351530986885013
0

0101000
+188 0 -183 0 *
Ve
1e-07
0.0139645263157895 0.00384146681859391 0
0 0

0101101
*
Ed
 1e-07 1 1 0
1  48 0 0 0.00349729886464767
2  95 10 5 0 0.00349729886464767
4 C0 10 5 7 5
2  96 7 5 0 0.00349729886464767
0

0101000
+183 0 -181 0 *
Ve
1e-07
0.0174531578947368 0.00395724152341054 0
0 0

0101101
*
Ed
 1e-07 1 1 0
1  49 0 0 0.00349055211619941
2  97 11 5 0 0.00349055211619941
4 C0 11 5 7 5
2  98 7 5 0 0.00349055211619941
0

0101000
+181 0 -179 0 *
Ve
1e-07
0.0209417894736842 0.00397417328010328 0
0 0

0101101
*
Ed
 1e-07 1 1 0
1  50 0 0 0.00348867266707748
2  99 12 5 0 0.00348867266707748
4 C0 12 5 7 5
2  100 7 5 0 0.00348867266707748
0

0101000
+179 0 -177 0 *
Ve
1e-07
0.0244304210526316 0.00391281849182378 0
0 0

0101101
*
Ed
 1e-07 1 1 0
1  51 0 0 0.00348917106254102
2  101 13 5 0 0.00348917106254102
4 C0 13 5 7 5
2  102 7 5 0 0.00348917106254102
0

0101000
+177 0 -175 0 *
Ve
1e-07
0.0279190526315789 0.00378780550901958 0
0 0

0101101
*
Ed
 1e-07 1 1 0
1  52 0 0 0.00349087074230749
2  103 14 5 0 0.00349087074230749
4 C0 14 5 7 5
2  104 7 5 0 0.00349087074230749
0

0101000
+175 0 -173 0 *
Ve
1e-07
0.0314076842105263 0.00361005128416762 0
0 0

0101101
*
Ed
 1e-07 1 1 0
1  53 0 0 0.00349315714763615
2  105 15 5 0 0.00349315714763615
4 C0 15 5 7 5
2  106 7 5 0 0.00349315714763615
0

0101000
+173 0 -171 0 *
Ve
1e-07
0.0348963157894737 0.00338788778115882 0
0 0

0101101
*
Ed
 1e-07 1 1 0
1  54 0 0 0.00349569834449398
2  107 16 5 0 0.00349569834449398
4 C0 16 5 7 5
2  108 7 5 0 0.00349569834449398
0

0101000
+171 0 -169 0 *
Ve
1e-07
0.0383849473684211 0.00312768965074376 0
0 0

0101101
*
Ed
 1e-07 1 1 0
1  55 0 0 0.00349832150619412
2  109 17 5 0 0.00349832150619412
4 C0 17 5 7 5
2  110 7 5 0 0.00349832150619412
0

0101000
+169 0 -167 0 *
Ve
1e-07
0.0418735789473684 0.00283424912946365 0
0 0

0101101
*
Ed
 1e-07 1 1 0
1  56 0 0 0.00350095096126152
2  111 18 5 0 0.00350095096126152
4 C0 18 5 7 5
2  112 7 5 0 0.00350095096126152
0

0101000
+167 0 -165 0 *
Ve
1e-07
0.0453622105263158 0.00251101245614139 0
0 0

0101101
*
Ed
 1e-07 1 1 0
1  57 0 0 0.00350357420937665
2  113 19 5 0 0.00350357420937665
4 C0 19 5 7 5
2  114 7 5 0 0.00350357420937665
0

0101000
+165 0 -163 0 *
Ve
1e-07
0.0488508421052632 0.00216023562506288 0
0 0

0101101
*
Ed
 1e-07 1 1 0
1  58 0 0 0.00350622228029689
2  115 20 5 0 0.00350622228029689
4 C0 20 5 7 5
2  116 7 5 0 0.00350622228029689
0

0101000
+163 0 -161 0 *
Ve
1e-07
0.0523394736842105 0.00178309076192869 0
0 0

0101101
*
Ed
 1e-07 1 1 0
1  59 0 0 0.00350895832711323
2  117 21 5 0 0.00350895832711323
4 C0 21 5 7 5
2  118 7 5 0 0.00350895832711323
0

0101000
+161 0 -159 0 *
Ve
1e-07
0.0558281052631579 0.00137974100528589 0
0 0

0101101
*
Ed
 1e-07 1 1 0
1  60 0 0 0.00351187148395448
2  119 22 5 0 0.00351187148395448
4 C0 22 5 7 5
2  120 7 5 0 0.00351187148395448
0

0101000
+159 0 -157 0 *
Ve
1e-07
0.0593167368421053 0.000949394591597646 0
0 0

0101101
*
Ed
 1e-07 1 1 0
1  61 0 0 0.00351507444151659
2  121 23 5 0 0.00351507444151659
4 C0 23 5 7 5
2  122 7 5 0 0.00351507444151659
0

0101000
+157 0 -155 0 *
Ve
1e-07
0.0628053684210526 0.00049034479552323 0
0 0

0101101
*
Ed
 1e-07 1 1 0
1  62 0 0 0.00351870388195778
2  123 24 5 0 0.00351870388195778
4 C0 24 5 7 5
2  124 7 5 0 0.00351870388195778
0

0101000
+155 0 -153 0 *
Ve
1e-07
0.066294 -1.1040168779175e-18 0
0 0

0101101
*
Ed
 1e-07 1 1 0
1  63 0 0 0.00352292326231008
2  125 25 5 0 0.00352292326231008
4 C0 25 5 7 5
2  126 7 5 0 0.00352292326231008
0

0101000
+153 0 -151 0 *
Ve
1e-07
0.0628053684210526 -0.00049034479552323 0
0 0

0101101
*
Ed
 1e-07 1 1 0
1  64 0 0 0.00352292326231008
2  127 26 5 0 0.00352292326231008
4 C0 26 5 7 5
2  128 7 5 0 0.00352292326231008
0

0101000
+151 0 -149 0 *
Ve
1e-07
0.0593167368421053 -0.000949394591597646 0
0 0

0101101
*
Ed
 1e-07 1 1 0
1  65 0 0 0.00351870388195778
2  129 27 5 0 0.00351870388195778
4 C0 27 5 7 5
2  130 7 5 0 0.00351870388195778
0

0101000
+149 0 -147 0 *
Ve
1e-07
0.0558281052631579 -0.00137974100528589 0
0 0

0101101
*
Ed
 1e-07 1 1 0
1  66 0 0 0.00351507444151659
2  131 28 5 0 0.00351507444151659
4 C0 28 5 7 5
2  132 7 5 0 0.00351507444151659
0

0101000
+147 0 -145 0 *
Ve
1e-07
0.0523394736842105 -0.00178309076192869 0
0 0

0101101
*
Ed
 1e-07 1 1 0
1  67 0 0 0.00351187148395448
2  133 29 5 0 0.00351187148395448
4 C0 29 5 7 5
2  134 7 5 0 0.00351187148395448
0

0101000
+145 0 -143 0 *
Ve
1e-07
0.0488508421052632 -0.00216023562506288 0
0 0

0101101
*
Ed
 1e-07 1 1 0
1  68 0 0 0.00350895832711323
2  135 30 5 0 0.00350895832711323
4 C0 30 5 7 5
2  136 7 5 0 0.00350895832711323
0

0101000
+143 0 -141 0 *
Ve
1e-07
0.0453622105263158 -0.00251101245614139 0
0 0

0101101
*
Ed
 1e-07 1 1 0
1  69 0 0 0.00350622228029689
2  137 31 5 0 0.00350622228029689
4 C0 31 5 7 5
2  138 7 5 0 0.00350622228029689
0

0101000
+141 0 -139 0 *
Ve
1e-07
0.0418735789473684 -0.00283424912946365 0
0 0

0101101
*
Ed
 1e-07 1 1 0
1  70 0 0 0.00350357420937665
2  139 32 5 0 0.00350357420937665
4 C0 32 5 7 5
2  140 7 5 0 0.00350357420937665
0

0101000
+139 0 -137 0 *
Ve
1e-07
0.0383849473684211 -0.00312768965074376 0
0 0

0101101
*
Ed
 1e-07 1 1 0
1  71 0 0 0.00350095096126152
2  141 33 5 0 0.00350095096126152
4 C0 33 5 7 5
2  142 7 5 0 0.00350095096126152
0

0101000
+137 0 -135 0 *
Ve
1e-07
0.0348963157894737 -0.00338788778115882 0
0 0

0101101
*
Ed
 1e-07 1 1 0
1  72 0 0 0.00349832150619412
2  143 34 5 0 0.00349832150619412
4 C0 34 5 7 5
2  144 7 5 0 0.00349832150619412
0

0101000
+135 0 -133 0 *
Ve
1e-07
0.0314076842105263 -0.00361005128416762 0
0 0

0101101
*
Ed
 1e-07 1 1 0
1  73 0 0 0.00349569834449398
2  145 35 5 0 0.00349569834449398
4 C0 35 5 7 5
2  146 7 5 0 0.00349569834449398
0

0101000
+133 0 -131 0 *
Ve
1e-07
0.0279190526315789 -0.00378780550901958 0
0 0

0101101
*
Ed
 1e-07 1 1 0
1  74 0 0 0.00349315714763615
2  147 36 5 0 0.00349315714763615
4 C0 36 5 7 5
2  148 7 5 0 0.00349315714763615
0

0101000
+131 0 -129 0 *
Ve
1e-07
0.0244304210526316 -0.00391281849182378 0
0 0

0101101
*
Ed
 1e-07 1 1 0
1  75 0 0 0.00349087074230749
2  149 37 5 0 0.00349087074230749
4 C0 37 5 7 5
2  150 7 5 0 0.00349087074230749
0

0101000
+129 0 -127 0 *
Ve
1e-07
0.0209417894736842 -0.00397417328010328 0
0 0

0101101
*
Ed
 1e-07 1 1 0
1  76 0 0 0.00348917106254102
2  151 38 5 0 0.00348917106254102
4 C0 38 5 7 5
2  152 7 5 0 0.00348917106254102
0

0101000
+127 0 -125 0 *
Ve
1e-07
0.0174531578947368 -0.00395724152341054 0
0 0

0101101
*
Ed
 1e-07 1 1 0
1  77 0 0 0.00348867266707748
2  153 39 5 0 0.00348867266707748
4 C0 39 5 7 5
2  154 7 5 0 0.00348867266707748
0

0101000
+125 0 -123 0 *
Ve
1e-07
0.0139645263157895 -0.00384146681859391 0
0 0

0101101
*
Ed
 1e-07 1 1 0
1  78 0 0 0.00349055211619941
2  155 40 5 0 0.00349055211619941
4 C0 40 5 7 5
2  156 7 5 0 0.00349055211619941
0

0101000
+123 0 -121 0 *
Ve
1e-07
0.0104758947368421 -0.00359539964273118 0
0 0

0101101
*
Ed
 1e-07 1 1 0
1  79 0 0 0.00349729886464767
2  157 41 5 0 0.00349729886464767
4 C0 41 5 7 5
2  158 7 5 0 0.00349729886464767
0

0101000
+121 0 -119 0 *
Ve
1e-07
0.00698726315789474 -0.00316313446901681 0
0 0

0101101
*
Ed
 1e-07 1 1 0
1  80 0 0 0.00351530986885013
2  159 42 5 0 0.00351530986885013
4 C0 42 5 7 5
2  160 7 5 0 0.00351530986885013
0

0101000
+119 0 -117 0 *
Ve
1e-07
0.00349863157894737 -0.00241116902774519 0
0 0

0101101
*
Ed
 1e-07 1 1 0
1  81 0 0 0.00356875360854397
2  161 43 5 0 0.00356875360854397
4 C0 43 5 7 5
2  162 7 5 0 0.00356875360854397
0

0101000
+117 0 -115 0 *
Ed
 1e-07 1 1 0
1  82 0 0 0.00432445455818351
2  163 8 5 0 0.00432445455818351
4 C0 8 5 7 5
2  164 7 5 0 0.00432445455818351
0

0101000
+115 0 -268 0 *
Wi

0101100
+267 4 +186 4 +182 4 +180 4 +178 4 +176 4 +174 4 +172 4 +170 4 +168 4 
+166 4 +164 4 +162 4 +160 4 +158 4 +156 4 +154 4 +152 4 +150 4 +148 4 
+146 4 +144 4 +142 4 +140 4 +138 4 +136 4 +134 4 +132 4 +130 4 +128 4 
+126 4 +124 4 +122 4 +120 4 +118 4 +116 4 +114 4 +113 4 *
Fa
0  1e-07 7 0

0101000
+112 0 *
Ed
 1e-07 1 1 0
1  83 0 0 1
2  165 43 0 0 1
2  166 8 0 0 1
4 C0 43 0 8 0
0

0101000
+193 2 -115 4 *
Wi

0101000
+191 2 +266 0 -113 4 -110 0 *
Fa
0  1e-07 8 0

0111000
+109 0 *
Ed
 1e-07 1 1 0
1  84 0 0 1
2  167 9 0 0 1
2  168 10 0 0 1
4 C0 9 0 10 0
0

0101000
+261 2 -183 4 *
Wi

0101000
+260 2 +107 0 -182 4 -187 0 *
Fa
0  1e-07 9 0

0101000
+106 0 *
Ed
 1e-07 1 1 0
1  85 0 0 1
2  169 10 0 0 1
2  170 11 0 0 1
4 C0 10 0 11 0
0

0101000
+259 2 -181 4 *
Wi

0101000
+258 2 +104 0 -180 4 -107 0 *
Fa
0  1e-07 10 0

0101000
+103 0 *
Ed
 1e-07 1 1 0
1  86 0 0 1
2  171 11 0 0 1
2  172 12 0 0 1
4 C0 11 0 12 0
0

0101000
+257 2 -179 4 *
Wi

0101000
+256 2 +101 0 -178 4 -104 0 *
Fa
0  1e-07 11 0

0101000
+100 0 *
Ed
 1e-07 1 1 0
1  87 0 0 1
2  173 12 0 0 1
2  174 13 0 0 1
4 C0 12 0 13 0
0

0101000
+255 2 -177 4 *
Wi

0101000
+254 2 +98 0 -176 4 -101 0 *
Fa
0  1e-07 12 0

0101000
+97 0 *
Ed
 1e-07 1 1 0
1  88 0 0 1
2  175 13 0 0 1
2  176 14 0 0 1
4 C0 13 0 14 0
0

0101000
+253 2 -175 4 *
Wi

0101000
+252 2 +95 0 -174 4 -98 0 *
Fa
0  1e-07 13 0

0101000
+94 0 *
Ed
 1e-07 1 1 0
1  89 0 0 1
2  177 14 0 0 1
2  178 15 0 0 1
4 C0 14 0 15 0
0

0101000
+251 2 -173 4 *
Wi

0101000
+250 2 +92 0 -172 4 -95 0 *
Fa
0  1e-07 14 0

0101000
+91 0 *
Ed
 1e-07 1 1 0
1  90 0 0 1
2  179 15 0 0 1
2  180 16 0 0 1
4 C0 15 0 16 0
0

0101000
+249 2 -171 4 *
Wi

0101000
+248 2 +89 0 -170 4 -92 0 *
Fa
0  1e-07 15 0

0101000
+88 0 *
Ed
 1e-07 1 1 0
1  91 0 0 1
2  181 16 0 0 1
2  182 17 0 0 1
4 C0 16 0 17 0
0

0101000
+247 2 -169 4 *
Wi

0101000
+246 2 +86 0 -168 4 -89 0 *
Fa
0  1e-07 16 0

0101000
+85 0 *
Ed
 1e-07 1 1 0
1  92 0 0 1
2  183 17 0 0 1
2  184 18 0 0 1
4 C0 17 0 18 0
0

0101000
+245 2 -167 4 *
Wi

0101000
+244 2 +83 0 -166 4 -86 0 *
Fa
0  1e-07 17 0

0101000
+82 0 *
Ed
 1e-07 1 1 0
1  93 0 0 1
2  185 18 0 0 1
2  186 19 0 0 1
4 C0 18 0 19 0
0

0101000
+243 2 -165 4 *
Wi

0101000
+242 2 +80 0 -164 4 -83 0 *
Fa
0  1e-07 18 0

0101000
+79 0 *
Ed
 1e-07 1 1 0
1  94 0 0 1
2  187 19 0 0 1
2  188 20 0 0 1
4 C0 19 0 20 0
0

0101000
+241 2 -163 4 *
Wi

0101000
+240 2 +77 0 -162 4 -80 0 *
Fa
0  1e-07 19 0

0101000
+76 0 *
Ed
 1e-07 1 1 0
1  95 0 0 1
2  189 20 0 0 1
2  190 21 0 0 1
4 C0 20 0 21 0
0

0101000
+239 2 -161 4 *
Wi

0101000
+238 2 +74 0 -160 4 -77 0 *
Fa
0  1e-07 20 0

0101000
+73 0 *
Ed
 1e-07 1 1 0
1  96 0 0 1
2  191 21 0 0 1
2  192 22 0 0 1
4 C0 21 0 22 0
0

0101000
+237 2 -159 4 *
Wi

0101000
+236 2 +71 0 -158 4 -74 0 *
Fa
0  1e-07 21 0

0101000
+70 0 *
Ed
 1e-07 1 1 0
1  97 0 0 1
2  193 22 0 0 1
2  194 23 0 0 1
4 C0 22 0 23 0
0

0101000
+235 2 -157 4 *
Wi

0101000
+234 2 +68 0 -156 4 -71 0 *
Fa
0  1e-07 22 0

0101000
+67 0 *
Ed
 1e-07 1 1 0
1  98 0 0 1
2  195 23 0 0 1
2  196 24 0 0 1
4 C0 23 0 24 0
0

0101000
+233 2 -155 4 *
Wi

0101000
+232 2 +65 0 -154 4 -68 0 *
Fa
0  1e-07 23 0

0101000
+64 0 *
Ed
 1e-07 1 1 0
1  99 0 0 1
2  197 24 0 0 1
2  198 25 0 0 1
4 C0 24 0 25 0
0

0101000
+231 2 -153 4 *
Wi

0101000
+230 2 +62 0 -152 4 -65 0 *
Fa
0  1e-07 24 0

0101000
+61 0 *
Ed
 1e-07 1 1 0
1  100 0 0 1
2  199 25 0 0 1
2  200 26 0 0 1
4 C0 25 0 26 0
0

0101000
+229 2 -151 4 *
Wi

0101000
+228 2 +59 0 -150 4 -62 0 *
Fa
0  1e-07 25 0

0101000
+58 0 *
Ed
 1e-07 1 1 0
1  101 0 0 1
2  201 26 0 0 1
2  202 27 0 0 1
4 C0 26 0 27 0
0

0101000
+227 2 -149 4 *
Wi

0101000
+226 2 +56 0 -148 4 -59 0 *
Fa
0  1e-07 26 0

0101000
+55 0 *
Ed
 1e-07 1 1 0
1  102 0 0 1
2  203 27 0 0 1
2  204 28 0 0 1
4 C0 27 0 28 0
0

0101000
+225 2 -147 4 *
Wi

0101000
+224 2 +53 0 -146 4 -56 0 *
Fa
0  1e-07 27 0

0101000
+52 0 *
Ed
 1e-07 1 1 0
1  103 0 0 1
2  205 28 0 0 1
2  206 29 0 0 1
4 C0 28 0 29 0
0

0101000
+223 2 -145 4 *
Wi

0101000
+222 2 +50 0 -144 4 -53 0 *
Fa
0  1e-07 28 0

0101000
+49 0 *
Ed
 1e-07 1 1 0
1  104 0 0 1
2  207 29 0 0 1
2  208 30 0 0 1
4 C0 29 0 30 0
0

0101000
+221 2 -143 4 *
Wi

0101000
+220 2 +47 0 -142 4 -50 0 *
Fa
0  1e-07 29 0

0101000
+46 0 *
Ed
 1e-07 1 1 0
1  105 0 0 1
2  209 30 0 0 1
2  210 31 0 0 1
4 C0 30 0 31 0
0

0101000
+219 2 -141 4 *
Wi

0101000
+218 2 +44 0 -140 4 -47 0 *
Fa
0  1e-07 30 0

0101000
+43 0 *
Ed
 1e-07 1 1 0
1  106 0 0 1
2  211 31 0 0 1
2  212 32 0 0 1
4 C0 31 0 32 0
0

0101000
+217 2 -139 4 *
Wi

0101000
+216 2 +41 0 -138 4 -44 0 *
Fa
0  1e-07 31 0

0101000
+40 0 *
Ed
 1e-07 1 1 0
1  107 0 0 1
2  213 32 0 0 1
2  214 33 0 0 1
4 C0 32 0 33 0
0

0101000
+215 2 -137 4 *
Wi

0101000
+214 2 +38 0 -136 4 -41 0 *
Fa
0  1e-07 32 0

0101000
+37 0 *
Ed
 1e-07 1 1 0
1  108 0 0 1
2  215 33 0 0 1
2  216 34 0 0 1
4 C0 33 0 34 0
0

0101000
+213 2 -135 4 *
Wi

0101000
+212 2 +35 0 -134 4 -38 0 *
Fa
0  1e-07 33 0

0101000
+34 0 *
Ed
 1e-07 1 1 0
1  109 0 0 1
2  217 34 0 0 1
2  218 35 0 0 1
4 C0 34 0 35 0
0

0101000
+211 2 -133 4 *
Wi

0101000
+210 2 +32 0 -132 4 -35 0 *
Fa
0  1e-07 34 0

0101000
+31 0 *
Ed
 1e-07 1 1 0
1  110 0 0 1
2  219 35 0 0 1
2  220 36 0 0 1
4 C0 35 0 36 0
0

0101000
+209 2 -131 4 *
Wi

0101000
+208 2 +29 0 -130 4 -32 0 *
Fa
0  1e-07 35 0

0101000
+28 0 *
Ed
 1e-07 1 1 0
1  111 0 0 1
2  221 36 0 0 1
2  222 37 0 0 1
4 C0 36 0 37 0
0

0101000
+207 2 -129 4 *
Wi

0101000
+206 2 +26 0 -128 4 -29 0 *
Fa
0  1e-07 36 0

0101000
+25 0 *
Ed
 1e-07 1 1 0
1  112 0 0 1
2  223 37 0 0 1
2  224 38 0 0 1
4 C0 37 0 38 0
0

0101000
+205 2 -127 4 *
Wi

0101000
+204 2 +23 0 -126 4 -26 0 *
Fa
0  1e-07 37 0

0101000
+22 0 *
Ed
 1e-07 1 1 0
1  113 0 0 1
2  225 38 0 0 1
2  226 39 0 0 1
4 C0 38 0 39 0
0

0101000
+203 2 -125 4 *
Wi

0101000
+202 2 +20 0 -124 4 -23 0 *
Fa
0  1e-07 38 0

0101000
+19 0 *
Ed
 1e-07 1 1 0
1  114 0 0 1
2  227 39 0 0 1
2  228 40 0 0 1
4 C0 39 0 40 0
0

0101000
+201 2 -123 4 *
Wi

0101000
+200 2 +17 0 -122 4 -20 0 *
Fa
0  1e-07 39 0

0101000
+16 0 *
Ed
 1e-07 1 1 0
1  115 0 0 1
2  229 40 0 0 1
2  230 41 0 0 1
4 C0 40 0 41 0
0

0101000
+199 2 -121 4 *
Wi

0101000
+198 2 +14 0 -120 4 -17 0 *
Fa
0  1e-07 40 0

0101000
+13 0 *
Ed
 1e-07 1 1 0
1  116 0 0 1
2  231 41 0 0 1
2  232 42 0 0 1
4 C0 41 0 42 0
0

0101000
+197 2 -119 4 *
Wi

0101000
+196 2 +11 0 -118 4 -14 0 *
Fa
0  1e-07 41 0

0101000
+10 0 *
Ed
 1e-07 1 1 0
1  117 0 0 1
2  233 42 0 0 1
2  234 43 0 0 1
4 C0 42 0 43 0
0

0101000
+195 2 -117 4 *
Wi

0101000
+194 2 +8 0 -116 4 -11 0 *
Fa
0  1e-07 42 0

0101000
+7 0 *
Wi

0101000
+192 2 +110 0 -114 4 -8 0 *
Fa
0  1e-07 43 0

0101000
+5 0 *
Sh

0101100
+264 1 -189 1 +184 1 +111 1 +108 1 +105 1 +102 1 +99 1 +96 1 +93 1 
+90 1 +87 1 +84 1 +81 1 +78 1 +75 1 +72 1 +69 1 +66 1 +63 1 
+60 1 +57 1 +54 1 +51 1 +48 1 +45 1 +42 1 +39 1 +36 1 +33 1 
+30 1 +27 1 +24 1 +21 1 +18 1 +15 1 +12 1 +9 1 +6 1 +4 1 
*
So

0100000
+274 0 +3 0 *
Co

1100000
+2 0 *

+1 0 