DBRep_DrawableShape

CASCADE Topology V1, (c) Matra-Datavision
Locations 6
1
-2.22044604925031e-16 -1.11022302462516e-16              -1      1.69412666 
             -1 1.11022302462516e-16 2.22044604925031e-16        0.033147 
1.11022302462516e-16               1 -1.11022302462516e-16       0.2598674 
1
              0               0              -1      0.58370216 
              1               0               0       -0.033147 
              0              -1               0       0.2598674 
2  2 -1 0
1
0.99026806874157 0.139173100960065               0               0 
-0.139173100960065 0.99026806874157              -0               0 
             -0               0               1        0.860552 
2  4 -1 0
2  2 -1 4 -1 0
Curve2ds 114
1 0 13.258800000000001 1 0 
2 0 0 1 0 -0 1 6.6294000000000004
1 6.2831853071795862 -0 0 1 
1 0 -0 0 1 
1 0 0 1 0 
2 0 0 1 0 -0 1 6.6294000000000004
1 0 0 1 0 
1 0 0 0.91619075392072546 0.40074243901809659 
1 0.008039810452657498 0 0 1 
1 0 0 0 1 
1 0 1 1 0 
1 0 0 0.91619075392072546 0.4007424390180967 
1 0 0 0 1 
1 0.008039810452657498 0 0 1 
1 0 0 1 0 
1 0.007366000000000001 0.0032218932500411523 0.99607109513979619 0.088557176033380328 
1 0 0 1 0 
1 0.014732000000000002 0.0038767783901127346 0.99993355016673402 0.011528020252916904 
1 0 0 1 0 
1 0.022098000000000003 0.0039616994302846802 0.99943984357953264 -0.033466387102874723 
1 0 0 1 0 
1 0.029464000000000004 0.0037150478594238693 0.99799608379920524 -0.063275719841418568 
1 0 0 1 0 
1 0.036830000000000002 0.0032480230284470122 0.99641045811230167 -0.084653404919313266 
1 0 0 1 0 
1 0.044196000000000006 0.0026222197005524119 0.99481794885789765 -0.10167226086876122 
1 0 0 1 0 
1 0.051562000000000011 0.0018694006803295742 0.99308658529130733 -0.11738413059034473 
1 0 0 1 0 
1 0.058928000000000008 0.0009987298659867882 0.99093298007507069 -0.13435709508447793 
1 0 0 1 0 
1 0.066294000000000006 -1.9814705431997384e-20 -0.9909329800750708 -0.13435709508447771 
1 0 0 1 0 
1 0.058928000000000008 -0.00099872986598678647 -0.99308658529130733 -0.11738413059034476 
1 0 0 1 0 
1 0.051562000000000011 -0.0018694006803295724 -0.99481794885789765 -0.10167226086876124 
1 0 0 1 0 
1 0.044196000000000006 -0.0026222197005524102 -0.99641045811230167 -0.084653404919313294 
1 0 0 1 0 
1 0.036830000000000002 -0.0032480230284470113 -0.99799608379920524 -0.063275719841418596 
1 0 0 1 0 
1 0.029464000000000004 -0.0037150478594238684 -0.99943984357953264 -0.033466387102874751 
1 0 0 1 0 
1 0.022098000000000003 -0.0039616994302846802 -0.99993355016673402 0.011528020252916873 
1 0 0 1 0 
1 0.014732000000000002 -0.0038767783901127338 -0.99607109513979619 0.0885571760333803 
1 0 0 1 0 
1 0.007366000000000001 -0.0032218932500411523 -0.91619075392072546 0.40074243901809659 
1 0.0073950544654307034 0 0 1 
1 0 0 0 1 
1 0 1 1 0 
1 0.007366000000000001 0.0032218932500411531 0.99607109513979619 0.088557176033380369 
1 0 1 1 0 
1 0.014732000000000002 0.0038767783901127351 0.99993355016673413 0.01152802025291691 
1 0 1 1 0 
1 0.022098000000000007 0.0039616994302846811 0.99943984357953275 -0.033466387102874723 
1 0 1 1 0 
1 0.029464000000000008 0.0037150478594238706 0.99799608379920535 -0.063275719841418554 
1 0 1 1 0 
1 0.036830000000000016 0.0032480230284470139 0.99641045811230167 -0.084653404919313224 
1 0 1 1 0 
1 0.044196000000000013 0.0026222197005524128 0.99481794885789765 -0.10167226086876122 
1 0 1 1 0 
1 0.051562000000000011 0.0018694006803295742 0.99308658529130722 -0.11738413059034472 
1 0 1 1 0 
1 0.058928000000000008 0.00099872986598678864 0.99093298007507069 -0.13435709508447793 
1 0 1 1 0 
1 0.066294000000000006 0 -0.9909329800750708 -0.13435709508447771 
1 0 1 1 0 
1 0.058928000000000015 -0.0009987298659867843 -0.99308658529130722 -0.11738413059034476 
1 0 1 1 0 
1 0.051562000000000011 -0.0018694006803295707 -0.99481794885789776 -0.10167226086876127 
1 0 1 1 0 
1 0.044196000000000013 -0.0026222197005524098 -0.99641045811230178 -0.084653404919313308 
1 0 1 1 0 
1 0.036830000000000002 -0.003248023028447013 -0.99799608379920535 -0.063275719841418623 
1 0 1 1 0 
1 0.029464000000000004 -0.003715047859423868 -0.99943984357953275 -0.033466387102874764 
1 0 1 1 0 
1 0.02209800000000001 -0.0039616994302846802 -0.99993355016673413 0.011528020252916882 
1 0 1 1 0 
1 0.014732000000000004 -0.0038767783901127342 -0.99607109513979619 0.088557176033380244 
1 0 1 1 0 
1 0.0073660000000000019 -0.0032218932500411518 -0.91619075392072535 0.40074243901809659 
1 0.0073950544654307034 0 0 1 
1 0 0 0 1 
1 0.0073664895019991648 0 0 1 
1 0 0 0 1 
1 0.0073701284247567975 0 0 1 
1 0 0 0 1 
1 0.0073807904856288209 0 0 1 
1 0 0 0 1 
1 0.0073925358169713339 0 0 1 
1 0 0 0 1 
1 0.0074043698230983404 0 0 1 
1 0 0 0 1 
1 0.0074172787238277818 0 0 1 
1 0 0 0 1 
1 0.0074333987748010635 0 0 1 
1 0 0 0 1 
1 0.0074333987748010635 0 0 1 
1 0 0 0 1 
1 0.0074172787238277818 0 0 1 
1 0 0 0 1 
1 0.0074043698230983404 0 0 1 
1 0 0 0 1 
1 0.0073925358169713339 0 0 1 
1 0 0 0 1 
1 0.0073807904856288209 0 0 1 
1 0 0 0 1 
1 0.0073701284247567975 0 0 1 
1 0 0 0 1 
1 0.0073664895019991648 0 0 1 
1 0 0 0 1 
Curves 57
2 7.8932506600000005 0 0.25986740000000003 1 0 0 -0 0 1 0 -1 0 6.6294000000000004
1 -5.3655493400000003 1.6237346980534926e-15 6.8892674000000005 1 0 0 
2 -5.3655493400000003 0 0.25986740000000003 1 0 0 -0 0 1 0 -1 0 6.6294000000000004
1 0 0 0 0.91619075392072535 0.40074243901809653 0 
7 0 0  1 2 2  0.007366000000000001 0.0032218932500411523 0  0.0077427154689209392 0.0021653889447379119 0.86055199999999998 
 0 2 1 2
1 0 0 0 0.91619075392072535 0.40074243901809653 0 
7 0 0  1 2 2  0 0 0  0 0 0.86055199999999998 
 0 2 1 2
1 0.007366000000000001 0.0032218932500411523 0 0.99607109513979619 0.088557176033380314 0 
1 0.014732000000000002 0.0038767783901127342 0 0.99993355016673402 0.011528020252916889 0 
1 0.022098000000000003 0.0039616994302846802 0 0.99943984357953264 -0.033466387102874737 0 
1 0.029464000000000004 0.0037150478594238688 0 0.99799608379920524 -0.063275719841418582 0 
1 0.036830000000000002 0.0032480230284470117 0 0.99641045811230156 -0.084653404919313266 0 
1 0.044196000000000006 0.0026222197005524111 0 0.99481794885789754 -0.10167226086876122 0 
1 0.051562000000000011 0.0018694006803295733 0 0.99308658529130733 -0.11738413059034475 0 
1 0.058928000000000008 0.00099872986598678734 0 0.99093298007507069 -0.13435709508447796 0 
1 0.066294000000000006 -1.1040168779175018e-18 0 -0.99093298007507069 -0.13435709508447766 0 
1 0.058928000000000008 -0.00099872986598678734 0 -0.99308658529130733 -0.11738413059034475 0 
1 0.051562000000000011 -0.0018694006803295733 0 -0.99481794885789754 -0.10167226086876122 0 
1 0.044196000000000006 -0.0026222197005524111 0 -0.99641045811230156 -0.084653404919313266 0 
1 0.036830000000000002 -0.0032480230284470117 0 -0.99799608379920524 -0.063275719841418582 0 
1 0.029464000000000004 -0.0037150478594238688 0 -0.99943984357953264 -0.033466387102874737 0 
1 0.022098000000000003 -0.0039616994302846802 0 -0.99993355016673402 0.011528020252916889 0 
1 0.014732000000000002 -0.0038767783901127342 0 -0.99607109513979619 0.088557176033380314 0 
1 0.007366000000000001 -0.0032218932500411523 0 -0.91619075392072535 0.40074243901809653 0 
7 0 0  1 2 2  0.014732000000000002 0.0038767783901127342 0  0.015128172458987775 0.0017887517259723078 0.86055199999999998 
 0 2 1 2
1 0.007366000000000001 0.0032218932500411523 0 0.99607109513979619 0.088557176033380314 0 
1 0.014732000000000002 0.0038767783901127342 0 0.99993355016673402 0.011528020252916889 0 
1 0.022098000000000003 0.0039616994302846802 0 0.99943984357953264 -0.033466387102874737 0 
1 0.029464000000000004 0.0037150478594238688 0 0.99799608379920524 -0.063275719841418582 0 
1 0.036830000000000002 0.0032480230284470117 0 0.99641045811230156 -0.084653404919313266 0 
1 0.044196000000000006 0.0026222197005524111 0 0.99481794885789754 -0.10167226086876122 0 
1 0.051562000000000011 0.0018694006803295733 0 0.99308658529130733 -0.11738413059034475 0 
1 0.058928000000000008 0.00099872986598678734 0 0.99093298007507069 -0.13435709508447796 0 
1 0.066294000000000006 -1.1040168779175018e-18 0 -0.99093298007507069 -0.13435709508447766 0 
1 0.058928000000000008 -0.00099872986598678734 0 -0.99308658529130733 -0.11738413059034475 0 
1 0.051562000000000011 -0.0018694006803295733 0 -0.99481794885789754 -0.10167226086876122 0 
1 0.044196000000000006 -0.0026222197005524111 0 -0.99641045811230156 -0.084653404919313266 0 
1 0.036830000000000002 -0.0032480230284470117 0 -0.99799608379920524 -0.063275719841418582 0 
1 0.029464000000000004 -0.0037150478594238688 0 -0.99943984357953264 -0.033466387102874737 0 
1 0.022098000000000003 -0.0039616994302846802 0 -0.99993355016673402 0.011528020252916889 0 
1 0.014732000000000002 -0.0038767783901127342 0 -0.99607109513979619 0.088557176033380314 0 
1 0.007366000000000001 -0.0032218932500411523 0 -0.91619075392072535 0.40074243901809653 0 
7 0 0  1 2 2  0.007366000000000001 -0.0032218932500411523 0  0.0068459137197798767 -0.0042156870680815951 0.86055199999999998 
 0 2 1 2
7 0 0  1 2 2  0.022098000000000003 0.0039616994302846802 0  0.022434305777835669 0.00084769725874706339 0.86055199999999998 
 0 2 1 2
7 0 0  1 2 2  0.029464000000000004 0.0037150478594238688 0  0.029694293108212706 -0.00042170297765318902 0.86055199999999998 
 0 2 1 2
7 0 0  1 2 2  0.036830000000000002 0.0032480230284470117 0  0.03692361040861071 -0.001909331816750841 0.86055199999999998 
 0 2 1 2
7 0 0  1 2 2  0.044196000000000006 0.0026222197005524111 0  0.044130830013226909 -0.0035541939313489179 0.86055199999999998 
 0 2 1 2
7 0 0  1 2 2  0.051562000000000011 0.0018694006803295733 0  0.051320372450071192 -0.0053248356302887517 0.86055199999999998 
 0 2 1 2
7 0 0  1 2 2  0.058928000000000008 0.00099872986598678734 0  0.058493513087274074 -0.0072121821977894742 0.86055199999999998 
 0 2 1 2
7 0 0  1 2 2  0.066294000000000006 -1.0842021724855044e-18 0  0.065648831349153669 -0.0092263415550465789 0.86055199999999998 
 0 2 1 2
7 0 0  1 2 2  0.058928000000000008 -0.00099872986598678734 0  0.058215520422332453 -0.0091902027889600012 0.86055199999999998 
 0 2 1 2
7 0 0  1 2 2  0.051562000000000011 -0.0018694006803295733 0  0.050800031870834539 -0.0090272512331170396 0.86055199999999998 
 0 2 1 2
7 0 0  1 2 2  0.044196000000000006 -0.0026222197005524111 0  0.043400945118977997 -0.0087475948087131876 0.86055199999999998 
 0 2 1 2
7 0 0  1 2 2  0.036830000000000002 -0.0032480230284470117 0  0.036019535534893364 -0.0083421587999675788 0.86055199999999998 
 0 2 1 2
7 0 0  1 2 2  0.029464000000000004 -0.0037150478594238688 0  0.028660223646590557 -0.0077794895157215493 0.86055199999999998 
 0 2 1 2
7 0 0  1 2 2  0.022098000000000003 -0.0039616994302846802 0  0.02133158178826678 -0.0069985916287781157 0.86055199999999998 
 0 2 1 2
7 0 0  1 2 2  0.014732000000000002 -0.0038767783901127342 0  0.01404908591841386 -0.0058893479726596764 0.86055199999999998 
 0 2 1 2
Polygon3D 0
PolygonOnTriangulations 0
Surfaces 23
2 -5.3655493400000003 0 0.25986740000000003 1 0 0 -0 0 1 0 -1 0 6.6294000000000004
1 7.8932506600000005 0 0.25986740000000003 1 0 0 -0 0 1 0 -1 0 
1 -5.3655493400000003 0 0.25986740000000003 1 0 0 -0 0 1 0 -1 0 
9 0 0 0 0 1 1 2 2 2 2 0 0 0  0 0 0.86055199999999998  
0.007366000000000001 0.0032218932500411523 0  0.0077427154689209392 0.0021653889447379119 0.86055199999999998  

0 2
0.008039810452657498 2

0 2
1 2

1 0 0 0 -0 0 1 1 -1.6354453985059047e-17 0 1.6354453985059047e-17 1 0 
9 0 0 0 0 1 1 2 2 2 2 0.007366000000000001 0.0032218932500411523 0  0.0077427154689209384 0.0021653889447379115 0.86055199999999998  
0.014732000000000002 0.0038767783901127342 0  0.015128172458987775 0.0017887517259723078 0.86055199999999998  

0 2
0.0073950544654307034 2

0 2
1 2

1 0 0 0.86055199999999998 -0 0 1 0.99026806874157036 -0.13917310096006547 0 0.13917310096006547 0.99026806874157036 0 
9 0 0 0 0 1 1 2 2 2 2 0.007366000000000001 -0.0032218932500411523 0  0.0068459137197798775 -0.0042156870680815951 0.86055199999999998  
0 0 0  0 8.6736173798840355e-19 0.86055199999999998  

0 2
0.008039810452657498 2

0 2
1 2

9 0 0 0 0 1 1 2 2 2 2 0.014732000000000002 0.0038767783901127342 0  0.015128172458987775 0.0017887517259723073 0.86055199999999998  
0.022098000000000003 0.0039616994302846802 0  0.022434305777835669 0.00084769725874706339 0.86055199999999998  

0 2
0.0073664895019991648 2

0 2
1 2

9 0 0 0 0 1 1 2 2 2 2 0.022098000000000003 0.0039616994302846802 0  0.022434305777835669 0.00084769725874706339 0.86055199999999998  
0.029464000000000004 0.0037150478594238688 0  0.029694293108212706 -0.00042170297765318902 0.86055199999999998  

0 2
0.0073701284247567975 2

0 2
1 2

9 0 0 0 0 1 1 2 2 2 2 0.029464000000000004 0.0037150478594238688 0  0.029694293108212706 -0.0004217029776531888 0.86055199999999998  
0.036830000000000002 0.0032480230284470117 0  0.03692361040861071 -0.001909331816750841 0.86055199999999998  

0 2
0.0073807904856288209 2

0 2
1 2

9 0 0 0 0 1 1 2 2 2 2 0.036830000000000002 0.0032480230284470117 0  0.036923610408610717 -0.0019093318167508417 0.86055199999999998  
0.044196000000000006 0.0026222197005524111 0  0.044130830013226909 -0.0035541939313489179 0.86055199999999998  

0 2
0.0073925358169713339 2

0 2
1 2

9 0 0 0 0 1 1 2 2 2 2 0.044196000000000006 0.0026222197005524111 0  0.044130830013226909 -0.0035541939313489183 0.86055199999999998  
0.051562000000000011 0.0018694006803295733 0  0.051320372450071192 -0.0053248356302887517 0.86055199999999998  

0 2
0.0074043698230983404 2

0 2
1 2

9 0 0 0 0 1 1 2 2 2 2 0.051562000000000011 0.0018694006803295733 0  0.051320372450071178 -0.0053248356302887517 0.86055199999999998  
0.058928000000000008 0.00099872986598678734 0  0.058493513087274074 -0.0072121821977894742 0.86055199999999998  

0 2
0.0074172787238277818 2

0 2
1 2

9 0 0 0 0 1 1 2 2 2 2 0.058928000000000008 0.00099872986598678734 0  0.058493513087274074 -0.0072121821977894733 0.86055199999999998  
0.066294000000000006 -1.0842021724855044e-18 0  0.065648831349153669 -0.0092263415550465789 0.86055199999999998  

0 2
0.0074333987748010635 2

0 2
1 2

9 0 0 0 0 1 1 2 2 2 2 0.066294000000000006 -1.1040168779175018e-18 0  0.065648831349153669 -0.0092263415550465806 0.86055199999999998  
0.058928000000000008 -0.00099872986598678734 0  0.058215520422332453 -0.0091902027889600012 0.86055199999999998  

0 2
0.0074333987748010635 2

0 2
1 2

9 0 0 0 0 1 1 2 2 2 2 0.058928000000000008 -0.00099872986598678734 0  0.058215520422332453 -0.0091902027889599995 0.86055199999999998  
0.051562000000000011 -0.0018694006803295733 0  0.050800031870834539 -0.0090272512331170396 0.86055199999999998  

0 2
0.0074172787238277818 2

0 2
1 2

9 0 0 0 0 1 1 2 2 2 2 0.051562000000000011 -0.0018694006803295733 0  0.050800031870834539 -0.0090272512331170396 0.86055199999999998  
0.044196000000000006 -0.0026222197005524111 0  0.043400945118977997 -0.0087475948087131876 0.86055199999999998  

0 2
0.0074043698230983404 2

0 2
1 2

9 0 0 0 0 1 1 2 2 2 2 0.044196000000000006 -0.0026222197005524111 0  0.043400945118977997 -0.0087475948087131876 0.86055199999999998  
0.036830000000000002 -0.0032480230284470117 0  0.036019535534893364 -0.0083421587999675788 0.86055199999999998  

0 2
0.0073925358169713339 2

0 2
1 2

9 0 0 0 0 1 1 2 2 2 2 0.036830000000000002 -0.0032480230284470117 0  0.036019535534893364 -0.0083421587999675806 0.86055199999999998  
0.029464000000000004 -0.0037150478594238688 0  0.028660223646590557 -0.0077794895157215493 0.86055199999999998  

0 2
0.0073807904856288209 2

0 2
1 2

9 0 0 0 0 1 1 2 2 2 2 0.029464000000000004 -0.0037150478594238688 0  0.028660223646590557 -0.0077794895157215476 0.86055199999999998  
0.022098000000000003 -0.0039616994302846802 0  0.02133158178826678 -0.0069985916287781157 0.86055199999999998  

0 2
0.0073701284247567975 2

0 2
1 2

9 0 0 0 0 1 1 2 2 2 2 0.022098000000000003 -0.0039616994302846802 0  0.021331581788266784 -0.0069985916287781166 0.86055199999999998  
0.014732000000000002 -0.0038767783901127342 0  0.01404908591841386 -0.0058893479726596764 0.86055199999999998  

0 2
0.0073664895019991648 2

0 2
1 2

9 0 0 0 0 1 1 2 2 2 2 0.014732000000000002 -0.0038767783901127342 0  0.014049085918413856 -0.0058893479726596755 0.86055199999999998  
0.007366000000000001 -0.0032218932500411523 0  0.0068459137197798767 -0.0042156870680815951 0.86055199999999998  

0 2
0.0073950544654307034 2

0 2
1 2

Triangulations 0

TShapes 145
Ve
1e-07
7.89325066 1.62373469805349e-15 6.8892674
0 0

0101101
*
Ed
 1e-07 1 1 0
1  1 0 0 6.28318530717959
2  1 1 0 0 6.28318530717959
2  2 2 0 0 6.28318530717959
0

0101000
+145 0 -145 0 *
Ve
1e-07
-5.36554934 1.62373469805349e-15 6.8892674
0 0

0101101
*
Ed
 1e-07 1 1 0
1  2 0 0 13.2588
3  3 4CN 1 0 0 13.2588
0

0101000
-145 0 +143 0 *
Ed
 1e-07 1 1 0
1  3 0 0 6.28318530717959
2  5 1 0 0 6.28318530717959
2  6 3 0 0 6.28318530717959
0

0101000
+143 0 -143 0 *
Wi

0101100
-144 0 +142 0 +141 0 -142 0 *
Fa
0  1e-07 1 0

0111000
+140 0 *
Wi

0101100
+144 0 *
Fa
0  1e-07 2 0

0111000
+138 0 *
Wi

0101100
-141 0 *
Fa
0  1e-07 3 0

0111000
-136 0 *
Sh

0101100
+139 0 +137 0 -135 0 *
Ve
1e-07
0.58370216 -0.033147 0.2598674
0 0

0101101
*
Ve
1e-07
0.58370216 -0.025781 0.256645506749959
0 0

0101101
*
Ed
 1e-07 1 1 0
1  4 0 0 0.0080398104526575
2  7 4 0 0 0.0080398104526575
2  8 5 0 0 0.0080398104526575
0

0101000
+133 3 -132 3 *
Ve
1e-07
-0.27684984 -0.0254042845310791 0.257702011055262
0 0

0101101
*
Ed
 1e-07 1 1 0
1  5 0 0 1
2  9 4 0 0 1
2  10 6 0 0 1
0

0101000
+132 3 -130 3 *
Ve
1e-07
-0.27684984 -0.033147 0.2598674
0 0

0101101
*
Ed
 1e-07 1 1 0
1  6 0 0 0.0080398104526575
2  11 4 5 0 0.0080398104526575
2  12 7 5 0 0.0080398104526575
0

0101000
+128 6 -130 6 *
Ed
 1e-07 1 1 0
1  7 0 0 1
2  13 4 0 0 1
2  14 8 0 0 1
0

0101000
+133 3 -128 3 *
Wi

0101000
+131 0 +129 0 -127 4 -126 0 *
Fa
0  1e-07 4 0

0111000
+125 0 *
Ve
1e-07
0.58370216 -0.018415 0.255990621609887
0 0

0101101
*
Ed
 1e-07 1 1 0
1  8 0 0 0.0073950544654307
2  15 6 0 0 0.0073950544654307
2  16 5 0 0 0.0073950544654307
0

0101000
+132 3 -123 3 *
Ve
1e-07
0.58370216 -0.011049 0.255905700569715
0 0

0101101
*
Ed
 1e-07 1 1 0
1  9 0 0 0.00736648950199916
2  17 9 0 0 0.00736648950199916
2  18 5 0 0 0.00736648950199916
0

0101000
+123 3 -121 3 *
Ve
1e-07
0.58370216 -0.003683 0.256152352140576
0 0

0101101
*
Ed
 1e-07 1 1 0
1  10 0 0 0.0073701284247568
2  19 10 0 0 0.0073701284247568
2  20 5 0 0 0.0073701284247568
0

0101000
+121 3 -119 3 *
Ve
1e-07
0.58370216 0.003683 0.256619376971553
0 0

0101101
*
Ed
 1e-07 1 1 0
1  11 0 0 0.00738079048562882
2  21 11 0 0 0.00738079048562882
2  22 5 0 0 0.00738079048562882
0

0101000
+119 3 -117 3 *
Ve
1e-07
0.58370216 0.011049 0.257245180299448
0 0

0101101
*
Ed
 1e-07 1 1 0
1  12 0 0 0.00739253581697133
2  23 12 0 0 0.00739253581697133
2  24 5 0 0 0.00739253581697133
0

0101000
+117 3 -115 3 *
Ve
1e-07
0.58370216 0.018415 0.25799799931967
0 0

0101101
*
Ed
 1e-07 1 1 0
1  13 0 0 0.00740436982309834
2  25 13 0 0 0.00740436982309834
2  26 5 0 0 0.00740436982309834
0

0101000
+115 3 -113 3 *
Ve
1e-07
0.58370216 0.025781 0.258868670134013
0 0

0101101
*
Ed
 1e-07 1 1 0
1  14 0 0 0.00741727872382778
2  27 14 0 0 0.00741727872382778
2  28 5 0 0 0.00741727872382778
0

0101000
+113 3 -111 3 *
Ve
1e-07
0.58370216 0.033147 0.2598674
0 0

0101101
*
Ed
 1e-07 1 1 0
1  15 0 0 0.00743339877480106
2  29 15 0 0 0.00743339877480106
2  30 5 0 0 0.00743339877480106
0

0101000
+111 3 -109 3 *
Ve
1e-07
0.58370216 0.025781 0.260866129865987
0 0

0101101
*
Ed
 1e-07 1 1 0
1  16 0 0 0.00743339877480106
2  31 16 0 0 0.00743339877480106
2  32 5 0 0 0.00743339877480106
0

0101000
+109 3 -107 3 *
Ve
1e-07
0.58370216 0.018415 0.26173680068033
0 0

0101101
*
Ed
 1e-07 1 1 0
1  17 0 0 0.00741727872382778
2  33 17 0 0 0.00741727872382778
2  34 5 0 0 0.00741727872382778
0

0101000
+107 3 -105 3 *
Ve
1e-07
0.58370216 0.011049 0.262489619700552
0 0

0101101
*
Ed
 1e-07 1 1 0
1  18 0 0 0.00740436982309834
2  35 18 0 0 0.00740436982309834
2  36 5 0 0 0.00740436982309834
0

0101000
+105 3 -103 3 *
Ve
1e-07
0.58370216 0.003683 0.263115423028447
0 0

0101101
*
Ed
 1e-07 1 1 0
1  19 0 0 0.00739253581697133
2  37 19 0 0 0.00739253581697133
2  38 5 0 0 0.00739253581697133
0

0101000
+103 3 -101 3 *
Ve
1e-07
0.58370216 -0.003683 0.263582447859424
0 0

0101101
*
Ed
 1e-07 1 1 0
1  20 0 0 0.00738079048562882
2  39 20 0 0 0.00738079048562882
2  40 5 0 0 0.00738079048562882
0

0101000
+101 3 -99 3 *
Ve
1e-07
0.58370216 -0.011049 0.263829099430285
0 0

0101101
*
Ed
 1e-07 1 1 0
1  21 0 0 0.0073701284247568
2  41 21 0 0 0.0073701284247568
2  42 5 0 0 0.0073701284247568
0

0101000
+99 3 -97 3 *
Ve
1e-07
0.58370216 -0.018415 0.263744178390113
0 0

0101101
*
Ed
 1e-07 1 1 0
1  22 0 0 0.00736648950199916
2  43 22 0 0 0.00736648950199916
2  44 5 0 0 0.00736648950199916
0

0101000
+97 3 -95 3 *
Ve
1e-07
0.58370216 -0.025781 0.263089293250041
0 0

0101101
*
Ed
 1e-07 1 1 0
1  23 0 0 0.0073950544654307
2  45 23 0 0 0.0073950544654307
2  46 5 0 0 0.0073950544654307
0

0101000
+95 3 -93 3 *
Ed
 1e-07 1 1 0
1  24 0 0 0.0080398104526575
2  47 8 0 0 0.0080398104526575
2  48 5 0 0 0.0080398104526575
0

0101000
+93 3 -133 3 *
Wi

0101100
+131 0 +122 0 +120 0 +118 0 +116 0 +114 0 +112 0 +110 0 +108 0 +106 0 
+104 0 +102 0 +100 0 +98 0 +96 0 +94 0 +92 0 +91 0 *
Fa
0  1e-07 5 0

0101000
-90 0 *
Ve
1e-07
-0.27684984 -0.0180188275410122 0.258078648274028
0 0

0101101
*
Ed
 1e-07 1 1 0
1  25 0 0 1
2  49 6 0 0 1
2  50 9 0 0 1
0

0101000
+123 3 -88 3 *
Ed
 1e-07 1 1 0
1  26 0 0 0.0073950544654307
2  51 6 5 0 0.0073950544654307
2  52 7 5 0 0.0073950544654307
0

0101000
+130 6 -88 6 *
Wi

0101000
+122 0 +87 0 -86 4 -129 0 *
Fa
0  1e-07 6 0

0101000
+85 0 *
Ve
1e-07
-0.27684984 -0.0107126942221643 0.259019702741253
0 0

0101101
*
Ed
 1e-07 1 1 0
1  27 0 0 0.00736648950199916
2  53 9 5 0 0.00736648950199916
2  54 7 5 0 0.00736648950199916
0

0101000
+88 6 -83 6 *
Ve
1e-07
-0.27684984 -0.0034527068917873 0.260289102977653
0 0

0101101
*
Ed
 1e-07 1 1 0
1  28 0 0 0.0073701284247568
2  55 10 5 0 0.0073701284247568
2  56 7 5 0 0.0073701284247568
0

0101000
+83 6 -81 6 *
Ve
1e-07
-0.27684984 0.00377661040861071 0.261776731816751
0 0

0101101
*
Ed
 1e-07 1 1 0
1  29 0 0 0.00738079048562882
2  57 11 5 0 0.00738079048562882
2  58 7 5 0 0.00738079048562882
0

0101000
+81 6 -79 6 *
Ve
1e-07
-0.27684984 0.0109838300132269 0.263421593931349
0 0

0101101
*
Ed
 1e-07 1 1 0
1  30 0 0 0.00739253581697133
2  59 12 5 0 0.00739253581697133
2  60 7 5 0 0.00739253581697133
0

0101000
+79 6 -77 6 *
Ve
1e-07
-0.27684984 0.0181733724500712 0.265192235630289
0 0

0101101
*
Ed
 1e-07 1 1 0
1  31 0 0 0.00740436982309834
2  61 13 5 0 0.00740436982309834
2  62 7 5 0 0.00740436982309834
0

0101000
+77 6 -75 6 *
Ve
1e-07
-0.27684984 0.0253465130872741 0.267079582197789
0 0

0101101
*
Ed
 1e-07 1 1 0
1  32 0 0 0.00741727872382778
2  63 14 5 0 0.00741727872382778
2  64 7 5 0 0.00741727872382778
0

0101000
+75 6 -73 6 *
Ve
1e-07
-0.27684984 0.0325018313491537 0.269093741555047
0 0

0101101
*
Ed
 1e-07 1 1 0
1  33 0 0 0.00743339877480106
2  65 15 5 0 0.00743339877480106
2  66 7 5 0 0.00743339877480106
0

0101000
+73 6 -71 6 *
Ve
1e-07
-0.27684984 0.0250685204223325 0.26905760278896
0 0

0101101
*
Ed
 1e-07 1 1 0
1  34 0 0 0.00743339877480106
2  67 16 5 0 0.00743339877480106
2  68 7 5 0 0.00743339877480106
0

0101000
+71 6 -69 6 *
Ve
1e-07
-0.27684984 0.0176530318708345 0.268894651233117
0 0

0101101
*
Ed
 1e-07 1 1 0
1  35 0 0 0.00741727872382778
2  69 17 5 0 0.00741727872382778
2  70 7 5 0 0.00741727872382778
0

0101000
+69 6 -67 6 *
Ve
1e-07
-0.27684984 0.010253945118978 0.268614994808713
0 0

0101101
*
Ed
 1e-07 1 1 0
1  36 0 0 0.00740436982309834
2  71 18 5 0 0.00740436982309834
2  72 7 5 0 0.00740436982309834
0

0101000
+67 6 -65 6 *
Ve
1e-07
-0.27684984 0.00287253553489336 0.268209558799968
0 0

0101101
*
Ed
 1e-07 1 1 0
1  37 0 0 0.00739253581697133
2  73 19 5 0 0.00739253581697133
2  74 7 5 0 0.00739253581697133
0

0101000
+65 6 -63 6 *
Ve
1e-07
-0.27684984 -0.00448677635340945 0.267646889515722
0 0

0101101
*
Ed
 1e-07 1 1 0
1  38 0 0 0.00738079048562882
2  75 20 5 0 0.00738079048562882
2  76 7 5 0 0.00738079048562882
0

0101000
+63 6 -61 6 *
Ve
1e-07
-0.27684984 -0.0118154182117332 0.266865991628778
0 0

0101101
*
Ed
 1e-07 1 1 0
1  39 0 0 0.0073701284247568
2  77 21 5 0 0.0073701284247568
2  78 7 5 0 0.0073701284247568
0

0101000
+61 6 -59 6 *
Ve
1e-07
-0.27684984 -0.0190979140815861 0.26575674797266
0 0

0101101
*
Ed
 1e-07 1 1 0
1  40 0 0 0.00736648950199916
2  79 22 5 0 0.00736648950199916
2  80 7 5 0 0.00736648950199916
0

0101000
+59 6 -57 6 *
Ve
1e-07
-0.27684984 -0.0263010862802201 0.264083087068082
0 0

0101101
*
Ed
 1e-07 1 1 0
1  41 0 0 0.0073950544654307
2  81 23 5 0 0.0073950544654307
2  82 7 5 0 0.0073950544654307
0

0101000
+57 6 -55 6 *
Ed
 1e-07 1 1 0
1  42 0 0 0.0080398104526575
2  83 8 5 0 0.0080398104526575
2  84 7 5 0 0.0080398104526575
0

0101000
+55 6 -128 6 *
Wi

0101100
+127 4 +86 4 +82 4 +80 4 +78 4 +76 4 +74 4 +72 4 +70 4 +68 4 
+66 4 +64 4 +62 4 +60 4 +58 4 +56 4 +54 4 +53 4 *
Fa
0  1e-07 7 0

0101000
-52 0 *
Ed
 1e-07 1 1 0
1  43 0 0 1
2  85 23 0 0 1
2  86 8 0 0 1
0

0101000
+93 3 -55 3 *
Wi

0101000
+91 0 +126 0 -53 4 -50 0 *
Fa
0  1e-07 8 0

0111000
+49 0 *
Ed
 1e-07 1 1 0
1  44 0 0 1
2  87 9 0 0 1
2  88 10 0 0 1
0

0101000
+121 3 -83 3 *
Wi

0101000
+120 0 +47 0 -82 4 -87 0 *
Fa
0  1e-07 9 0

0101000
+46 0 *
Ed
 1e-07 1 1 0
1  45 0 0 1
2  89 10 0 0 1
2  90 11 0 0 1
0

0101000
+119 3 -81 3 *
Wi

0101000
+118 0 +44 0 -80 4 -47 0 *
Fa
0  1e-07 10 0

0101000
+43 0 *
Ed
 1e-07 1 1 0
1  46 0 0 1
2  91 11 0 0 1
2  92 12 0 0 1
0

0101000
+117 3 -79 3 *
Wi

0101000
+116 0 +41 0 -78 4 -44 0 *
Fa
0  1e-07 11 0

0101000
+40 0 *
Ed
 1e-07 1 1 0
1  47 0 0 1
2  93 12 0 0 1
2  94 13 0 0 1
0

0101000
+115 3 -77 3 *
Wi

0101000
+114 0 +38 0 -76 4 -41 0 *
Fa
0  1e-07 12 0

0101000
+37 0 *
Ed
 1e-07 1 1 0
1  48 0 0 1
2  95 13 0 0 1
2  96 14 0 0 1
0

0101000
+113 3 -75 3 *
Wi

0101000
+112 0 +35 0 -74 4 -38 0 *
Fa
0  1e-07 13 0

0101000
+34 0 *
Ed
 1e-07 1 1 0
1  49 0 0 1
2  97 14 0 0 1
2  98 15 0 0 1
0

0101000
+111 3 -73 3 *
Wi

0101000
+110 0 +32 0 -72 4 -35 0 *
Fa
0  1e-07 14 0

0101000
+31 0 *
Ed
 1e-07 1 1 0
1  50 0 0 1
2  99 15 0 0 1
2  100 16 0 0 1
0

0101000
+109 3 -71 3 *
Wi

0101000
+108 0 +29 0 -70 4 -32 0 *
Fa
0  1e-07 15 0

0101000
+28 0 *
Ed
 1e-07 1 1 0
1  51 0 0 1
2  101 16 0 0 1
2  102 17 0 0 1
0

0101000
+107 3 -69 3 *
Wi

0101000
+106 0 +26 0 -68 4 -29 0 *
Fa
0  1e-07 16 0

0101000
+25 0 *
Ed
 1e-07 1 1 0
1  52 0 0 1
2  103 17 0 0 1
2  104 18 0 0 1
0

0101000
+105 3 -67 3 *
Wi

0101000
+104 0 +23 0 -66 4 -26 0 *
Fa
0  1e-07 17 0

0101000
+22 0 *
Ed
 1e-07 1 1 0
1  53 0 0 1
2  105 18 0 0 1
2  106 19 0 0 1
0

0101000
+103 3 -65 3 *
Wi

0101000
+102 0 +20 0 -64 4 -23 0 *
Fa
0  1e-07 18 0

0101000
+19 0 *
Ed
 1e-07 1 1 0
1  54 0 0 1
2  107 19 0 0 1
2  108 20 0 0 1
0

0101000
+101 3 -63 3 *
Wi

0101000
+100 0 +17 0 -62 4 -20 0 *
Fa
0  1e-07 19 0

0101000
+16 0 *
Ed
 1e-07 1 1 0
1  55 0 0 1
2  109 20 0 0 1
2  110 21 0 0 1
0

0101000
+99 3 -61 3 *
Wi

0101000
+98 0 +14 0 -60 4 -17 0 *
Fa
0  1e-07 20 0

0101000
+13 0 *
Ed
 1e-07 1 1 0
1  56 0 0 1
2  111 21 0 0 1
2  112 22 0 0 1
0

0101000
+97 3 -59 3 *
Wi

0101000
+96 0 +11 0 -58 4 -14 0 *
Fa
0  1e-07 21 0

0101000
+10 0 *
Ed
 1e-07 1 1 0
1  57 0 0 1
2  113 22 0 0 1
2  114 23 0 0 1
0

0101000
+95 3 -57 3 *
Wi

0101000
+94 0 +8 0 -56 4 -11 0 *
Fa
0  1e-07 22 0

0101000
+7 0 *
Wi

0101000
+92 0 +50 0 -54 4 -8 0 *
Fa
0  1e-07 23 0

0101000
+5 0 *
Sh

0101100
+124 1 +89 1 +84 1 -51 1 +48 1 +45 1 +42 1 +39 1 +36 1 +33 1 
+30 1 +27 1 +24 1 +21 1 +18 1 +15 1 +12 1 +9 1 +6 1 +4 1 
*
So

0100000
+134 0 +3 0 *
Co

1100000
+2 0 *

+1 0 