DBRep_DrawableShape

CASCADE Topology V1, (c) Matra-Datavision
Locations 3
1
              1               0               0      0.67549141 
              0 2.22044604925031e-16              -1      0.98548825 
              0               1 2.22044604925031e-16       0.2598674 
1
0.99026806874157 0.139173100960065               0               0 
-0.139173100960065 0.99026806874157              -0               0 
             -0               0               1        0.860552 
2  2 -1 0
Curve2ds 114
1 0 13.258800000000001 1 0 
2 0 0 1 0 -0 1 6.6294000000000004
1 6.2831853071795862 -0 0 1 
1 0 -0 0 1 
1 0 0 1 0 
2 0 0 1 0 -0 1 6.6294000000000004
1 0 0 1 0 
1 0 0 0.91619075392072546 0.40074243901809659 
1 0.008039810452657498 0 0 1 
1 0 0 0 1 
1 0 1 1 0 
1 0 0 0.91619075392072546 0.4007424390180967 
1 0 0 0 1 
1 0.008039810452657498 0 0 1 
1 0 0 1 0 
1 0.007366000000000001 0.0032218932500411523 0.99607109513979619 0.088557176033380328 
1 0 0 1 0 
1 0.014732000000000002 0.0038767783901127346 0.99993355016673402 0.011528020252916904 
1 0 0 1 0 
1 0.022098000000000003 0.0039616994302846802 0.99943984357953264 -0.033466387102874723 
1 0 0 1 0 
1 0.029464000000000004 0.0037150478594238693 0.99799608379920524 -0.063275719841418568 
1 0 0 1 0 
1 0.036830000000000002 0.0032480230284470122 0.99641045811230167 -0.084653404919313266 
1 0 0 1 0 
1 0.044196000000000006 0.0026222197005524119 0.99481794885789765 -0.10167226086876122 
1 0 0 1 0 
1 0.051562000000000011 0.0018694006803295742 0.99308658529130733 -0.11738413059034473 
1 0 0 1 0 
1 0.058928000000000008 0.0009987298659867882 0.99093298007507069 -0.13435709508447793 
1 0 0 1 0 
1 0.066294000000000006 -1.9814705431997384e-20 -0.9909329800750708 -0.13435709508447771 
1 0 0 1 0 
1 0.058928000000000008 -0.00099872986598678647 -0.99308658529130733 -0.11738413059034476 
1 0 0 1 0 
1 0.051562000000000011 -0.0018694006803295724 -0.99481794885789765 -0.10167226086876124 
1 0 0 1 0 
1 0.044196000000000006 -0.0026222197005524102 -0.99641045811230167 -0.084653404919313294 
1 0 0 1 0 
1 0.036830000000000002 -0.0032480230284470113 -0.99799608379920524 -0.063275719841418596 
1 0 0 1 0 
1 0.029464000000000004 -0.0037150478594238684 -0.99943984357953264 -0.033466387102874751 
1 0 0 1 0 
1 0.022098000000000003 -0.0039616994302846802 -0.99993355016673402 0.011528020252916873 
1 0 0 1 0 
1 0.014732000000000002 -0.0038767783901127338 -0.99607109513979619 0.0885571760333803 
1 0 0 1 0 
1 0.007366000000000001 -0.0032218932500411523 -0.91619075392072546 0.40074243901809659 
1 0.0073950544654307034 0 0 1 
1 0 0 0 1 
1 0 1 1 0 
1 0.007366000000000001 0.0032218932500411531 0.99607109513979619 0.088557176033380369 
1 0 1 1 0 
1 0.014732000000000002 0.0038767783901127351 0.99993355016673413 0.01152802025291691 
1 0 1 1 0 
1 0.022098000000000007 0.0039616994302846811 0.99943984357953275 -0.033466387102874723 
1 0 1 1 0 
1 0.029464000000000008 0.0037150478594238706 0.99799608379920535 -0.063275719841418554 
1 0 1 1 0 
1 0.036830000000000016 0.0032480230284470139 0.99641045811230167 -0.084653404919313224 
1 0 1 1 0 
1 0.044196000000000013 0.0026222197005524128 0.99481794885789765 -0.10167226086876122 
1 0 1 1 0 
1 0.051562000000000011 0.0018694006803295742 0.99308658529130722 -0.11738413059034472 
1 0 1 1 0 
1 0.058928000000000008 0.00099872986598678864 0.99093298007507069 -0.13435709508447793 
1 0 1 1 0 
1 0.066294000000000006 0 -0.9909329800750708 -0.13435709508447771 
1 0 1 1 0 
1 0.058928000000000015 -0.0009987298659867843 -0.99308658529130722 -0.11738413059034476 
1 0 1 1 0 
1 0.051562000000000011 -0.0018694006803295707 -0.99481794885789776 -0.10167226086876127 
1 0 1 1 0 
1 0.044196000000000013 -0.0026222197005524098 -0.99641045811230178 -0.084653404919313308 
1 0 1 1 0 
1 0.036830000000000002 -0.003248023028447013 -0.99799608379920535 -0.063275719841418623 
1 0 1 1 0 
1 0.029464000000000004 -0.003715047859423868 -0.99943984357953275 -0.033466387102874764 
1 0 1 1 0 
1 0.02209800000000001 -0.0039616994302846802 -0.99993355016673413 0.011528020252916882 
1 0 1 1 0 
1 0.014732000000000004 -0.0038767783901127342 -0.99607109513979619 0.088557176033380244 
1 0 1 1 0 
1 0.0073660000000000019 -0.0032218932500411518 -0.91619075392072535 0.40074243901809659 
1 0.0073950544654307034 0 0 1 
1 0 0 0 1 
1 0.0073664895019991648 0 0 1 
1 0 0 0 1 
1 0.0073701284247567975 0 0 1 
1 0 0 0 1 
1 0.0073807904856288209 0 0 1 
1 0 0 0 1 
1 0.0073925358169713339 0 0 1 
1 0 0 0 1 
1 0.0074043698230983404 0 0 1 
1 0 0 0 1 
1 0.0074172787238277818 0 0 1 
1 0 0 0 1 
1 0.0074333987748010635 0 0 1 
1 0 0 0 1 
1 0.0074333987748010635 0 0 1 
1 0 0 0 1 
1 0.0074172787238277818 0 0 1 
1 0 0 0 1 
1 0.0074043698230983404 0 0 1 
1 0 0 0 1 
1 0.0073925358169713339 0 0 1 
1 0 0 0 1 
1 0.0073807904856288209 0 0 1 
1 0 0 0 1 
1 0.0073701284247567975 0 0 1 
1 0 0 0 1 
1 0.0073664895019991648 0 0 1 
1 0 0 0 1 
Curves 57
2 0.70863841000000005 -6.074187750000001 0.25986740000000003 0 -1 0 0 -0 -1 1 0 0 6.6294000000000004
1 0.70863840999999839 7.1846122499999998 -6.3695326000000003 0 -1 0 
2 0.70863841000000005 7.1846122499999998 0.25986740000000003 0 -1 0 0 -0 -1 1 0 0 6.6294000000000004
1 0 0 0 0.91619075392072535 0.40074243901809653 0 
7 0 0  1 2 2  0.007366000000000001 0.0032218932500411523 0  0.0077427154689209392 0.0021653889447379119 0.86055199999999998 
 0 2 1 2
1 0 0 0 0.91619075392072535 0.40074243901809653 0 
7 0 0  1 2 2  0 0 0  0 0 0.86055199999999998 
 0 2 1 2
1 0.007366000000000001 0.0032218932500411523 0 0.99607109513979619 0.088557176033380314 0 
1 0.014732000000000002 0.0038767783901127342 0 0.99993355016673402 0.011528020252916889 0 
1 0.022098000000000003 0.0039616994302846802 0 0.99943984357953264 -0.033466387102874737 0 
1 0.029464000000000004 0.0037150478594238688 0 0.99799608379920524 -0.063275719841418582 0 
1 0.036830000000000002 0.0032480230284470117 0 0.99641045811230156 -0.084653404919313266 0 
1 0.044196000000000006 0.0026222197005524111 0 0.99481794885789754 -0.10167226086876122 0 
1 0.051562000000000011 0.0018694006803295733 0 0.99308658529130733 -0.11738413059034475 0 
1 0.058928000000000008 0.00099872986598678734 0 0.99093298007507069 -0.13435709508447796 0 
1 0.066294000000000006 -1.1040168779175018e-18 0 -0.99093298007507069 -0.13435709508447766 0 
1 0.058928000000000008 -0.00099872986598678734 0 -0.99308658529130733 -0.11738413059034475 0 
1 0.051562000000000011 -0.0018694006803295733 0 -0.99481794885789754 -0.10167226086876122 0 
1 0.044196000000000006 -0.0026222197005524111 0 -0.99641045811230156 -0.084653404919313266 0 
1 0.036830000000000002 -0.0032480230284470117 0 -0.99799608379920524 -0.063275719841418582 0 
1 0.029464000000000004 -0.0037150478594238688 0 -0.99943984357953264 -0.033466387102874737 0 
1 0.022098000000000003 -0.0039616994302846802 0 -0.99993355016673402 0.011528020252916889 0 
1 0.014732000000000002 -0.0038767783901127342 0 -0.99607109513979619 0.088557176033380314 0 
1 0.007366000000000001 -0.0032218932500411523 0 -0.91619075392072535 0.40074243901809653 0 
7 0 0  1 2 2  0.014732000000000002 0.0038767783901127342 0  0.015128172458987775 0.0017887517259723078 0.86055199999999998 
 0 2 1 2
1 0.007366000000000001 0.0032218932500411523 0 0.99607109513979619 0.088557176033380314 0 
1 0.014732000000000002 0.0038767783901127342 0 0.99993355016673402 0.011528020252916889 0 
1 0.022098000000000003 0.0039616994302846802 0 0.99943984357953264 -0.033466387102874737 0 
1 0.029464000000000004 0.0037150478594238688 0 0.99799608379920524 -0.063275719841418582 0 
1 0.036830000000000002 0.0032480230284470117 0 0.99641045811230156 -0.084653404919313266 0 
1 0.044196000000000006 0.0026222197005524111 0 0.99481794885789754 -0.10167226086876122 0 
1 0.051562000000000011 0.0018694006803295733 0 0.99308658529130733 -0.11738413059034475 0 
1 0.058928000000000008 0.00099872986598678734 0 0.99093298007507069 -0.13435709508447796 0 
1 0.066294000000000006 -1.1040168779175018e-18 0 -0.99093298007507069 -0.13435709508447766 0 
1 0.058928000000000008 -0.00099872986598678734 0 -0.99308658529130733 -0.11738413059034475 0 
1 0.051562000000000011 -0.0018694006803295733 0 -0.99481794885789754 -0.10167226086876122 0 
1 0.044196000000000006 -0.0026222197005524111 0 -0.99641045811230156 -0.084653404919313266 0 
1 0.036830000000000002 -0.0032480230284470117 0 -0.99799608379920524 -0.063275719841418582 0 
1 0.029464000000000004 -0.0037150478594238688 0 -0.99943984357953264 -0.033466387102874737 0 
1 0.022098000000000003 -0.0039616994302846802 0 -0.99993355016673402 0.011528020252916889 0 
1 0.014732000000000002 -0.0038767783901127342 0 -0.99607109513979619 0.088557176033380314 0 
1 0.007366000000000001 -0.0032218932500411523 0 -0.91619075392072535 0.40074243901809653 0 
7 0 0  1 2 2  0.007366000000000001 -0.0032218932500411523 0  0.0068459137197798767 -0.0042156870680815951 0.86055199999999998 
 0 2 1 2
7 0 0  1 2 2  0.022098000000000003 0.0039616994302846802 0  0.022434305777835669 0.00084769725874706339 0.86055199999999998 
 0 2 1 2
7 0 0  1 2 2  0.029464000000000004 0.0037150478594238688 0  0.029694293108212706 -0.00042170297765318902 0.86055199999999998 
 0 2 1 2
7 0 0  1 2 2  0.036830000000000002 0.0032480230284470117 0  0.03692361040861071 -0.001909331816750841 0.86055199999999998 
 0 2 1 2
7 0 0  1 2 2  0.044196000000000006 0.0026222197005524111 0  0.044130830013226909 -0.0035541939313489179 0.86055199999999998 
 0 2 1 2
7 0 0  1 2 2  0.051562000000000011 0.0018694006803295733 0  0.051320372450071192 -0.0053248356302887517 0.86055199999999998 
 0 2 1 2
7 0 0  1 2 2  0.058928000000000008 0.00099872986598678734 0  0.058493513087274074 -0.0072121821977894742 0.86055199999999998 
 0 2 1 2
7 0 0  1 2 2  0.066294000000000006 -1.0842021724855044e-18 0  0.065648831349153669 -0.0092263415550465789 0.86055199999999998 
 0 2 1 2
7 0 0  1 2 2  0.058928000000000008 -0.00099872986598678734 0  0.058215520422332453 -0.0091902027889600012 0.86055199999999998 
 0 2 1 2
7 0 0  1 2 2  0.051562000000000011 -0.0018694006803295733 0  0.050800031870834539 -0.0090272512331170396 0.86055199999999998 
 0 2 1 2
7 0 0  1 2 2  0.044196000000000006 -0.0026222197005524111 0  0.043400945118977997 -0.0087475948087131876 0.86055199999999998 
 0 2 1 2
7 0 0  1 2 2  0.036830000000000002 -0.0032480230284470117 0  0.036019535534893364 -0.0083421587999675788 0.86055199999999998 
 0 2 1 2
7 0 0  1 2 2  0.029464000000000004 -0.0037150478594238688 0  0.028660223646590557 -0.0077794895157215493 0.86055199999999998 
 0 2 1 2
7 0 0  1 2 2  0.022098000000000003 -0.0039616994302846802 0  0.02133158178826678 -0.0069985916287781157 0.86055199999999998 
 0 2 1 2
7 0 0  1 2 2  0.014732000000000002 -0.0038767783901127342 0  0.01404908591841386 -0.0058893479726596764 0.86055199999999998 
 0 2 1 2
Polygon3D 0
PolygonOnTriangulations 0
Surfaces 23
2 0.70863841000000005 7.1846122499999998 0.25986740000000003 0 -1 0 0 -0 -1 1 0 0 6.6294000000000004
1 0.70863841000000005 -6.074187750000001 0.25986740000000003 0 -1 0 0 -0 -1 1 0 0 
1 0.70863841000000005 7.1846122499999998 0.25986740000000003 0 -1 0 0 -0 -1 1 0 0 
9 0 0 0 0 1 1 2 2 2 2 0 0 0  0 0 0.86055199999999998  
0.007366000000000001 0.0032218932500411523 0  0.0077427154689209392 0.0021653889447379119 0.86055199999999998  

0 2
0.008039810452657498 2

0 2
1 2

1 0 0 0 -0 0 1 1 -1.6354453985059047e-17 0 1.6354453985059047e-17 1 0 
9 0 0 0 0 1 1 2 2 2 2 0.007366000000000001 0.0032218932500411523 0  0.0077427154689209384 0.0021653889447379115 0.86055199999999998  
0.014732000000000002 0.0038767783901127342 0  0.015128172458987775 0.0017887517259723078 0.86055199999999998  

0 2
0.0073950544654307034 2

0 2
1 2

1 0 0 0.86055199999999998 -0 0 1 0.99026806874157036 -0.13917310096006547 0 0.13917310096006547 0.99026806874157036 0 
9 0 0 0 0 1 1 2 2 2 2 0.007366000000000001 -0.0032218932500411523 0  0.0068459137197798775 -0.0042156870680815951 0.86055199999999998  
0 0 0  0 8.6736173798840355e-19 0.86055199999999998  

0 2
0.008039810452657498 2

0 2
1 2

9 0 0 0 0 1 1 2 2 2 2 0.014732000000000002 0.0038767783901127342 0  0.015128172458987775 0.0017887517259723073 0.86055199999999998  
0.022098000000000003 0.0039616994302846802 0  0.022434305777835669 0.00084769725874706339 0.86055199999999998  

0 2
0.0073664895019991648 2

0 2
1 2

9 0 0 0 0 1 1 2 2 2 2 0.022098000000000003 0.0039616994302846802 0  0.022434305777835669 0.00084769725874706339 0.86055199999999998  
0.029464000000000004 0.0037150478594238688 0  0.029694293108212706 -0.00042170297765318902 0.86055199999999998  

0 2
0.0073701284247567975 2

0 2
1 2

9 0 0 0 0 1 1 2 2 2 2 0.029464000000000004 0.0037150478594238688 0  0.029694293108212706 -0.0004217029776531888 0.86055199999999998  
0.036830000000000002 0.0032480230284470117 0  0.03692361040861071 -0.001909331816750841 0.86055199999999998  

0 2
0.0073807904856288209 2

0 2
1 2

9 0 0 0 0 1 1 2 2 2 2 0.036830000000000002 0.0032480230284470117 0  0.036923610408610717 -0.0019093318167508417 0.86055199999999998  
0.044196000000000006 0.0026222197005524111 0  0.044130830013226909 -0.0035541939313489179 0.86055199999999998  

0 2
0.0073925358169713339 2

0 2
1 2

9 0 0 0 0 1 1 2 2 2 2 0.044196000000000006 0.0026222197005524111 0  0.044130830013226909 -0.0035541939313489183 0.86055199999999998  
0.051562000000000011 0.0018694006803295733 0  0.051320372450071192 -0.0053248356302887517 0.86055199999999998  

0 2
0.0074043698230983404 2

0 2
1 2

9 0 0 0 0 1 1 2 2 2 2 0.051562000000000011 0.0018694006803295733 0  0.051320372450071178 -0.0053248356302887517 0.86055199999999998  
0.058928000000000008 0.00099872986598678734 0  0.058493513087274074 -0.0072121821977894742 0.86055199999999998  

0 2
0.0074172787238277818 2

0 2
1 2

9 0 0 0 0 1 1 2 2 2 2 0.058928000000000008 0.00099872986598678734 0  0.058493513087274074 -0.0072121821977894733 0.86055199999999998  
0.066294000000000006 -1.0842021724855044e-18 0  0.065648831349153669 -0.0092263415550465789 0.86055199999999998  

0 2
0.0074333987748010635 2

0 2
1 2

9 0 0 0 0 1 1 2 2 2 2 0.066294000000000006 -1.1040168779175018e-18 0  0.065648831349153669 -0.0092263415550465806 0.86055199999999998  
0.058928000000000008 -0.00099872986598678734 0  0.058215520422332453 -0.0091902027889600012 0.86055199999999998  

0 2
0.0074333987748010635 2

0 2
1 2

9 0 0 0 0 1 1 2 2 2 2 0.058928000000000008 -0.00099872986598678734 0  0.058215520422332453 -0.0091902027889599995 0.86055199999999998  
0.051562000000000011 -0.0018694006803295733 0  0.050800031870834539 -0.0090272512331170396 0.86055199999999998  

0 2
0.0074172787238277818 2

0 2
1 2

9 0 0 0 0 1 1 2 2 2 2 0.051562000000000011 -0.0018694006803295733 0  0.050800031870834539 -0.0090272512331170396 0.86055199999999998  
0.044196000000000006 -0.0026222197005524111 0  0.043400945118977997 -0.0087475948087131876 0.86055199999999998  

0 2
0.0074043698230983404 2

0 2
1 2

9 0 0 0 0 1 1 2 2 2 2 0.044196000000000006 -0.0026222197005524111 0  0.043400945118977997 -0.0087475948087131876 0.86055199999999998  
0.036830000000000002 -0.0032480230284470117 0  0.036019535534893364 -0.0083421587999675788 0.86055199999999998  

0 2
0.0073925358169713339 2

0 2
1 2

9 0 0 0 0 1 1 2 2 2 2 0.036830000000000002 -0.0032480230284470117 0  0.036019535534893364 -0.0083421587999675806 0.86055199999999998  
0.029464000000000004 -0.0037150478594238688 0  0.028660223646590557 -0.0077794895157215493 0.86055199999999998  

0 2
0.0073807904856288209 2

0 2
1 2

9 0 0 0 0 1 1 2 2 2 2 0.029464000000000004 -0.0037150478594238688 0  0.028660223646590557 -0.0077794895157215476 0.86055199999999998  
0.022098000000000003 -0.0039616994302846802 0  0.02133158178826678 -0.0069985916287781157 0.86055199999999998  

0 2
0.0073701284247567975 2

0 2
1 2

9 0 0 0 0 1 1 2 2 2 2 0.022098000000000003 -0.0039616994302846802 0  0.021331581788266784 -0.0069985916287781166 0.86055199999999998  
0.014732000000000002 -0.0038767783901127342 0  0.01404908591841386 -0.0058893479726596764 0.86055199999999998  

0 2
0.0073664895019991648 2

0 2
1 2

9 0 0 0 0 1 1 2 2 2 2 0.014732000000000002 -0.0038767783901127342 0  0.014049085918413856 -0.0058893479726596755 0.86055199999999998  
0.007366000000000001 -0.0032218932500411523 0  0.0068459137197798767 -0.0042156870680815951 0.86055199999999998  

0 2
0.0073950544654307034 2

0 2
1 2

Triangulations 0

TShapes 145
Ve
1e-07
0.708638409999998 -6.07418775 -6.3695326
0 0

0101101
*
Ed
 1e-07 1 1 0
1  1 0 0 6.28318530717959
2  1 1 0 0 6.28318530717959
2  2 2 0 0 6.28318530717959
0

0101000
+145 0 -145 0 *
Ve
1e-07
0.708638409999998 7.18461225 -6.3695326
0 0

0101101
*
Ed
 1e-07 1 1 0
1  2 0 0 13.2588
3  3 4CN 1 0 0 13.2588
0

0101000
-145 0 +143 0 *
Ed
 1e-07 1 1 0
1  3 0 0 6.28318530717959
2  5 1 0 0 6.28318530717959
2  6 3 0 0 6.28318530717959
0

0101000
+143 0 -143 0 *
Wi

0101100
-144 0 +142 0 +141 0 -142 0 *
Fa
0  1e-07 1 0

0111000
+140 0 *
Wi

0101100
+144 0 *
Fa
0  1e-07 2 0

0111000
+138 0 *
Wi

0101100
-141 0 *
Fa
0  1e-07 3 0

0111000
-136 0 *
Sh

0101100
+139 0 +137 0 -135 0 *
Ve
1e-07
0 0 0
0 0

0101101
*
Ve
1e-07
0.007366 0.00322189325004115 0
0 0

0101101
*
Ed
 1e-07 1 1 0
1  4 0 0 0.0080398104526575
2  7 4 0 0 0.0080398104526575
4 C0 4 0 5 0
2  8 5 0 0 0.0080398104526575
0

0101000
+133 0 -132 0 *
Ve
1e-07
0.007366 0.00322189325004115 0
0 0

0101101
*
Ed
 1e-07 1 1 0
1  5 0 0 1
2  9 4 0 0 1
2  10 6 0 0 1
4 C0 4 0 6 0
0

0101000
+132 0 -130 2 *
Ve
1e-07
0 0 0
0 0

0101101
*
Ed
 1e-07 1 1 0
1  6 0 0 0.0080398104526575
2  11 4 3 0 0.0080398104526575
4 C0 4 3 7 3
2  12 7 3 0 0.0080398104526575
0

0101000
+128 0 -130 0 *
Ed
 1e-07 1 1 0
1  7 0 0 1
2  13 4 0 0 1
2  14 8 0 0 1
4 C0 4 0 8 0
0

0101000
+133 0 -128 2 *
Wi

0101000
+131 0 +129 0 -127 2 -126 0 *
Fa
0  1e-07 4 0

0111000
+125 0 *
Ve
1e-07
0.014732 0.00387677839011273 0
0 0

0101101
*
Ed
 1e-07 1 1 0
1  8 0 0 0.0073950544654307
2  15 6 0 0 0.0073950544654307
4 C0 6 0 5 0
2  16 5 0 0 0.0073950544654307
0

0101000
+132 0 -123 0 *
Ve
1e-07
0.022098 0.00396169943028468 0
0 0

0101101
*
Ed
 1e-07 1 1 0
1  9 0 0 0.00736648950199916
2  17 9 0 0 0.00736648950199916
4 C0 9 0 5 0
2  18 5 0 0 0.00736648950199916
0

0101000
+123 0 -121 0 *
Ve
1e-07
0.029464 0.00371504785942387 0
0 0

0101101
*
Ed
 1e-07 1 1 0
1  10 0 0 0.0073701284247568
2  19 10 0 0 0.0073701284247568
4 C0 10 0 5 0
2  20 5 0 0 0.0073701284247568
0

0101000
+121 0 -119 0 *
Ve
1e-07
0.03683 0.00324802302844701 0
0 0

0101101
*
Ed
 1e-07 1 1 0
1  11 0 0 0.00738079048562882
2  21 11 0 0 0.00738079048562882
4 C0 11 0 5 0
2  22 5 0 0 0.00738079048562882
0

0101000
+119 0 -117 0 *
Ve
1e-07
0.044196 0.00262221970055241 0
0 0

0101101
*
Ed
 1e-07 1 1 0
1  12 0 0 0.00739253581697133
2  23 12 0 0 0.00739253581697133
4 C0 12 0 5 0
2  24 5 0 0 0.00739253581697133
0

0101000
+117 0 -115 0 *
Ve
1e-07
0.051562 0.00186940068032957 0
0 0

0101101
*
Ed
 1e-07 1 1 0
1  13 0 0 0.00740436982309834
2  25 13 0 0 0.00740436982309834
4 C0 13 0 5 0
2  26 5 0 0 0.00740436982309834
0

0101000
+115 0 -113 0 *
Ve
1e-07
0.058928 0.000998729865986787 0
0 0

0101101
*
Ed
 1e-07 1 1 0
1  14 0 0 0.00741727872382778
2  27 14 0 0 0.00741727872382778
4 C0 14 0 5 0
2  28 5 0 0 0.00741727872382778
0

0101000
+113 0 -111 0 *
Ve
1e-07
0.066294 -1.1040168779175e-18 0
0 0

0101101
*
Ed
 1e-07 1 1 0
1  15 0 0 0.00743339877480106
2  29 15 0 0 0.00743339877480106
4 C0 15 0 5 0
2  30 5 0 0 0.00743339877480106
0

0101000
+111 0 -109 0 *
Ve
1e-07
0.058928 -0.000998729865986787 0
0 0

0101101
*
Ed
 1e-07 1 1 0
1  16 0 0 0.00743339877480106
2  31 16 0 0 0.00743339877480106
4 C0 16 0 5 0
2  32 5 0 0 0.00743339877480106
0

0101000
+109 0 -107 0 *
Ve
1e-07
0.051562 -0.00186940068032957 0
0 0

0101101
*
Ed
 1e-07 1 1 0
1  17 0 0 0.00741727872382778
2  33 17 0 0 0.00741727872382778
4 C0 17 0 5 0
2  34 5 0 0 0.00741727872382778
0

0101000
+107 0 -105 0 *
Ve
1e-07
0.044196 -0.00262221970055241 0
0 0

0101101
*
Ed
 1e-07 1 1 0
1  18 0 0 0.00740436982309834
2  35 18 0 0 0.00740436982309834
4 C0 18 0 5 0
2  36 5 0 0 0.00740436982309834
0

0101000
+105 0 -103 0 *
Ve
1e-07
0.03683 -0.00324802302844701 0
0 0

0101101
*
Ed
 1e-07 1 1 0
1  19 0 0 0.00739253581697133
2  37 19 0 0 0.00739253581697133
4 C0 19 0 5 0
2  38 5 0 0 0.00739253581697133
0

0101000
+103 0 -101 0 *
Ve
1e-07
0.029464 -0.00371504785942387 0
0 0

0101101
*
Ed
 1e-07 1 1 0
1  20 0 0 0.00738079048562882
2  39 20 0 0 0.00738079048562882
4 C0 20 0 5 0
2  40 5 0 0 0.00738079048562882
0

0101000
+101 0 -99 0 *
Ve
1e-07
0.022098 -0.00396169943028468 0
0 0

0101101
*
Ed
 1e-07 1 1 0
1  21 0 0 0.0073701284247568
2  41 21 0 0 0.0073701284247568
4 C0 21 0 5 0
2  42 5 0 0 0.0073701284247568
0

0101000
+99 0 -97 0 *
Ve
1e-07
0.014732 -0.00387677839011273 0
0 0

0101101
*
Ed
 1e-07 1 1 0
1  22 0 0 0.00736648950199916
2  43 22 0 0 0.00736648950199916
4 C0 22 0 5 0
2  44 5 0 0 0.00736648950199916
0

0101000
+97 0 -95 0 *
Ve
1e-07
0.007366 -0.00322189325004115 0
0 0

0101101
*
Ed
 1e-07 1 1 0
1  23 0 0 0.0073950544654307
2  45 23 0 0 0.0073950544654307
4 C0 23 0 5 0
2  46 5 0 0 0.0073950544654307
0

0101000
+95 0 -93 0 *
Ed
 1e-07 1 1 0
1  24 0 0 0.0080398104526575
2  47 8 0 0 0.0080398104526575
4 C0 8 0 5 0
2  48 5 0 0 0.0080398104526575
0

0101000
+93 0 -133 0 *
Wi

0101100
+131 0 +122 0 +120 0 +118 0 +116 0 +114 0 +112 0 +110 0 +108 0 +106 0 
+104 0 +102 0 +100 0 +98 0 +96 0 +94 0 +92 0 +91 0 *
Fa
0  1e-07 5 0

0101000
-90 0 *
Ve
1e-07
0.014732 0.00387677839011273 0
0 0

0101101
*
Ed
 1e-07 1 1 0
1  25 0 0 1
2  49 6 0 0 1
2  50 9 0 0 1
4 C0 6 0 9 0
0

0101000
+123 0 -88 2 *
Ed
 1e-07 1 1 0
1  26 0 0 0.0073950544654307
2  51 6 3 0 0.0073950544654307
4 C0 6 3 7 3
2  52 7 3 0 0.0073950544654307
0

0101000
+130 0 -88 0 *
Wi

0101000
+122 0 +87 0 -86 2 -129 0 *
Fa
0  1e-07 6 0

0101000
+85 0 *
Ve
1e-07
0.022098 0.00396169943028468 0
0 0

0101101
*
Ed
 1e-07 1 1 0
1  27 0 0 0.00736648950199916
2  53 9 3 0 0.00736648950199916
4 C0 9 3 7 3
2  54 7 3 0 0.00736648950199916
0

0101000
+88 0 -83 0 *
Ve
1e-07
0.029464 0.00371504785942387 0
0 0

0101101
*
Ed
 1e-07 1 1 0
1  28 0 0 0.0073701284247568
2  55 10 3 0 0.0073701284247568
4 C0 10 3 7 3
2  56 7 3 0 0.0073701284247568
0

0101000
+83 0 -81 0 *
Ve
1e-07
0.03683 0.00324802302844701 0
0 0

0101101
*
Ed
 1e-07 1 1 0
1  29 0 0 0.00738079048562882
2  57 11 3 0 0.00738079048562882
4 C0 11 3 7 3
2  58 7 3 0 0.00738079048562882
0

0101000
+81 0 -79 0 *
Ve
1e-07
0.044196 0.00262221970055241 0
0 0

0101101
*
Ed
 1e-07 1 1 0
1  30 0 0 0.00739253581697133
2  59 12 3 0 0.00739253581697133
4 C0 12 3 7 3
2  60 7 3 0 0.00739253581697133
0

0101000
+79 0 -77 0 *
Ve
1e-07
0.051562 0.00186940068032957 0
0 0

0101101
*
Ed
 1e-07 1 1 0
1  31 0 0 0.00740436982309834
2  61 13 3 0 0.00740436982309834
4 C0 13 3 7 3
2  62 7 3 0 0.00740436982309834
0

0101000
+77 0 -75 0 *
Ve
1e-07
0.058928 0.000998729865986787 0
0 0

0101101
*
Ed
 1e-07 1 1 0
1  32 0 0 0.00741727872382778
2  63 14 3 0 0.00741727872382778
4 C0 14 3 7 3
2  64 7 3 0 0.00741727872382778
0

0101000
+75 0 -73 0 *
Ve
1e-07
0.066294 -1.1040168779175e-18 0
0 0

0101101
*
Ed
 1e-07 1 1 0
1  33 0 0 0.00743339877480106
2  65 15 3 0 0.00743339877480106
4 C0 15 3 7 3
2  66 7 3 0 0.00743339877480106
0

0101000
+73 0 -71 0 *
Ve
1e-07
0.058928 -0.000998729865986787 0
0 0

0101101
*
Ed
 1e-07 1 1 0
1  34 0 0 0.00743339877480106
2  67 16 3 0 0.00743339877480106
4 C0 16 3 7 3
2  68 7 3 0 0.00743339877480106
0

0101000
+71 0 -69 0 *
Ve
1e-07
0.051562 -0.00186940068032957 0
0 0

0101101
*
Ed
 1e-07 1 1 0
1  35 0 0 0.00741727872382778
2  69 17 3 0 0.00741727872382778
4 C0 17 3 7 3
2  70 7 3 0 0.00741727872382778
0

0101000
+69 0 -67 0 *
Ve
1e-07
0.044196 -0.00262221970055241 0
0 0

0101101
*
Ed
 1e-07 1 1 0
1  36 0 0 0.00740436982309834
2  71 18 3 0 0.00740436982309834
4 C0 18 3 7 3
2  72 7 3 0 0.00740436982309834
0

0101000
+67 0 -65 0 *
Ve
1e-07
0.03683 -0.00324802302844701 0
0 0

0101101
*
Ed
 1e-07 1 1 0
1  37 0 0 0.00739253581697133
2  73 19 3 0 0.00739253581697133
4 C0 19 3 7 3
2  74 7 3 0 0.00739253581697133
0

0101000
+65 0 -63 0 *
Ve
1e-07
0.029464 -0.00371504785942387 0
0 0

0101101
*
Ed
 1e-07 1 1 0
1  38 0 0 0.00738079048562882
2  75 20 3 0 0.00738079048562882
4 C0 20 3 7 3
2  76 7 3 0 0.00738079048562882
0

0101000
+63 0 -61 0 *
Ve
1e-07
0.022098 -0.00396169943028468 0
0 0

0101101
*
Ed
 1e-07 1 1 0
1  39 0 0 0.0073701284247568
2  77 21 3 0 0.0073701284247568
4 C0 21 3 7 3
2  78 7 3 0 0.0073701284247568
0

0101000
+61 0 -59 0 *
Ve
1e-07
0.014732 -0.00387677839011273 0
0 0

0101101
*
Ed
 1e-07 1 1 0
1  40 0 0 0.00736648950199916
2  79 22 3 0 0.00736648950199916
4 C0 22 3 7 3
2  80 7 3 0 0.00736648950199916
0

0101000
+59 0 -57 0 *
Ve
1e-07
0.007366 -0.00322189325004115 0
0 0

0101101
*
Ed
 1e-07 1 1 0
1  41 0 0 0.0073950544654307
2  81 23 3 0 0.0073950544654307
4 C0 23 3 7 3
2  82 7 3 0 0.0073950544654307
0

0101000
+57 0 -55 0 *
Ed
 1e-07 1 1 0
1  42 0 0 0.0080398104526575
2  83 8 3 0 0.0080398104526575
4 C0 8 3 7 3
2  84 7 3 0 0.0080398104526575
0

0101000
+55 0 -128 0 *
Wi

0101100
+127 2 +86 2 +82 2 +80 2 +78 2 +76 2 +74 2 +72 2 +70 2 +68 2 
+66 2 +64 2 +62 2 +60 2 +58 2 +56 2 +54 2 +53 2 *
Fa
0  1e-07 7 0

0101000
-52 0 *
Ed
 1e-07 1 1 0
1  43 0 0 1
2  85 23 0 0 1
2  86 8 0 0 1
4 C0 23 0 8 0
0

0101000
+93 0 -55 2 *
Wi

0101000
+91 0 +126 0 -53 2 -50 0 *
Fa
0  1e-07 8 0

0111000
+49 0 *
Ed
 1e-07 1 1 0
1  44 0 0 1
2  87 9 0 0 1
2  88 10 0 0 1
4 C0 9 0 10 0
0

0101000
+121 0 -83 2 *
Wi

0101000
+120 0 +47 0 -82 2 -87 0 *
Fa
0  1e-07 9 0

0101000
+46 0 *
Ed
 1e-07 1 1 0
1  45 0 0 1
2  89 10 0 0 1
2  90 11 0 0 1
4 C0 10 0 11 0
0

0101000
+119 0 -81 2 *
Wi

0101000
+118 0 +44 0 -80 2 -47 0 *
Fa
0  1e-07 10 0

0101000
+43 0 *
Ed
 1e-07 1 1 0
1  46 0 0 1
2  91 11 0 0 1
2  92 12 0 0 1
4 C0 11 0 12 0
0

0101000
+117 0 -79 2 *
Wi

0101000
+116 0 +41 0 -78 2 -44 0 *
Fa
0  1e-07 11 0

0101000
+40 0 *
Ed
 1e-07 1 1 0
1  47 0 0 1
2  93 12 0 0 1
2  94 13 0 0 1
4 C0 12 0 13 0
0

0101000
+115 0 -77 2 *
Wi

0101000
+114 0 +38 0 -76 2 -41 0 *
Fa
0  1e-07 12 0

0101000
+37 0 *
Ed
 1e-07 1 1 0
1  48 0 0 1
2  95 13 0 0 1
2  96 14 0 0 1
4 C0 13 0 14 0
0

0101000
+113 0 -75 2 *
Wi

0101000
+112 0 +35 0 -74 2 -38 0 *
Fa
0  1e-07 13 0

0101000
+34 0 *
Ed
 1e-07 1 1 0
1  49 0 0 1
2  97 14 0 0 1
2  98 15 0 0 1
4 C0 14 0 15 0
0

0101000
+111 0 -73 2 *
Wi

0101000
+110 0 +32 0 -72 2 -35 0 *
Fa
0  1e-07 14 0

0101000
+31 0 *
Ed
 1e-07 1 1 0
1  50 0 0 1
2  99 15 0 0 1
2  100 16 0 0 1
4 C0 15 0 16 0
0

0101000
+109 0 -71 2 *
Wi

0101000
+108 0 +29 0 -70 2 -32 0 *
Fa
0  1e-07 15 0

0101000
+28 0 *
Ed
 1e-07 1 1 0
1  51 0 0 1
2  101 16 0 0 1
2  102 17 0 0 1
4 C0 16 0 17 0
0

0101000
+107 0 -69 2 *
Wi

0101000
+106 0 +26 0 -68 2 -29 0 *
Fa
0  1e-07 16 0

0101000
+25 0 *
Ed
 1e-07 1 1 0
1  52 0 0 1
2  103 17 0 0 1
2  104 18 0 0 1
4 C0 17 0 18 0
0

0101000
+105 0 -67 2 *
Wi

0101000
+104 0 +23 0 -66 2 -26 0 *
Fa
0  1e-07 17 0

0101000
+22 0 *
Ed
 1e-07 1 1 0
1  53 0 0 1
2  105 18 0 0 1
2  106 19 0 0 1
4 C0 18 0 19 0
0

0101000
+103 0 -65 2 *
Wi

0101000
+102 0 +20 0 -64 2 -23 0 *
Fa
0  1e-07 18 0

0101000
+19 0 *
Ed
 1e-07 1 1 0
1  54 0 0 1
2  107 19 0 0 1
2  108 20 0 0 1
4 C0 19 0 20 0
0

0101000
+101 0 -63 2 *
Wi

0101000
+100 0 +17 0 -62 2 -20 0 *
Fa
0  1e-07 19 0

0101000
+16 0 *
Ed
 1e-07 1 1 0
1  55 0 0 1
2  109 20 0 0 1
2  110 21 0 0 1
4 C0 20 0 21 0
0

0101000
+99 0 -61 2 *
Wi

0101000
+98 0 +14 0 -60 2 -17 0 *
Fa
0  1e-07 20 0

0101000
+13 0 *
Ed
 1e-07 1 1 0
1  56 0 0 1
2  111 21 0 0 1
2  112 22 0 0 1
4 C0 21 0 22 0
0

0101000
+97 0 -59 2 *
Wi

0101000
+96 0 +11 0 -58 2 -14 0 *
Fa
0  1e-07 21 0

0101000
+10 0 *
Ed
 1e-07 1 1 0
1  57 0 0 1
2  113 22 0 0 1
2  114 23 0 0 1
4 C0 22 0 23 0
0

0101000
+95 0 -57 2 *
Wi

0101000
+94 0 +8 0 -56 2 -11 0 *
Fa
0  1e-07 22 0

0101000
+7 0 *
Wi

0101000
+92 0 +50 0 -54 2 -8 0 *
Fa
0  1e-07 23 0

0101000
+5 0 *
Sh

0101100
+124 1 +89 1 +84 1 -51 1 +48 1 +45 1 +42 1 +39 1 +36 1 +33 1 
+30 1 +27 1 +24 1 +21 1 +18 1 +15 1 +12 1 +9 1 +6 1 +4 1 
*
So

0100000
+134 0 +3 0 *
Co

1100000
+2 0 *

+1 0 