DBRep_DrawableShape

CASCADE Topology V1, (c) Matra-Datavision
Locations 5
1
-4.44089209850063e-16 9.86076131526265e-32              -1 1.55609125287932 
             -1               0 4.44089209850063e-16        0.033147 
4.37905770101505e-47               1 9.86076131526265e-32 0.321786838257386 
1
0.997564050259824 0.0697564737441253               0               0 
-0.0697564737441253 0.997564050259824              -0               0 
             -0               0               1               0 
2  2 -1 0
1
0.978147600733806 0.207911690817759               0               0 
-0.207911690817759 0.978147600733806              -0               0 
             -0               0               1      0.65401952 
2  4 -1 0
Curve2ds 114
1 0 1.3258799999999997 1 0 
2 0 0 1 0 -0 1 0.66293999999999986
1 6.2831853071795862 -0 0 1 
1 0 -0 0 1 
1 0 0 1 0 
2 0 0 1 0 -0 1 0.66293999999999986
1 0 0 1 0 
1 0 0 0.91619075392072546 0.40074243901809659 
1 0.0080398104526574962 0 0 1 
1 0 0 0 1 
1 0 1 1 0 
1 0 -0 0.91619075392072546 -0.40074243901809659 
1 0 0 0 1 
1 0.0080398104526574962 0 0 1 
1 0 0 1 0 
1 0.0073660000000000002 0.0032218932500411523 0.9960710951397963 0.088557176033380355 
1 0 0 1 0 
1 0.014732 0.0038767783901127346 0.99993355016673402 0.011528020252916845 
1 0 0 1 0 
1 0.022098 0.0039616994302846794 0.99943984357953275 -0.033466387102874737 
1 0 0 1 0 
1 0.029464000000000001 0.0037150478594238688 0.99799608379920524 -0.063275719841418512 
1 0 0 1 0 
1 0.036829999999999995 0.0032480230284470117 0.99641045811230167 -0.084653404919313266 
1 0 0 1 0 
1 0.044196000000000013 0.0026222197005524115 0.99481794885789765 -0.10167226086876102 
1 0 0 1 0 
1 0.051562000000000004 0.0018694006803295761 0.99308658529130722 -0.11738413059034497 
1 0 0 1 0 
1 0.058928000000000008 0.0009987298659867882 0.9909329800750708 -0.13435709508447793 
1 0 0 1 0 
1 0.066294000000000006 8.6736173798840355e-19 -0.99093298007507091 -0.13435709508447768 
1 0 0 1 0 
1 0.058928000000000001 -0.0009987298659867869 -0.99308658529130733 -0.11738413059034503 
1 0 0 1 0 
1 0.051561999999999997 -0.0018694006803295746 -0.99481794885789776 -0.10167226086876105 
1 0 0 1 0 
1 0.044195999999999999 -0.0026222197005524111 -0.99641045811230178 -0.084653404919313294 
1 0 0 1 0 
1 0.036830000000000002 -0.0032480230284470113 -0.99799608379920535 -0.063275719841418554 
1 0 0 1 0 
1 0.029464000000000001 -0.0037150478594238675 -0.99943984357953264 -0.033466387102874778 
1 0 0 1 0 
1 0.022098000000000003 -0.0039616994302846802 -0.99993355016673413 0.011528020252916812 
1 0 0 1 0 
1 0.014732000000000002 -0.0038767783901127338 -0.9960710951397963 0.088557176033380328 
1 0 0 1 0 
1 0.007366000000000001 -0.0032218932500411523 -0.91619075392072546 0.40074243901809659 
1 0.0073950544654307017 0 0 1 
1 0 0 0 1 
1 0 1 1 0 
1 0.0073660000000000002 -0.0032218932500411527 0.99607109513979619 -0.088557176033380355 
1 0 1 1 0 
1 0.014732 -0.0038767783901127338 0.99993355016673413 -0.011528020252916826 
1 0 1 1 0 
1 0.022098000000000003 -0.0039616994302846794 0.99943984357953264 0.033466387102874751 
1 0 1 1 0 
1 0.029464000000000001 -0.0037150478594238688 0.99799608379920524 0.063275719841418568 
1 0 1 1 0 
1 0.036830000000000002 -0.0032480230284470122 0.99641045811230167 0.084653404919313308 
1 0 1 1 0 
1 0.044196000000000006 -0.0026222197005524098 0.99481794885789765 0.10167226086876105 
1 0 1 1 0 
1 0.051561999999999997 -0.0018694006803295742 0.99308658529130733 0.11738413059034503 
1 0 1 1 0 
1 0.058927999999999994 -0.00099872986598678777 0.9909329800750708 0.13435709508447791 
1 0 1 1 0 
1 0.066294000000000006 0 -0.9909329800750708 0.13435709508447768 
1 0 1 1 0 
1 0.058928000000000001 0.00099872986598678604 -0.99308658529130733 0.117384130590345 
1 0 1 1 0 
1 0.051561999999999997 0.0018694006803295759 -0.99481794885789776 0.10167226086876102 
1 0 1 1 0 
1 0.044195999999999999 0.0026222197005524115 -0.99641045811230167 0.084653404919313266 
1 0 1 1 0 
1 0.036829999999999995 0.0032480230284470113 -0.99799608379920524 0.063275719841418498 
1 0 1 1 0 
1 0.029463999999999997 0.0037150478594238688 -0.99943984357953264 0.033466387102874751 
1 0 1 1 0 
1 0.022098000000000003 0.0039616994302846794 -0.99993355016673413 -0.011528020252916799 
1 0 1 1 0 
1 0.014732 0.0038767783901127346 -0.99607109513979619 -0.088557176033380369 
1 0 1 1 0 
1 0.0073660000000000002 0.0032218932500411518 -0.91619075392072535 -0.40074243901809647 
1 0.0073950544654307017 0 0 1 
1 0 0 0 1 
1 0.0073664895019991648 0 0 1 
1 0 0 0 1 
1 0.0073701284247567949 0 0 1 
1 0 0 0 1 
1 0.0073807904856288209 0 0 1 
1 0 0 0 1 
1 0.0073925358169713339 0 0 1 
1 0 0 0 1 
1 0.0074043698230983326 0 0 1 
1 0 0 0 1 
1 0.0074172787238277827 0 0 1 
1 0 0 0 1 
1 0.0074333987748010635 0 0 1 
1 0 0 0 1 
1 0.0074333987748010635 0 0 1 
1 0 0 0 1 
1 0.0074172787238277827 0 0 1 
1 0 0 0 1 
1 0.0074043698230983326 0 0 1 
1 0 0 0 1 
1 0.0073925358169713339 0 0 1 
1 0 0 0 1 
1 0.0073807904856288209 0 0 1 
1 0 0 0 1 
1 0.0073701284247567949 0 0 1 
1 0 0 0 1 
1 0.0073664895019991648 0 0 1 
1 0 0 0 1 
Curves 57
2 1.8920214928793186 0 0.32178683825738608 1 0 0 -0 0 1 0 -1 0 0.66293999999999986
1 0.56614149287931892 1.6237346980534922e-16 0.98472683825738594 1 0 0 
2 0.56614149287931892 0 0.32178683825738608 1 0 0 -0 0 1 0 -1 0 0.66293999999999986
1 0 0 0 0.91619075392072535 0.40074243901809653 0 
7 0 0  1 2 2  0.0075728047061167361 0.0027002186944166131 0  0.0078749045002555942 0.001620009637784581 0.65401951999999997 
 0 2 1 2
1 0 0 0 0.91619075392072535 0.40074243901809653 0 
7 0 0  1 2 2  0 0 0  0 0 0.65401951999999997 
 0 2 1 2
1 0.0073659999999999993 0.0032218932500411518 0 0.99607109513979619 0.088557176033380328 0 
1 0.014731999999999999 0.0038767783901127338 0 0.99993355016673402 0.01152802025291683 0 
1 0.022098 0.0039616994302846794 0 0.99943984357953253 -0.033466387102874751 0 
1 0.029463999999999997 0.003715047859423868 0 0.99799608379920524 -0.063275719841418526 0 
1 0.036829999999999995 0.0032480230284470113 0 0.99641045811230156 -0.084653404919313266 0 
1 0.044195999999999999 0.0026222197005524106 0 0.99481794885789765 -0.10167226086876102 0 
1 0.051561999999999997 0.001869400680329575 0 0.99308658529130722 -0.117384130590345 0 
1 0.058927999999999994 0.00099872986598678712 0 0.99093298007507069 -0.13435709508447793 0 
1 0.066293999999999992 -1.1040168779175016e-18 0 -0.99093298007507069 -0.13435709508447763 0 
1 0.058927999999999994 -0.00099872986598678712 0 -0.99308658529130722 -0.117384130590345 0 
1 0.051561999999999997 -0.001869400680329575 0 -0.99481794885789765 -0.10167226086876102 0 
1 0.044195999999999999 -0.0026222197005524106 0 -0.99641045811230156 -0.084653404919313266 0 
1 0.036829999999999995 -0.0032480230284470113 0 -0.99799608379920524 -0.063275719841418526 0 
1 0.029463999999999997 -0.003715047859423868 0 -0.99943984357953253 -0.033466387102874751 0 
1 0.022098 -0.0039616994302846794 0 -0.99993355016673402 0.01152802025291683 0 
1 0.014731999999999999 -0.0038767783901127338 0 -0.99607109513979619 0.088557176033380328 0 
1 0.0073659999999999993 -0.0032218932500411518 0 -0.91619075392072535 0.40074243901809653 0 
7 0 0  1 2 2  0.014966543978409422 0.0028396823816021657 0  0.015216098004024514 0.00072910645173820672 0.65401951999999997 
 0 2 1 2
1 0.0073659999999999993 0.0032218932500411518 0 0.99607109513979619 0.088557176033380328 0 
1 0.014731999999999999 0.0038767783901127338 0 0.99993355016673402 0.01152802025291683 0 
1 0.022098 0.0039616994302846794 0 0.99943984357953253 -0.033466387102874751 0 
1 0.029463999999999997 0.003715047859423868 0 0.99799608379920524 -0.063275719841418526 0 
1 0.036829999999999995 0.0032480230284470113 0 0.99641045811230156 -0.084653404919313266 0 
1 0.044195999999999999 0.0026222197005524106 0 0.99481794885789765 -0.10167226086876102 0 
1 0.051561999999999997 0.001869400680329575 0 0.99308658529130722 -0.117384130590345 0 
1 0.058927999999999994 0.00099872986598678712 0 0.99093298007507069 -0.13435709508447793 0 
1 0.066293999999999992 -1.1040168779175016e-18 0 -0.99093298007507069 -0.13435709508447763 0 
1 0.058927999999999994 -0.00099872986598678712 0 -0.99308658529130722 -0.117384130590345 0 
1 0.051561999999999997 -0.001869400680329575 0 -0.99481794885789765 -0.10167226086876102 0 
1 0.044195999999999999 -0.0026222197005524106 0 -0.99641045811230156 -0.084653404919313266 0 
1 0.036829999999999995 -0.0032480230284470113 0 -0.99799608379920524 -0.063275719841418526 0 
1 0.029463999999999997 -0.003715047859423868 0 -0.99943984357953253 -0.033466387102874751 0 
1 0.022098 -0.0039616994302846794 0 -0.99993355016673402 0.01152802025291683 0 
1 0.014731999999999999 -0.0038767783901127338 0 -0.99607109513979619 0.088557176033380328 0 
1 0.0073659999999999993 -0.0032218932500411518 0 -0.91619075392072535 0.40074243901809653 0 
7 0 0  1 2 2  0.0071233088823109952 -0.0037278710656150674 0  0.0065351659537548311 -0.0046829646669118118 0.65401951999999997 
 0 2 1 2
7 0 0  1 2 2  0.022320524564932366 0.0024105703727891423 0  0.02243878930807788 -0.00071930575112940124 0.65401951999999997 
 0 2 1 2
7 0 0  1 2 2  0.029651375815319531 0.0016506934471590554 0  0.029592542789942562 -0.0024920449079477436 0.65401951999999997 
 0 2 1 2
7 0 0  1 2 2  0.036966854604173503 0.00067098007959864587 0  0.036700478094685497 -0.0044803416404144807 0.65401951999999997 
 0 2 1 2
7 0 0  1 2 2  0.044271257564976102 -0.00046712500844119597 0  0.043775401493668764 -0.0066239471786894311 0.65401951999999997 
 0 2 1 2
7 0 0  1 2 2  0.051566800358971723 -0.0017319363849665477 0  0.050823916845299681 -0.0088917928116707887 0.65401951999999997 
 0 2 1 2
7 0 0  1 2 2  0.058854122227385099 -0.0031143124745645857 0  0.057847929431149199 -0.011274914894312749 0.65401951999999997 
 0 2 1 2
7 0 0  1 2 2  0.066132511147924788 -0.0046244356703930446 0  0.064845317043046899 -0.013783297631072534 0.65401951999999997 
 0 2 1 2
7 0 0  1 2 2  0.058714786480036744 -0.0051069064950230465 0  0.057432634200934196 -0.013228725338705092 0.65401951999999997 
 0 2 1 2
7 0 0  1 2 2  0.051305994760022393 -0.0054616302134226314 0  0.05004657633277329 -0.012548892392219822 0.65401951999999997 
 0 2 1 2
7 0 0  1 2 2  0.043905423965590273 -0.005698789218749529 0  0.042685021230393784 -0.01175378299607395 0.65401951999999997 
 0 2 1 2
7 0 0  1 2 2  0.036513713337965145 -0.0058092419355909161 0  0.03534987417536662 -0.010834433505221669 0.65401951999999997 
 0 2 1 2
7 0 0  1 2 2  0.02913307853839139 -0.0057613029319528719 0  0.028047739026099132 -0.0097597752085611771 0.65401951999999997 
 0 2 1 2
7 0 0  1 2 2  0.021767816200350829 -0.0054935274863845036 0  0.020791422053953394 -0.0084695593362522897 0.65401951999999997 
 0 2 1 2
7 0 0  1 2 2  0.014425683198446039 -0.004894987123999074 0  0.013604042903996336 -0.0068550165099926664 0.65401951999999997 
 0 2 1 2
Polygon3D 0
PolygonOnTriangulations 0
Surfaces 23
2 0.56614149287931892 0 0.32178683825738608 1 0 0 -0 0 1 0 -1 0 0.66293999999999986
1 1.8920214928793186 0 0.32178683825738608 1 0 0 -0 0 1 0 -1 0 
1 0.56614149287931892 0 0.32178683825738608 1 0 0 -0 0 1 0 -1 0 
9 0 0 0 0 1 1 2 2 2 2 0 0 0  0 0 0.65401951999999997  
0.0075728047061167361 0.0027002186944166131 0  0.0078749045002555942 0.001620009637784581 0.65401951999999997  

0 2
0.0080398104526574962 2

0 2
1 2

1 0 0 0 -0 0 1 0.99756405025982431 -0.06975647374412533 0 0.06975647374412533 0.99756405025982431 0 
9 0 0 0 0 1 1 2 2 2 2 0.0075728047061167352 0.0027002186944166131 0  0.0078749045002555942 0.0016200096377845814 0.65401951999999997  
0.014966543978409422 0.0028396823816021657 0  0.015216098004024514 0.00072910645173820672 0.65401951999999997  

0 2
0.0073950544654307017 2

0 2
1 2

1 0 0 0.65401951999999997 0 0 -1 0.97814760073380569 -0.20791169081775931 0 -0.20791169081775931 -0.97814760073380569 -0 
9 0 0 0 0 1 1 2 2 2 2 0.0071233088823109952 -0.0037278710656150674 0  0.0065351659537548302 -0.0046829646669118109 0.65401951999999997  
0 0 0  -8.6736173798840355e-19 8.6736173798840355e-19 0.65401951999999997  

0 2
0.0080398104526574962 2

0 2
1 2

9 0 0 0 0 1 1 2 2 2 2 0.014966543978409422 0.0028396823816021662 0  0.015216098004024512 0.0007291064517382065 0.65401951999999997  
0.022320524564932366 0.0024105703727891423 0  0.02243878930807788 -0.00071930575112940124 0.65401951999999997  

0 2
0.0073664895019991648 2

0 2
1 2

9 0 0 0 0 1 1 2 2 2 2 0.022320524564932366 0.0024105703727891415 0  0.02243878930807788 -0.00071930575112940168 0.65401951999999997  
0.029651375815319531 0.0016506934471590554 0  0.029592542789942562 -0.0024920449079477436 0.65401951999999997  

0 2
0.0073701284247567949 2

0 2
1 2

9 0 0 0 0 1 1 2 2 2 2 0.029651375815319531 0.0016506934471590558 0  0.029592542789942562 -0.0024920449079477423 0.65401951999999997  
0.036966854604173503 0.00067098007959864587 0  0.036700478094685497 -0.0044803416404144807 0.65401951999999997  

0 2
0.0073807904856288209 2

0 2
1 2

9 0 0 0 0 1 1 2 2 2 2 0.036966854604173496 0.00067098007959864609 0  0.036700478094685497 -0.0044803416404144807 0.65401951999999997  
0.044271257564976102 -0.00046712500844119597 0  0.043775401493668764 -0.0066239471786894311 0.65401951999999997  

0 2
0.0073925358169713339 2

0 2
1 2

9 0 0 0 0 1 1 2 2 2 2 0.044271257564976109 -0.00046712500844119619 0  0.043775401493668771 -0.0066239471786894329 0.65401951999999997  
0.051566800358971723 -0.0017319363849665477 0  0.050823916845299681 -0.0088917928116707887 0.65401951999999997  

0 2
0.0074043698230983326 2

0 2
1 2

9 0 0 0 0 1 1 2 2 2 2 0.051566800358971716 -0.0017319363849665475 0  0.050823916845299674 -0.0088917928116707869 0.65401951999999997  
0.058854122227385099 -0.0031143124745645857 0  0.057847929431149199 -0.011274914894312749 0.65401951999999997  

0 2
0.0074172787238277827 2

0 2
1 2

9 0 0 0 0 1 1 2 2 2 2 0.058854122227385106 -0.0031143124745645857 0  0.057847929431149199 -0.011274914894312748 0.65401951999999997  
0.066132511147924788 -0.0046244356703930446 0  0.064845317043046899 -0.013783297631072534 0.65401951999999997  

0 2
0.0074333987748010635 2

0 2
1 2

9 0 0 0 0 1 1 2 2 2 2 0.066132511147924788 -0.0046244356703930437 0  0.064845317043046913 -0.013783297631072536 0.65401951999999997  
0.058714786480036744 -0.0051069064950230465 0  0.057432634200934196 -0.013228725338705092 0.65401951999999997  

0 2
0.0074333987748010635 2

0 2
1 2

9 0 0 0 0 1 1 2 2 2 2 0.058714786480036738 -0.0051069064950230473 0  0.057432634200934189 -0.01322872533870509 0.65401951999999997  
0.051305994760022393 -0.0054616302134226314 0  0.05004657633277329 -0.012548892392219822 0.65401951999999997  

0 2
0.0074172787238277827 2

0 2
1 2

9 0 0 0 0 1 1 2 2 2 2 0.051305994760022393 -0.0054616302134226314 0  0.05004657633277329 -0.012548892392219823 0.65401951999999997  
0.043905423965590273 -0.005698789218749529 0  0.042685021230393784 -0.01175378299607395 0.65401951999999997  

0 2
0.0074043698230983326 2

0 2
1 2

9 0 0 0 0 1 1 2 2 2 2 0.04390542396559028 -0.005698789218749529 0  0.042685021230393784 -0.01175378299607395 0.65401951999999997  
0.036513713337965145 -0.0058092419355909161 0  0.03534987417536662 -0.010834433505221669 0.65401951999999997  

0 2
0.0073925358169713339 2

0 2
1 2

9 0 0 0 0 1 1 2 2 2 2 0.036513713337965145 -0.0058092419355909161 0  0.03534987417536662 -0.010834433505221668 0.65401951999999997  
0.02913307853839139 -0.0057613029319528719 0  0.028047739026099132 -0.0097597752085611771 0.65401951999999997  

0 2
0.0073807904856288209 2

0 2
1 2

9 0 0 0 0 1 1 2 2 2 2 0.02913307853839139 -0.0057613029319528719 0  0.028047739026099132 -0.0097597752085611771 0.65401951999999997  
0.021767816200350829 -0.0054935274863845036 0  0.020791422053953394 -0.0084695593362522897 0.65401951999999997  

0 2
0.0073701284247567949 2

0 2
1 2

9 0 0 0 0 1 1 2 2 2 2 0.021767816200350829 -0.0054935274863845045 0  0.020791422053953398 -0.0084695593362522897 0.65401951999999997  
0.014425683198446039 -0.004894987123999074 0  0.013604042903996336 -0.0068550165099926664 0.65401951999999997  

0 2
0.0073664895019991648 2

0 2
1 2

9 0 0 0 0 1 1 2 2 2 2 0.014425683198446039 -0.004894987123999074 0  0.013604042903996335 -0.0068550165099926664 0.65401951999999997  
0.0071233088823109952 -0.0037278710656150674 0  0.0065351659537548311 -0.0046829646669118118 0.65401951999999997  

0 2
0.0073950544654307017 2

0 2
1 2

Triangulations 0

TShapes 145
Ve
1e-07
1.89202149287932 1.62373469805349e-16 0.984726838257386
0 0

0101101
*
Ed
 1e-07 1 1 0
1  1 0 0 6.28318530717959
2  1 1 0 0 6.28318530717959
2  2 2 0 0 6.28318530717959
0

0101000
+145 0 -145 0 *
Ve
1e-07
0.566141492879319 1.62373469805349e-16 0.984726838257386
0 0

0101101
*
Ed
 1e-07 1 1 0
1  2 0 0 1.32588
3  3 4CN 1 0 0 1.32588
0

0101000
-145 0 +143 0 *
Ed
 1e-07 1 1 0
1  3 0 0 6.28318530717959
2  5 1 0 0 6.28318530717959
2  6 3 0 0 6.28318530717959
0

0101000
+143 0 -143 0 *
Wi

0101100
-144 0 +142 0 +141 0 -142 0 *
Fa
0  1e-07 1 0

0111000
+140 0 *
Wi

0101100
+144 0 *
Fa
0  1e-07 2 0

0111000
+138 0 *
Wi

0101100
-141 0 *
Fa
0  1e-07 3 0

0111000
-136 0 *
Sh

0101100
+139 0 +137 0 -135 0 *
Ve
1e-07
0 0 0
0 0

0101101
*
Ve
1e-07
0.007366 0.00322189325004115 0
0 0

0101101
*
Ed
 1e-07 1 1 0
1  4 0 0 0.0080398104526575
2  7 4 3 0 0.0080398104526575
4 C0 4 3 5 3
2  8 5 3 0 0.0080398104526575
0

0101000
+133 0 -132 0 *
Ve
1e-07
0.007366 0.00322189325004115 0
0 0

0101101
*
Ed
 1e-07 1 1 0
1  5 0 0 1
2  9 4 0 0 1
2  10 6 0 0 1
4 C0 4 0 6 0
0

0101000
+132 2 -130 4 *
Ve
1e-07
0 0 0
0 0

0101101
*
Ed
 1e-07 1 1 0
1  6 0 0 0.0080398104526575
2  11 4 5 0 0.0080398104526575
4 C0 4 5 7 5
2  12 7 5 0 0.0080398104526575
0

0101000
+128 0 -130 0 *
Ed
 1e-07 1 1 0
1  7 0 0 1
2  13 4 0 0 1
2  14 8 0 0 1
4 C0 4 0 8 0
0

0101000
+133 2 -128 4 *
Wi

0101000
+131 2 +129 0 -127 4 -126 0 *
Fa
0  1e-07 4 0

0111000
+125 0 *
Ve
1e-07
0.014732 0.00387677839011273 0
0 0

0101101
*
Ed
 1e-07 1 1 0
1  8 0 0 0.0073950544654307
2  15 6 3 0 0.0073950544654307
4 C0 6 3 5 3
2  16 5 3 0 0.0073950544654307
0

0101000
+132 0 -123 0 *
Ve
1e-07
0.022098 0.00396169943028468 0
0 0

0101101
*
Ed
 1e-07 1 1 0
1  9 0 0 0.00736648950199916
2  17 9 3 0 0.00736648950199916
4 C0 9 3 5 3
2  18 5 3 0 0.00736648950199916
0

0101000
+123 0 -121 0 *
Ve
1e-07
0.029464 0.00371504785942387 0
0 0

0101101
*
Ed
 1e-07 1 1 0
1  10 0 0 0.00737012842475679
2  19 10 3 0 0.00737012842475679
4 C0 10 3 5 3
2  20 5 3 0 0.00737012842475679
0

0101000
+121 0 -119 0 *
Ve
1e-07
0.03683 0.00324802302844701 0
0 0

0101101
*
Ed
 1e-07 1 1 0
1  11 0 0 0.00738079048562882
2  21 11 3 0 0.00738079048562882
4 C0 11 3 5 3
2  22 5 3 0 0.00738079048562882
0

0101000
+119 0 -117 0 *
Ve
1e-07
0.044196 0.00262221970055241 0
0 0

0101101
*
Ed
 1e-07 1 1 0
1  12 0 0 0.00739253581697133
2  23 12 3 0 0.00739253581697133
4 C0 12 3 5 3
2  24 5 3 0 0.00739253581697133
0

0101000
+117 0 -115 0 *
Ve
1e-07
0.051562 0.00186940068032958 0
0 0

0101101
*
Ed
 1e-07 1 1 0
1  13 0 0 0.00740436982309833
2  25 13 3 0 0.00740436982309833
4 C0 13 3 5 3
2  26 5 3 0 0.00740436982309833
0

0101000
+115 0 -113 0 *
Ve
1e-07
0.058928 0.000998729865986787 0
0 0

0101101
*
Ed
 1e-07 1 1 0
1  14 0 0 0.00741727872382778
2  27 14 3 0 0.00741727872382778
4 C0 14 3 5 3
2  28 5 3 0 0.00741727872382778
0

0101000
+113 0 -111 0 *
Ve
1e-07
0.066294 -1.1040168779175e-18 0
0 0

0101101
*
Ed
 1e-07 1 1 0
1  15 0 0 0.00743339877480106
2  29 15 3 0 0.00743339877480106
4 C0 15 3 5 3
2  30 5 3 0 0.00743339877480106
0

0101000
+111 0 -109 0 *
Ve
1e-07
0.058928 -0.000998729865986787 0
0 0

0101101
*
Ed
 1e-07 1 1 0
1  16 0 0 0.00743339877480106
2  31 16 3 0 0.00743339877480106
4 C0 16 3 5 3
2  32 5 3 0 0.00743339877480106
0

0101000
+109 0 -107 0 *
Ve
1e-07
0.051562 -0.00186940068032958 0
0 0

0101101
*
Ed
 1e-07 1 1 0
1  17 0 0 0.00741727872382778
2  33 17 3 0 0.00741727872382778
4 C0 17 3 5 3
2  34 5 3 0 0.00741727872382778
0

0101000
+107 0 -105 0 *
Ve
1e-07
0.044196 -0.00262221970055241 0
0 0

0101101
*
Ed
 1e-07 1 1 0
1  18 0 0 0.00740436982309833
2  35 18 3 0 0.00740436982309833
4 C0 18 3 5 3
2  36 5 3 0 0.00740436982309833
0

0101000
+105 0 -103 0 *
Ve
1e-07
0.03683 -0.00324802302844701 0
0 0

0101101
*
Ed
 1e-07 1 1 0
1  19 0 0 0.00739253581697133
2  37 19 3 0 0.00739253581697133
4 C0 19 3 5 3
2  38 5 3 0 0.00739253581697133
0

0101000
+103 0 -101 0 *
Ve
1e-07
0.029464 -0.00371504785942387 0
0 0

0101101
*
Ed
 1e-07 1 1 0
1  20 0 0 0.00738079048562882
2  39 20 3 0 0.00738079048562882
4 C0 20 3 5 3
2  40 5 3 0 0.00738079048562882
0

0101000
+101 0 -99 0 *
Ve
1e-07
0.022098 -0.00396169943028468 0
0 0

0101101
*
Ed
 1e-07 1 1 0
1  21 0 0 0.00737012842475679
2  41 21 3 0 0.00737012842475679
4 C0 21 3 5 3
2  42 5 3 0 0.00737012842475679
0

0101000
+99 0 -97 0 *
Ve
1e-07
0.014732 -0.00387677839011273 0
0 0

0101101
*
Ed
 1e-07 1 1 0
1  22 0 0 0.00736648950199916
2  43 22 3 0 0.00736648950199916
4 C0 22 3 5 3
2  44 5 3 0 0.00736648950199916
0

0101000
+97 0 -95 0 *
Ve
1e-07
0.007366 -0.00322189325004115 0
0 0

0101101
*
Ed
 1e-07 1 1 0
1  23 0 0 0.0073950544654307
2  45 23 3 0 0.0073950544654307
4 C0 23 3 5 3
2  46 5 3 0 0.0073950544654307
0

0101000
+95 0 -93 0 *
Ed
 1e-07 1 1 0
1  24 0 0 0.0080398104526575
2  47 8 3 0 0.0080398104526575
4 C0 8 3 5 3
2  48 5 3 0 0.0080398104526575
0

0101000
+93 0 -133 0 *
Wi

0101100
+131 0 +122 0 +120 0 +118 0 +116 0 +114 0 +112 0 +110 0 +108 0 +106 0 
+104 0 +102 0 +100 0 +98 0 +96 0 +94 0 +92 0 +91 0 *
Fa
0  1e-07 5 0

0101000
-90 2 *
Ve
1e-07
0.014732 0.00387677839011273 0
0 0

0101101
*
Ed
 1e-07 1 1 0
1  25 0 0 1
2  49 6 0 0 1
2  50 9 0 0 1
4 C0 6 0 9 0
0

0101000
+123 2 -88 4 *
Ed
 1e-07 1 1 0
1  26 0 0 0.0073950544654307
2  51 6 5 0 0.0073950544654307
4 C0 6 5 7 5
2  52 7 5 0 0.0073950544654307
0

0101000
+130 0 -88 0 *
Wi

0101000
+122 2 +87 0 -86 4 -129 0 *
Fa
0  1e-07 6 0

0101000
+85 0 *
Ve
1e-07
0.022098 0.00396169943028468 0
0 0

0101101
*
Ed
 1e-07 1 1 0
1  27 0 0 0.00736648950199916
2  53 9 5 0 0.00736648950199916
4 C0 9 5 7 5
2  54 7 5 0 0.00736648950199916
0

0101000
+88 0 -83 0 *
Ve
1e-07
0.029464 0.00371504785942387 0
0 0

0101101
*
Ed
 1e-07 1 1 0
1  28 0 0 0.00737012842475679
2  55 10 5 0 0.00737012842475679
4 C0 10 5 7 5
2  56 7 5 0 0.00737012842475679
0

0101000
+83 0 -81 0 *
Ve
1e-07
0.03683 0.00324802302844701 0
0 0

0101101
*
Ed
 1e-07 1 1 0
1  29 0 0 0.00738079048562882
2  57 11 5 0 0.00738079048562882
4 C0 11 5 7 5
2  58 7 5 0 0.00738079048562882
0

0101000
+81 0 -79 0 *
Ve
1e-07
0.044196 0.00262221970055241 0
0 0

0101101
*
Ed
 1e-07 1 1 0
1  30 0 0 0.00739253581697133
2  59 12 5 0 0.00739253581697133
4 C0 12 5 7 5
2  60 7 5 0 0.00739253581697133
0

0101000
+79 0 -77 0 *
Ve
1e-07
0.051562 0.00186940068032958 0
0 0

0101101
*
Ed
 1e-07 1 1 0
1  31 0 0 0.00740436982309833
2  61 13 5 0 0.00740436982309833
4 C0 13 5 7 5
2  62 7 5 0 0.00740436982309833
0

0101000
+77 0 -75 0 *
Ve
1e-07
0.058928 0.000998729865986787 0
0 0

0101101
*
Ed
 1e-07 1 1 0
1  32 0 0 0.00741727872382778
2  63 14 5 0 0.00741727872382778
4 C0 14 5 7 5
2  64 7 5 0 0.00741727872382778
0

0101000
+75 0 -73 0 *
Ve
1e-07
0.066294 -1.1040168779175e-18 0
0 0

0101101
*
Ed
 1e-07 1 1 0
1  33 0 0 0.00743339877480106
2  65 15 5 0 0.00743339877480106
4 C0 15 5 7 5
2  66 7 5 0 0.00743339877480106
0

0101000
+73 0 -71 0 *
Ve
1e-07
0.058928 -0.000998729865986787 0
0 0

0101101
*
Ed
 1e-07 1 1 0
1  34 0 0 0.00743339877480106
2  67 16 5 0 0.00743339877480106
4 C0 16 5 7 5
2  68 7 5 0 0.00743339877480106
0

0101000
+71 0 -69 0 *
Ve
1e-07
0.051562 -0.00186940068032958 0
0 0

0101101
*
Ed
 1e-07 1 1 0
1  35 0 0 0.00741727872382778
2  69 17 5 0 0.00741727872382778
4 C0 17 5 7 5
2  70 7 5 0 0.00741727872382778
0

0101000
+69 0 -67 0 *
Ve
1e-07
0.044196 -0.00262221970055241 0
0 0

0101101
*
Ed
 1e-07 1 1 0
1  36 0 0 0.00740436982309833
2  71 18 5 0 0.00740436982309833
4 C0 18 5 7 5
2  72 7 5 0 0.00740436982309833
0

0101000
+67 0 -65 0 *
Ve
1e-07
0.03683 -0.00324802302844701 0
0 0

0101101
*
Ed
 1e-07 1 1 0
1  37 0 0 0.00739253581697133
2  73 19 5 0 0.00739253581697133
4 C0 19 5 7 5
2  74 7 5 0 0.00739253581697133
0

0101000
+65 0 -63 0 *
Ve
1e-07
0.029464 -0.00371504785942387 0
0 0

0101101
*
Ed
 1e-07 1 1 0
1  38 0 0 0.00738079048562882
2  75 20 5 0 0.00738079048562882
4 C0 20 5 7 5
2  76 7 5 0 0.00738079048562882
0

0101000
+63 0 -61 0 *
Ve
1e-07
0.022098 -0.00396169943028468 0
0 0

0101101
*
Ed
 1e-07 1 1 0
1  39 0 0 0.00737012842475679
2  77 21 5 0 0.00737012842475679
4 C0 21 5 7 5
2  78 7 5 0 0.00737012842475679
0

0101000
+61 0 -59 0 *
Ve
1e-07
0.014732 -0.00387677839011273 0
0 0

0101101
*
Ed
 1e-07 1 1 0
1  40 0 0 0.00736648950199916
2  79 22 5 0 0.00736648950199916
4 C0 22 5 7 5
2  80 7 5 0 0.00736648950199916
0

0101000
+59 0 -57 0 *
Ve
1e-07
0.007366 -0.00322189325004115 0
0 0

0101101
*
Ed
 1e-07 1 1 0
1  41 0 0 0.0073950544654307
2  81 23 5 0 0.0073950544654307
4 C0 23 5 7 5
2  82 7 5 0 0.0073950544654307
0

0101000
+57 0 -55 0 *
Ed
 1e-07 1 1 0
1  42 0 0 0.0080398104526575
2  83 8 5 0 0.0080398104526575
4 C0 8 5 7 5
2  84 7 5 0 0.0080398104526575
0

0101000
+55 0 -128 0 *
Wi

0101100
+127 4 +86 4 +82 4 +80 4 +78 4 +76 4 +74 4 +72 4 +70 4 +68 4 
+66 4 +64 4 +62 4 +60 4 +58 4 +56 4 +54 4 +53 4 *
Fa
0  1e-07 7 0

0101000
+52 0 *
Ed
 1e-07 1 1 0
1  43 0 0 1
2  85 23 0 0 1
2  86 8 0 0 1
4 C0 23 0 8 0
0

0101000
+93 2 -55 4 *
Wi

0101000
+91 2 +126 0 -53 4 -50 0 *
Fa
0  1e-07 8 0

0111000
+49 0 *
Ed
 1e-07 1 1 0
1  44 0 0 1
2  87 9 0 0 1
2  88 10 0 0 1
4 C0 9 0 10 0
0

0101000
+121 2 -83 4 *
Wi

0101000
+120 2 +47 0 -82 4 -87 0 *
Fa
0  1e-07 9 0

0101000
+46 0 *
Ed
 1e-07 1 1 0
1  45 0 0 1
2  89 10 0 0 1
2  90 11 0 0 1
4 C0 10 0 11 0
0

0101000
+119 2 -81 4 *
Wi

0101000
+118 2 +44 0 -80 4 -47 0 *
Fa
0  1e-07 10 0

0101000
+43 0 *
Ed
 1e-07 1 1 0
1  46 0 0 1
2  91 11 0 0 1
2  92 12 0 0 1
4 C0 11 0 12 0
0

0101000
+117 2 -79 4 *
Wi

0101000
+116 2 +41 0 -78 4 -44 0 *
Fa
0  1e-07 11 0

0101000
+40 0 *
Ed
 1e-07 1 1 0
1  47 0 0 1
2  93 12 0 0 1
2  94 13 0 0 1
4 C0 12 0 13 0
0

0101000
+115 2 -77 4 *
Wi

0101000
+114 2 +38 0 -76 4 -41 0 *
Fa
0  1e-07 12 0

0101000
+37 0 *
Ed
 1e-07 1 1 0
1  48 0 0 1
2  95 13 0 0 1
2  96 14 0 0 1
4 C0 13 0 14 0
0

0101000
+113 2 -75 4 *
Wi

0101000
+112 2 +35 0 -74 4 -38 0 *
Fa
0  1e-07 13 0

0101000
+34 0 *
Ed
 1e-07 1 1 0
1  49 0 0 1
2  97 14 0 0 1
2  98 15 0 0 1
4 C0 14 0 15 0
0

0101000
+111 2 -73 4 *
Wi

0101000
+110 2 +32 0 -72 4 -35 0 *
Fa
0  1e-07 14 0

0101000
+31 0 *
Ed
 1e-07 1 1 0
1  50 0 0 1
2  99 15 0 0 1
2  100 16 0 0 1
4 C0 15 0 16 0
0

0101000
+109 2 -71 4 *
Wi

0101000
+108 2 +29 0 -70 4 -32 0 *
Fa
0  1e-07 15 0

0101000
+28 0 *
Ed
 1e-07 1 1 0
1  51 0 0 1
2  101 16 0 0 1
2  102 17 0 0 1
4 C0 16 0 17 0
0

0101000
+107 2 -69 4 *
Wi

0101000
+106 2 +26 0 -68 4 -29 0 *
Fa
0  1e-07 16 0

0101000
+25 0 *
Ed
 1e-07 1 1 0
1  52 0 0 1
2  103 17 0 0 1
2  104 18 0 0 1
4 C0 17 0 18 0
0

0101000
+105 2 -67 4 *
Wi

0101000
+104 2 +23 0 -66 4 -26 0 *
Fa
0  1e-07 17 0

0101000
+22 0 *
Ed
 1e-07 1 1 0
1  53 0 0 1
2  105 18 0 0 1
2  106 19 0 0 1
4 C0 18 0 19 0
0

0101000
+103 2 -65 4 *
Wi

0101000
+102 2 +20 0 -64 4 -23 0 *
Fa
0  1e-07 18 0

0101000
+19 0 *
Ed
 1e-07 1 1 0
1  54 0 0 1
2  107 19 0 0 1
2  108 20 0 0 1
4 C0 19 0 20 0
0

0101000
+101 2 -63 4 *
Wi

0101000
+100 2 +17 0 -62 4 -20 0 *
Fa
0  1e-07 19 0

0101000
+16 0 *
Ed
 1e-07 1 1 0
1  55 0 0 1
2  109 20 0 0 1
2  110 21 0 0 1
4 C0 20 0 21 0
0

0101000
+99 2 -61 4 *
Wi

0101000
+98 2 +14 0 -60 4 -17 0 *
Fa
0  1e-07 20 0

0101000
+13 0 *
Ed
 1e-07 1 1 0
1  56 0 0 1
2  111 21 0 0 1
2  112 22 0 0 1
4 C0 21 0 22 0
0

0101000
+97 2 -59 4 *
Wi

0101000
+96 2 +11 0 -58 4 -14 0 *
Fa
0  1e-07 21 0

0101000
+10 0 *
Ed
 1e-07 1 1 0
1  57 0 0 1
2  113 22 0 0 1
2  114 23 0 0 1
4 C0 22 0 23 0
0

0101000
+95 2 -57 4 *
Wi

0101000
+94 2 +8 0 -56 4 -11 0 *
Fa
0  1e-07 22 0

0101000
+7 0 *
Wi

0101000
+92 2 +50 0 -54 4 -8 0 *
Fa
0  1e-07 23 0

0101000
+5 0 *
Sh

0101100
+124 1 +89 1 +84 1 +51 1 +48 1 +45 1 +42 1 +39 1 +36 1 +33 1 
+30 1 +27 1 +24 1 +21 1 +18 1 +15 1 +12 1 +9 1 +6 1 +4 1 
*
So

0100000
+134 0 +3 0 *
Co

1100000
+2 0 *

+1 0 